<svg width="464" height="411" viewBox="0 0 464 411" fill="none" xmlns="http://www.w3.org/2000/svg">
<rect x="463.666" y="205.081" width="21.855" height="271" transform="rotate(135.879 463.666 205.081)" fill="#D88D00"/>
<rect x="294.666" y="205.081" width="21.855" height="232.303" transform="rotate(135.879 294.666 205.081)" fill="#D88D00"/>
<rect x="410.666" y="204.863" width="21.855" height="188.802" transform="rotate(135.879 410.666 204.863)" fill="#D88D00"/>
<rect x="241.666" y="204.863" width="21.855" height="271" transform="rotate(135.879 241.666 204.863)" fill="#D88D00"/>
<rect x="178.666" y="205.542" width="21.855" height="228.775" transform="rotate(135.879 178.666 205.542)" fill="#D88D00"/>
<rect x="354.666" y="204.863" width="21.855" height="271" transform="rotate(135.879 354.666 204.863)" fill="#D88D00"/>
<rect x="448.205" y="190.321" width="21.855" height="271" transform="rotate(44.302 448.205 190.321)" fill="#D88D00"/>
<rect x="279.205" y="190.321" width="21.855" height="230.683" transform="rotate(44.302 279.205 190.321)" fill="#D88D00"/>
<rect x="395.205" y="190.103" width="21.855" height="175.646" transform="rotate(44.302 395.205 190.103)" fill="#D88D00"/>
<rect x="226.205" y="190.103" width="21.855" height="271" transform="rotate(44.302 226.205 190.103)" fill="#D88D00"/>
<rect x="163.205" y="190.781" width="21.855" height="224.916" transform="rotate(44.302 163.205 190.781)" fill="#D88D00"/>
<rect x="339.205" y="190.103" width="21.855" height="271" transform="rotate(44.302 339.205 190.103)" fill="#D88D00"/>
<path d="M124.792 60.7809C121.174 58.0556 118.165 54.6041 115.959 50.6479C113.754 46.6917 112.399 42.3181 111.983 37.8076C111.567 33.2972 112.098 28.7496 113.543 24.4565C114.987 20.1635 117.313 16.2198 120.371 12.8785C123.43 9.53715 127.153 6.872 131.301 5.054C135.45 3.236 139.933 2.30529 144.463 2.3216C148.992 2.3379 153.468 3.30086 157.604 5.14868C161.739 6.9965 165.443 9.68839 168.477 13.0516L152.393 27.5618C151.381 26.4403 150.146 25.5426 148.767 24.9264C147.388 24.3102 145.895 23.9891 144.385 23.9837C142.874 23.9782 141.379 24.2886 139.996 24.8948C138.612 25.5011 137.371 26.3898 136.351 27.5041C135.331 28.6183 134.555 29.9334 134.074 31.365C133.592 32.7966 133.415 34.3131 133.554 35.8172C133.692 37.3213 134.144 38.7798 134.88 40.0991C135.615 41.4183 136.618 42.5693 137.825 43.4781L124.792 60.7809Z" fill="#D88D00"/>
<path d="M169.139 395.644C166.353 399.215 162.851 402.164 158.857 404.302C154.864 406.44 150.468 407.719 145.951 408.058C141.434 408.398 136.896 407.789 132.628 406.271C128.361 404.754 124.457 402.361 121.169 399.246C117.88 396.131 115.279 392.363 113.532 388.184C111.785 384.005 110.931 379.507 111.024 374.978C111.118 370.45 112.157 365.99 114.075 361.887C115.993 357.784 118.748 354.126 122.163 351.15L136.396 367.48C135.258 368.472 134.339 369.692 133.699 371.06C133.06 372.429 132.713 373.916 132.682 375.426C132.651 376.936 132.936 378.436 133.518 379.829C134.101 381.223 134.968 382.48 136.065 383.518C137.161 384.557 138.463 385.355 139.886 385.861C141.309 386.367 142.823 386.57 144.329 386.457C145.835 386.344 147.301 385.917 148.633 385.204C149.964 384.491 151.132 383.508 152.062 382.317L169.139 395.644Z" fill="#D88D00"/>
<path d="M66.6996 24.4111L17.4579 70.4216L3.3936 55.4924L52.6353 9.4819L66.6996 24.4111Z" fill="#D88D00"/>
<path d="M52.3457 399.5L4.84573 352.5L20.3457 340L66.8124 384.664L52.3457 399.5Z" fill="#D88D00"/>
</svg>
