<?xml version="1.0" encoding="UTF-8"?>
<svg version="1.1" xmlns="http://www.w3.org/2000/svg" width="638" height="1013">
<path d="M0 0 C4.00699812 0.67464764 4.84650184 1.91426577 7.25 5.140625 C8.0234375 6.15125 8.796875 7.161875 9.59375 8.203125 C9.99722656 8.74582031 10.40070313 9.28851563 10.81640625 9.84765625 C12.91081128 12.65113885 15.0851639 15.39142079 17.25 18.140625 C17.70189697 18.71868896 18.15379395 19.29675293 18.61938477 19.89233398 C24.11616162 26.90762033 29.81383827 33.7573807 35.49658203 40.62207031 C38.24376341 43.94404393 40.97710876 47.27685042 43.6875 50.62890625 C45.59559601 52.94812163 47.53525417 55.22542418 49.5 57.49609375 C50.70843319 58.91918605 51.9167667 60.34236299 53.125 61.765625 C53.71031494 62.42763916 54.29562988 63.08965332 54.89868164 63.77172852 C57.72417758 67.13340688 58.97980127 68.88673004 59.56640625 73.34765625 C59.0625 76.515625 59.0625 76.515625 56.9375 78.953125 C53.59039125 80.77220584 51.81173579 81.16766601 48.0625 80.515625 C46.1875 78.515625 46.1875 78.515625 45.0625 76.515625 C42.59449953 77.66735855 41.01466435 78.56346065 39.0625 80.515625 C40.78748532 82.74813665 42.5172874 84.97662268 44.25 87.203125 C44.97413086 88.14188477 44.97413086 88.14188477 45.71289062 89.09960938 C49.65072324 94.14743508 53.4941058 98.88983995 59.1875 102.015625 C62.59499568 104.08583936 64.59859031 105.67286206 66.0625 109.515625 C66.63307837 114.74592676 65.91198106 118.09401646 63.0625 122.515625 C60.89546219 124.86840891 59.3481922 126.30699341 56.13671875 126.828125 C52.0276526 126.95193867 48.78647221 126.3776111 45.0625 124.515625 C45.00449219 125.06734375 44.94648438 125.6190625 44.88671875 126.1875 C43.67984557 129.59648775 41.51484295 131.32884689 38.875 133.765625 C37.93269531 134.65765625 36.99039063 135.5496875 36.01953125 136.46875 C32.62256711 138.82014922 31.10365653 139.1919228 27.0625 138.515625 C25.2265625 137.3359375 25.2265625 137.3359375 23.6875 135.640625 C22.80191406 134.67382812 22.80191406 134.67382812 21.8984375 133.6875 C19.30960592 130.62496733 16.79748797 127.51118048 14.328125 124.3515625 C12.62116665 122.21492154 10.89117256 120.1273675 9.109375 118.0546875 C8.35285645 117.17417725 8.35285645 117.17417725 7.58105469 116.27587891 C6.58038478 115.11593838 5.5759077 113.95926979 4.56738281 112.80615234 C1.0625 108.73448558 1.0625 108.73448558 1.0625 106.515625 C-4.96957325 111.0010128 -9.27884804 116.66362377 -13.9375 122.515625 C-15.55993623 124.49689388 -17.18485558 126.47613251 -18.8125 128.453125 C-21.75782692 132.00760112 -21.75782692 132.00760112 -24.3203125 135.83203125 C-25.9375 137.515625 -25.9375 137.515625 -28.7265625 138.0625 C-32.84516398 137.36103503 -35.26237607 135.44672159 -38.3125 132.765625 C-38.85777344 132.3221875 -39.40304687 131.87875 -39.96484375 131.421875 C-41.5234375 130.09375 -41.5234375 130.09375 -43.9375 127.515625 C-43.9375 126.195625 -43.9375 124.875625 -43.9375 123.515625 C-44.741875 124.010625 -45.54625 124.505625 -46.375 125.015625 C-50.75155937 126.85838684 -54.26096945 127.54494802 -58.9375 126.515625 C-62.31027904 124.46180983 -65.15740552 122.07581396 -66.9375 118.515625 C-67.36761819 114.30542962 -67.4074635 110.62869645 -65.75 106.703125 C-63.17305368 103.59301738 -60.66728256 100.99176724 -56.6953125 99.8984375 C-52.45100535 97.77027216 -50.07743671 94.27010033 -47.1875 90.578125 C-46.59839844 89.84916016 -46.00929688 89.12019531 -45.40234375 88.36914062 C-42.09172717 84.27375124 -42.09172717 84.27375124 -39.9375 79.515625 C-41.5875 78.525625 -43.2375 77.535625 -44.9375 76.515625 C-45.494375 77.505625 -45.494375 77.505625 -46.0625 78.515625 C-47.9375 80.515625 -47.9375 80.515625 -50.8125 81.078125 C-55.00792306 80.32294885 -56.4708105 78.95404067 -58.9375 75.515625 C-58.91204793 69.61074559 -55.84975361 66.38749331 -52.1875 62.140625 C-50.99712294 60.71897846 -49.80702665 59.29709678 -48.6171875 57.875 C-48.00584961 57.15248047 -47.39451172 56.42996094 -46.76464844 55.68554688 C-43.90436759 52.28867673 -41.10832555 48.84057775 -38.3125 45.390625 C-37.77351074 44.72772461 -37.23452148 44.06482422 -36.67919922 43.38183594 C-31.81677546 37.39302166 -27.045694 31.33517957 -22.29785156 25.25537109 C-20.88649736 23.450398 -19.47122028 21.64856762 -18.0546875 19.84765625 C-17.57878174 19.24211914 -17.10287598 18.63658203 -16.61254883 18.01269531 C-15.67448042 16.82150754 -14.73426696 15.63200539 -13.79174805 14.44433594 C-11.76115498 11.87883525 -9.79201412 9.30982252 -7.90234375 6.63671875 C-7.31582031 5.81300781 -6.72929687 4.98929688 -6.125 4.140625 C-5.40376953 3.07714844 -5.40376953 3.07714844 -4.66796875 1.9921875 C-2.9375 0.515625 -2.9375 0.515625 0 0 Z " fill="#020303" transform="translate(349.9375,250.484375)"/>
<path d="M0 0 C3.91500367 1.30500122 5.41467328 3.76252749 7.8125 6.9375 C8.522854 7.85946167 8.522854 7.85946167 9.24755859 8.80004883 C10.28280112 10.14392783 11.31522617 11.48998069 12.34521484 12.83789062 C15.25228886 16.63621572 18.18963499 20.41102324 21.125 24.1875 C21.72393066 24.95924561 22.32286133 25.73099121 22.93994141 26.52612305 C26.81171265 31.5051037 30.75418849 36.41557152 34.77734375 41.2734375 C36.48311634 43.36593182 38.15847186 45.47160444 39.81640625 47.6015625 C40.30343018 48.22708008 40.7904541 48.85259766 41.29223633 49.49707031 C42.23393742 50.71019455 43.17278577 51.9255411 44.1081543 53.14355469 C47.88616736 58.01052859 51.65064029 62.49446918 57.125 65.5 C60.53249568 67.57021436 62.53609031 69.15723706 64 73 C64.25926574 76.75935317 64.19211438 79.42365687 63 83 C59.90178394 85.71093905 57.49502783 86.23970167 53.5 86 C48.83903013 85.25639132 47.02797902 83.7092743 44 80 C42.62622909 78.51969175 41.25106506 77.0406759 39.875 75.5625 C35.77960986 70.99247855 31.99001432 66.23747289 28.23242188 61.39160156 C25.03759147 57.28364509 21.75198311 53.27186458 18.375 49.3125 C17.92350586 48.78245361 17.47201172 48.25240723 17.00683594 47.70629883 C16.11270242 46.65683951 15.2184977 45.60744085 14.32421875 44.55810547 C12.15854542 42.00992568 10.0115881 39.44769548 7.875 36.875 C6.78832031 35.57175781 6.78832031 35.57175781 5.6796875 34.2421875 C4 32 4 32 3 29 C-3.60527225 35.39219895 -9.6620542 42.29230245 -15.4375 49.4375 C-19.29420765 54.20640285 -23.36459646 58.72514344 -27.51953125 63.234375 C-30.00464232 66.00517601 -32.35444333 68.85051362 -34.6875 71.75 C-45.79251914 85.46450244 -45.79251914 85.46450244 -53.4375 86.4375 C-57.91903826 85.88713565 -59.20852117 84.44829737 -62 81 C-63.43304064 78.13391871 -63.30644155 76.18699217 -63 73 C-60.44404121 67.56858758 -60.44404121 67.56858758 -57.18823242 66.28662109 C-56.52154541 66.09664551 -55.8548584 65.90666992 -55.16796875 65.7109375 C-50.75551792 64.15021691 -48.45674883 61.58222816 -45.8125 57.8125 C-44.87289968 56.54683441 -43.93141513 55.28256595 -42.98828125 54.01953125 C-42.50311035 53.36033691 -42.01793945 52.70114258 -41.51806641 52.02197266 C-38.94763141 48.59830867 -36.21859332 45.30631048 -33.5 42 C-29.465987 37.06217881 -25.48166172 32.09190994 -21.5625 27.0625 C-16.68991509 20.8096979 -11.66279836 14.69046104 -6.59399414 8.59594727 C-6.02543701 7.91072998 -5.45687988 7.2255127 -4.87109375 6.51953125 C-4.36505615 5.91214111 -3.85901855 5.30475098 -3.33764648 4.67895508 C-2.14386251 3.1805699 -1.06269299 1.59403949 0 0 Z " fill="#BAF5CD" transform="translate(352,287)"/>
<path d="M0 0 C4.08022587 1.55256855 6.37742845 4.46310206 9.0625 7.75 C9.54074219 8.32492187 10.01898438 8.89984375 10.51171875 9.4921875 C14.38439092 14.17589049 18.13389857 18.95459848 21.86230469 23.75341797 C25.08137046 27.88122073 28.41129933 31.89639024 31.8125 35.875 C38.27747233 43.4789794 38.27747233 43.4789794 40.6875 46.5 C41.14511719 47.0671875 41.60273438 47.634375 42.07421875 48.21875 C43.41142737 50.7916071 43.53860293 52.12886471 43 55 C41.17035528 57.19379731 39.48835741 58.94145426 37.375 60.8125 C36.85292969 61.31458984 36.33085937 61.81667969 35.79296875 62.33398438 C33.15887652 64.72417917 31.35088288 65.94452954 27.8125 66.50390625 C24.69933474 65.94613081 23.71951306 65.43215398 21.625 63.125 C21.03460938 62.48046875 20.44421875 61.8359375 19.8359375 61.171875 C17.24710592 58.10934233 14.73498797 54.99555548 12.265625 51.8359375 C10.55866665 49.69929654 8.82867256 47.6117425 7.046875 45.5390625 C6.5425293 44.95205566 6.03818359 44.36504883 5.51855469 43.76025391 C4.51788478 42.60031338 3.5134077 41.44364479 2.50488281 40.29052734 C-1 36.21886058 -1 36.21886058 -1 34 C-4.18541038 36.51869658 -6.83548739 38.80174122 -9.4375 41.9375 C-11.39729571 44.27969488 -12.98772046 45.88281282 -15.3125 47.75 C-19.92425976 51.54911487 -23.39834082 56.26639079 -27 61 C-30.79793279 59.68302856 -33.35328268 58.08343619 -36.3125 55.375 C-37.00988281 54.74335938 -37.70726562 54.11171875 -38.42578125 53.4609375 C-38.94527344 52.97882813 -39.46476562 52.49671875 -40 52 C-39.57740153 47.06968447 -37.52511105 45.31746752 -34 42 C-31.72719395 39.40733352 -29.55472745 36.73360762 -27.375 34.0625 C-26.76180908 33.31468262 -26.14861816 32.56686523 -25.5168457 31.79638672 C-21.23220989 26.55423133 -17.02095418 21.25850054 -12.85766602 15.91967773 C-8.65962635 10.54017741 -4.34734146 5.25974646 0 0 Z " fill="#B9F4CD" transform="translate(352,323)"/>
<path d="M0 0 C0.99 0 1.98 0 3 0 C4.4375 1.4765625 4.4375 1.4765625 6 3.625 C6.61746094 4.45257813 7.23492187 5.28015625 7.87109375 6.1328125 C8.57363281 7.07898438 9.27617187 8.02515625 10 9 C11.68011558 11.17298579 13.36579308 13.34008168 15.0625 15.5 C15.52188965 16.08579834 15.9812793 16.67159668 16.45458984 17.27514648 C21.99838458 24.31380257 27.7210261 31.20513895 33.43408203 38.10644531 C36.17944128 41.42621555 38.91058247 44.75719011 41.62109375 48.10546875 C43.54526669 50.44670381 45.49865914 52.75194245 47.47265625 55.05078125 C48.69020739 56.49210031 49.90765549 57.93350642 51.125 59.375 C51.71869385 60.05377197 52.3123877 60.73254395 52.92407227 61.43188477 C56.9523594 66.24396438 56.9523594 66.24396438 57.1796875 69.8515625 C56 72 56 72 53.4375 73.3125 C52.633125 73.539375 51.82875 73.76625 51 74 C44.266293 65.79882362 37.61455361 57.58072234 31.30078125 49.05078125 C28.15131088 44.8746584 24.87794337 40.80376638 21.59936523 36.72875977 C17.5801109 31.73276822 13.60626926 26.7029763 9.65283203 21.65478516 C7.6925515 19.15218781 5.72351686 16.66840704 3.6875 14.2265625 C2 12 2 12 2 10 C1.34 10 0.68 10 0 10 C-0.23847656 10.53882813 -0.47695313 11.07765625 -0.72265625 11.6328125 C-2.3449302 14.63922845 -4.33713583 17.1798127 -6.4375 19.875 C-6.87779541 20.44162354 -7.31809082 21.00824707 -7.77172852 21.59204102 C-9.17710716 23.39789433 -10.58786284 25.19942814 -12 27 C-12.45117188 27.57637207 -12.90234375 28.15274414 -13.3671875 28.74658203 C-16.10954075 32.24882869 -18.86000028 35.7446222 -21.61328125 39.23828125 C-22.98417682 40.97989788 -24.35199991 42.72387885 -25.71875 44.46875 C-31.11457121 51.35474414 -36.54792752 58.20873037 -42.02905273 65.02709961 C-44.4025143 67.9833613 -46.75161378 70.94644845 -49 74 C-50.875 73.75 -50.875 73.75 -53 73 C-54.1328125 70.953125 -54.1328125 70.953125 -55 69 C-49.23690285 61.60845255 -43.42647224 54.26145456 -37.5 47 C-32.99534696 41.48026052 -28.5570431 35.91578203 -24.17285156 30.30004883 C-20.04369994 25.02466031 -15.82154794 19.82708464 -11.57666016 14.64453125 C-8.04398946 10.32290811 -4.63009294 5.93712388 -1.3671875 1.40625 C-0.91601562 0.9421875 -0.46484375 0.478125 0 0 Z " fill="#BAF5CD" transform="translate(352,253)"/>
<path d="M0 0 C3.0118602 1.32210291 4.80540131 2.63389503 6.84765625 5.203125 C7.62302734 6.16798828 7.62302734 6.16798828 8.4140625 7.15234375 C8.95804687 7.84457031 9.50203125 8.53679687 10.0625 9.25 C10.63613281 9.96800781 11.20976562 10.68601562 11.80078125 11.42578125 C13.54243384 13.61055341 15.27312674 15.80353398 17 18 C17.72678955 18.92329102 17.72678955 18.92329102 18.46826172 19.86523438 C20.25370622 22.13565365 22.0382186 24.40668608 23.81225586 26.68603516 C26.34137767 29.92726672 28.91552568 33.12360091 31.5390625 36.2890625 C32.13525391 37.0109375 32.73144531 37.7328125 33.34570312 38.4765625 C34.50786401 39.8798303 35.67560891 41.27849732 36.84960938 42.671875 C37.63948242 43.62707031 37.63948242 43.62707031 38.4453125 44.6015625 C38.91469238 45.16182129 39.38407227 45.72208008 39.86767578 46.29931641 C41.14600395 48.21928925 41.69837297 49.71574854 42 52 C40.5625 53.75 40.5625 53.75 39 55 C35.01004296 53.67001432 33.44451229 51.04987368 31 47.8125 C30.00927033 46.52592172 29.01838056 45.23946671 28.02734375 43.953125 C27.52315918 43.29376953 27.01897461 42.63441406 26.49951172 41.95507812 C24.21138217 38.97179232 21.88741649 36.01714301 19.5625 33.0625 C19.11994873 32.49732666 18.67739746 31.93215332 18.22143555 31.34985352 C15.72151245 28.16255239 13.19525996 24.99912955 10.640625 21.85546875 C10.08560303 21.17025146 9.53058105 20.48503418 8.95874023 19.77905273 C7.87909141 18.44834513 6.79539878 17.12090606 5.70727539 15.79711914 C2 11.22232775 2 11.22232775 2 9 C1.34 9 0.68 9 0 9 C-0.23976563 9.54011719 -0.47953125 10.08023437 -0.7265625 10.63671875 C-2.33272661 13.61748343 -4.29628118 16.13841996 -6.375 18.8125 C-6.81271729 19.37654541 -7.25043457 19.94059082 -7.70141602 20.52172852 C-11.56814191 25.48721106 -15.49899354 30.40145247 -19.43994141 35.30810547 C-24.67856618 41.83138815 -29.84323641 48.41192998 -35 55 C-36.98 54.34 -38.96 53.68 -41 53 C-40.39738701 49.3257347 -38.85773744 47.27707664 -36.5 44.4375 C-35.77683594 43.55835938 -35.05367188 42.67921875 -34.30859375 41.7734375 C-33.54675781 40.85820312 -32.78492188 39.94296875 -32 39 C-30.51984297 37.18830868 -29.04068066 35.37580422 -27.5625 33.5625 C-26.04182301 31.7082051 -24.52099186 29.85403663 -23 28 C-21.60403235 26.29177642 -20.20820102 24.58344143 -18.8125 22.875 C-12.56152714 15.2336862 -6.27900743 7.61827852 0 0 Z " fill="#BBF7CF" transform="translate(352,271)"/>
<path d="M0 0 C3.12215428 1.35727511 4.93163119 2.78281963 7.06640625 5.421875 C7.62859863 6.11039551 8.19079102 6.79891602 8.77001953 7.50830078 C9.36153809 8.24806152 9.95305664 8.98782227 10.5625 9.75 C11.18237793 10.51425293 11.80225586 11.27850586 12.44091797 12.06591797 C17.10912116 17.8384531 21.70800331 23.66552741 26.2734375 29.51953125 C28.71925898 32.65150675 31.19589552 35.75785157 33.68261719 38.85742188 C34.71443768 40.14446525 35.74380356 41.43348097 36.77050781 42.72460938 C38.93562596 45.44573331 41.11432731 48.13288207 43.3828125 50.76953125 C44.36894531 51.93548828 44.36894531 51.93548828 45.375 53.125 C45.93960938 53.76695312 46.50421875 54.40890625 47.0859375 55.0703125 C48 57 48 57 47.1640625 59.7421875 C46.58785156 60.85980469 46.58785156 60.85980469 46 62 C45.34 62 44.68 62 44 62 C42.44140625 60.26953125 42.44140625 60.26953125 40.5625 57.8125 C37.3152236 53.64751505 33.98942946 49.57898306 30.5625 45.5625 C27.16747669 41.57359506 23.80622292 37.56328291 20.5 33.5 C16.66091841 28.78242586 12.74900946 24.13151746 8.8046875 19.50195312 C6.74293836 17.07833356 4.73125928 14.6477253 2.80078125 12.1171875 C2.20652344 11.41851562 1.61226563 10.71984375 1 10 C0.34 10 -0.32 10 -1 10 C-2.66303921 11.94329212 -4.21248835 13.8976763 -5.75 15.9375 C-10.06292177 21.54893586 -14.47857201 27.05518615 -19 32.5 C-23.87675059 38.38543462 -28.67211501 44.32333526 -33.36132812 50.359375 C-36.1697926 53.97089172 -39.05569712 57.49937608 -42 61 C-42.99 60.67 -43.98 60.34 -45 60 C-45.85522461 58.17236328 -45.85522461 58.17236328 -46 56 C-44.95532227 54.14404297 -44.95532227 54.14404297 -43.31640625 52.2421875 C-42.42586548 51.18825806 -42.42586548 51.18825806 -41.51733398 50.11303711 C-40.87223877 49.37448486 -40.22714355 48.63593262 -39.5625 47.875 C-38.25216284 46.33240602 -36.94226378 44.78943979 -35.6328125 43.24609375 C-34.68196777 42.13790283 -34.68196777 42.13790283 -33.71191406 41.00732422 C-31.7356206 38.68999895 -29.82502848 36.3275523 -27.9375 33.9375 C-18.80954968 22.46904959 -9.52172546 11.14366266 0 0 Z " fill="#030303" transform="translate(352,298)"/>
<path d="M0 0 C0.66 0 1.32 0 2 0 C3.55859375 1.73046875 3.55859375 1.73046875 5.4375 4.1875 C8.63874324 8.29595478 11.92370748 12.2974105 15.3125 16.25 C19.84625976 21.55719398 24.19736442 26.98907797 28.47192383 32.50683594 C30.23588985 34.78008608 31.9629308 36.9629308 34 39 C33.625 41.125 33.625 41.125 33 43 C32.01 43 31.02 43 30 43 C28.20033016 41.16993034 26.60654999 39.36454788 25 37.375 C24.52087158 36.79540527 24.04174316 36.21581055 23.5480957 35.61865234 C19.55173494 30.75629396 15.660649 25.80855398 11.79956055 20.83837891 C9.38333458 17.73161381 6.91882347 14.69893876 4.3125 11.75 C2 9 2 9 2 7 C-2.23899379 11.07197903 -5.97060522 15.45071292 -9.6875 20 C-10.29674316 20.74241943 -10.90598633 21.48483887 -11.53369141 22.24975586 C-16.82733037 28.72894215 -21.95986241 35.32239835 -27 42 C-28.32 41.34 -29.64 40.68 -31 40 C-30.41312897 36.89766669 -29.54374048 35.13103016 -27.4453125 32.78515625 C-26.9181665 32.18775635 -26.39102051 31.59035645 -25.84790039 30.97485352 C-25.27934326 30.34377686 -24.71078613 29.7127002 -24.125 29.0625 C-22.93818019 27.71929923 -21.75199332 26.37553898 -20.56640625 25.03125 C-19.96844238 24.35707031 -19.37047852 23.68289063 -18.75439453 22.98828125 C-16.15526601 20.04265049 -13.60192711 17.05963783 -11.0625 14.0625 C-10.61092529 13.53124512 -10.15935059 12.99999023 -9.6940918 12.45263672 C-6.65706085 8.85298321 -3.8081513 5.16009905 -1.12109375 1.29296875 C-0.75113281 0.86628906 -0.38117188 0.43960937 0 0 Z " fill="#050705" transform="translate(352,334)"/>
<path d="M0 0 C3.80392929 3.70674861 7.31162852 7.5788695 10.75 11.625 C11.27078125 12.23456543 11.7915625 12.84413086 12.328125 13.47216797 C16.3147443 18.15375858 20.21404615 22.89932267 24.0625 27.6953125 C25.93766155 29.92584741 27.90802986 31.97340393 30 34 C35.32697239 32.54718935 38.36402802 28.91888622 42 25 C42.495 26.485 42.495 26.485 43 28 C41.14124196 29.85274264 39.26592958 31.68059494 37.375 33.5 C36.85292969 34.02464844 36.33085937 34.54929687 35.79296875 35.08984375 C33.06199994 37.6859499 31.61733935 38.8986232 27.8125 39.5234375 C24.7093247 38.9459021 23.71575762 38.42801728 21.625 36.125 C21.03460938 35.48046875 20.44421875 34.8359375 19.8359375 34.171875 C17.24710592 31.10934233 14.73498797 27.99555548 12.265625 24.8359375 C10.55866665 22.69929654 8.82867256 20.6117425 7.046875 18.5390625 C6.29035645 17.65855225 6.29035645 17.65855225 5.51855469 16.76025391 C4.51788478 15.60031338 3.5134077 14.44364479 2.50488281 13.29052734 C-1 9.21886058 -1 9.21886058 -1 7 C-3.31 8.65 -5.62 10.3 -8 12 C-6.59023295 8.96147295 -4.91129772 6.4060405 -2.875 3.75 C-2.06675781 2.69039063 -2.06675781 2.69039063 -1.2421875 1.609375 C-0.83226562 1.07828125 -0.42234375 0.5471875 0 0 Z " fill="#020303" transform="translate(352,350)"/>
<path d="M0 0 C1.67542976 0.28604898 3.34385343 0.61781233 5 1 C5.625 2.875 5.625 2.875 6 5 C5.34 5.66 4.68 6.32 4 7 C1.875 6.625 1.875 6.625 0 6 C-0.38218767 4.34385343 -0.71395102 2.67542976 -1 1 C-0.67 0.67 -0.34 0.34 0 0 Z " fill="#0D120F" transform="translate(297,359)"/>
<path d="M0 0 C1.67542976 0.28604898 3.34385343 0.61781233 5 1 C5.625 2.875 5.625 2.875 6 5 C5.34 5.66 4.68 6.32 4 7 C1.875 6.625 1.875 6.625 0 6 C-0.38218767 4.34385343 -0.71395102 2.67542976 -1 1 C-0.67 0.67 -0.34 0.34 0 0 Z " fill="#171E19" transform="translate(404,360)"/>
<path d="M0 0 C0.66 0.66 1.32 1.32 2 2 C-0.31 3.65 -2.62 5.3 -5 7 C-4.75 4.625 -4.75 4.625 -4 2 C-1.9375 0.6875 -1.9375 0.6875 0 0 Z " fill="#9DCFAE" transform="translate(391,369)"/>
</svg>
