<?xml version="1.0" encoding="UTF-8"?>
<svg version="1.1" xmlns="http://www.w3.org/2000/svg" width="877" height="284">
<path d="M0 0 C11.323125 -0.12375 11.323125 -0.12375 22.875 -0.25 C25.23769043 -0.28641602 27.60038086 -0.32283203 30.03466797 -0.36035156 C31.93716528 -0.37204951 33.83967271 -0.38223871 35.7421875 -0.390625 C37.18766968 -0.4213208 37.18766968 -0.4213208 38.66235352 -0.45263672 C48.25700817 -0.4575034 56.31049382 2.36854564 63.30859375 9.02734375 C68.64254821 15.24823751 70.30639239 22.93166714 70 31 C69.00091294 36.361513 67.35287132 41.62668958 64 46 C63.34 46 62.68 46 62 46 C61.67 46.99 61.34 47.98 61 49 C58.49609375 50.60546875 58.49609375 50.60546875 55.4375 52.1875 C54.42558594 52.71730469 53.41367187 53.24710938 52.37109375 53.79296875 C51.58863281 54.19128906 50.80617188 54.58960938 50 55 C50.84763916 56.41478638 50.84763916 56.41478638 51.71240234 57.8581543 C53.81453947 61.36899108 55.91188214 64.88267172 58.0078125 68.3972168 C58.91439057 69.91589696 59.82225479 71.43381014 60.73144531 72.95092773 C62.04052853 75.13583633 63.34491186 77.32349109 64.6484375 79.51171875 C65.05371674 80.18587326 65.45899597 80.86002777 65.8765564 81.55461121 C67.89799289 84.95848069 69.65857424 88.25597365 71 92 C68.1001677 92.21680989 65.21652133 92.37461435 62.3125 92.5 C61.08756836 92.60054687 61.08756836 92.60054687 59.83789062 92.703125 C57.35108396 92.78366935 55.3880044 92.70971176 53 92 C50.63513846 89.70253701 49.43241318 86.93937357 48 84 C46.93751436 82.18631102 45.86119356 80.38067802 44.7734375 78.58203125 C43.63958425 76.65946758 42.50678755 74.73628044 41.375 72.8125 C40.23711641 70.88142954 39.09910007 68.95043729 37.9609375 67.01953125 C37.46384277 66.17495361 36.96674805 65.33037598 36.45458984 64.46020508 C34.98052181 61.96705577 33.49014439 59.48357399 32 57 C27.05 56.67 22.1 56.34 17 56 C17 67.88 17 79.76 17 92 C11.39 92 5.78 92 0 92 C0 61.64 0 31.28 0 0 Z M17 13 C17 22.57 17 32.14 17 42 C23.2184375 42.12375 23.2184375 42.12375 29.5625 42.25 C30.85615479 42.28641602 32.14980957 42.32283203 33.48266602 42.36035156 C40.19832518 42.42497031 44.64384991 42.220225 50 38 C52.76094442 33.27967567 53.59219527 29.42845667 53 24 C51.26348526 19.33882885 49.18637476 16.69124092 45 14 C41.44964266 13.08241633 38.13782739 12.88191158 34.48046875 12.90234375 C33.55903076 12.90484131 32.63759277 12.90733887 31.68823242 12.90991211 C30.53299072 12.91901611 29.37774902 12.92812012 28.1875 12.9375 C24.495625 12.958125 20.80375 12.97875 17 13 Z " fill="#FEFEFE" transform="translate(716,107)"/>
<path d="M0 0 C2.15649414 1.6003418 2.15649414 1.6003418 4.47265625 3.76171875 C5.34905762 4.57850098 6.22545898 5.3952832 7.12841797 6.23681641 C11.81846483 10.74982018 16.4576282 15.30933837 21.05102539 19.9206543 C22.69239796 21.56741404 24.33908819 23.20872095 25.98632812 24.84960938 C30.92305326 29.78359155 35.74677209 34.7558842 40.28100586 40.06713867 C44.57254036 44.89260077 49.32014208 49.31210257 53.94335938 53.81640625 C54.72388672 54.58597656 55.50441406 55.35554688 56.30859375 56.1484375 C57.01814209 56.84114746 57.72769043 57.53385742 58.45874023 58.24755859 C60 60 60 60 60 62 C60.5878125 62.26167969 61.175625 62.52335937 61.78125 62.79296875 C67.1860814 65.73327315 71.33651034 71.16419365 75 76 C73.33303267 80.35573125 70.08512316 83.14956412 66.8203125 86.33984375 C66.21113983 86.94381485 65.60196716 87.54778595 64.97433472 88.1700592 C63.0292538 90.09735971 61.07762423 92.01784466 59.125 93.9375 C57.18037309 95.85441538 55.23725681 97.77280076 53.29708862 99.69422913 C52.09116048 100.88800439 50.88256904 102.07909715 49.67092896 103.26707458 C46.54046027 106.3606275 43.69579012 109.50947299 41 113 C38.875 115.3125 38.875 115.3125 37 117 C36.34 117 35.68 117 35 117 C35 117.66 35 118.32 35 119 C34.34 119 33.68 119 33 119 C32.59340149 119.89408318 32.59340149 119.89408318 32.17858887 120.80622864 C31.01581091 122.9705703 29.87299835 124.37480732 28.14257812 126.1003418 C27.56858276 126.67741379 26.9945874 127.25448578 26.40319824 127.8490448 C25.78545532 128.4596022 25.1677124 129.07015961 24.53125 129.69921875 C23.89513794 130.33487259 23.25902588 130.97052643 22.6036377 131.6254425 C21.26107333 132.96499114 19.91608471 134.30211386 18.56884766 135.63696289 C16.502339 137.6851817 14.44397788 139.74132332 12.38671875 141.79882812 C11.08120077 143.09943189 9.77522672 144.39957806 8.46875 145.69921875 C7.85100708 146.31584885 7.23326416 146.93247894 6.59680176 147.5677948 C2.59934697 151.52081862 0.77491708 153.14947675 -4.8125 153.25 C-9.04415503 153.18902514 -11.7578874 152.94737509 -15 150 C-18.01076873 145.78492378 -18.54323565 142.2856906 -17.7578125 137.2890625 C-16.31639764 132.93509801 -13.23185293 130.13591667 -10 127 C-9.23300781 126.23300781 -8.46601562 125.46601563 -7.67578125 124.67578125 C-6.12433789 123.12433789 -4.56720725 121.57855689 -3.00390625 120.0390625 C-0.87689451 117.94392736 -0.87689451 117.94392736 1.25 115.1875 C3.23838676 112.70201655 5.50264551 110.95738596 8 109 C8.33 108.34 8.66 107.68 9 107 C9.66 107 10.32 107 11 107 C11 106.34 11 105.68 11 105 C12.61934511 103.28731878 14.29614576 101.62863019 16 100 C17.28064331 98.71935669 17.28064331 98.71935669 18.5871582 97.4128418 C28.2935791 87.7064209 28.2935791 87.7064209 38 78 C33.93126216 69.46762071 25.79012262 62.75644875 19.15625 56.16796875 C18.63866623 55.65342636 18.12108246 55.13888397 17.58781433 54.60874939 C14.94074146 51.97973952 12.28661071 49.35838037 9.62231445 46.74682617 C8.62961363 45.766221 7.63701484 44.78551253 6.64453125 43.8046875 C5.75096924 42.92796387 4.85740723 42.05124023 3.93676758 41.14794922 C2 39 2 39 2 37 C0.515 36.505 0.515 36.505 -1 36 C-2.578125 34.3984375 -2.578125 34.3984375 -4.25 32.375 C-7.1686684 28.9172145 -10.22839677 25.74347948 -13.51953125 22.640625 C-17.03366653 18.7463326 -17.38781804 15.2606579 -17.24609375 10.18359375 C-16.89475764 7.06618284 -16.07503682 5.35170839 -14 3 C-9.68836225 0.09215129 -5.10539244 -1.54557443 0 0 Z M-8 10 C-8 11.65 -8 13.3 -8 15 C-7.34 15 -6.68 15 -6 15 C-5.67 15.99 -5.34 16.98 -5 18 C-4.34 18 -3.68 18 -3 18 C-2.77417236 18.55252441 -2.54834473 19.10504883 -2.31567383 19.67431641 C-0.60381902 22.70031917 1.56972033 24.77522347 4.05078125 27.2109375 C4.54660202 27.7015567 5.04242279 28.1921759 5.55326843 28.69766235 C7.13498127 30.26162513 8.72321291 31.81873768 10.3125 33.375 C11.89023178 34.92493353 13.4664109 36.47636621 15.03959656 38.03091431 C16.47402266 39.44762679 17.91327 40.85945287 19.3527832 42.27099609 C21.27909125 44.25681841 22.99513029 46.19456906 24.71557617 48.34228516 C25.84636597 49.657854 25.84636597 49.657854 27 51 C27.66 51 28.32 51 29 51 C29.33 51.99 29.66 52.98 30 54 C30.66 54 31.32 54 32 54 C32.27021973 54.5969165 32.54043945 55.19383301 32.81884766 55.80883789 C33.99107394 57.98344122 35.1328932 59.35149082 36.8984375 61.05859375 C37.46046875 61.60966797 38.0225 62.16074219 38.6015625 62.72851562 C39.47941406 63.57446289 39.47941406 63.57446289 40.375 64.4375 C44.18121731 68.12902103 47.78442605 71.76272891 51 76 C49.63107063 79.09703328 48.07882641 81.11761608 45.625 83.4375 C43.52723483 85.46591756 41.69160854 87.39002449 39.875 89.6875 C37.82179877 92.21978152 35.54011099 93.96791121 33 96 C31.64613064 97.65002828 30.31321858 99.3174387 29 101 C27.34807771 102.68128174 25.67858726 104.34533981 24 106 C22.98447076 107.00465147 21.96909675 108.00945986 20.95385742 109.0144043 C20.41367477 109.54813156 19.87349213 110.08185883 19.31694031 110.63175964 C16.90337863 113.01850947 14.49517337 115.41063441 12.0871582 117.80297852 C10.81352099 119.06646722 9.53810824 120.32816847 8.26098633 121.58813477 C6.41280752 123.4121853 4.57104904 125.24250523 2.73046875 127.07421875 C1.8681086 127.92109505 1.8681086 127.92109505 0.98832703 128.78507996 C-0.37959931 130.15261225 -1.69539653 131.57193248 -3 133 C-3 133.66 -3 134.32 -3 135 C-3.66 135 -4.32 135 -5 135 C-6.38232443 136.62626404 -7.71937515 138.2925002 -9 140 C-8.34 141.32 -7.68 142.64 -7 144 C-2.17965738 143.58682778 -0.09007389 141.61980085 3 138 C3 137.34 3 136.68 3 136 C3.66 136 4.32 136 5 136 C6.35386936 134.34997172 7.68678142 132.6825613 9 131 C9.99 130.505 9.99 130.505 11 130 C11 129.34 11 128.68 11 128 C12.485 127.505 12.485 127.505 14 127 C14 126.34 14 125.68 14 125 C15.485 124.505 15.485 124.505 17 124 C18.51031015 122.510147 18.51031015 122.510147 20 120.625 C25.12398611 114.58601637 30.82262746 109.11857574 36.45703125 103.56347656 C41.69468396 98.39288274 46.85371852 93.21626574 51.59301758 87.5769043 C53.50749481 85.43121482 55.74147871 83.77019236 58 82 C59.37368345 80.36643049 60.71937515 78.7074998 62 77 C58.04247722 72.23067767 53.88878474 67.8202386 49.44140625 63.50390625 C47.45883886 61.47058513 45.60747597 59.40863947 43.7578125 57.2578125 C39.82232222 52.7210153 35.59479673 48.51960275 31.3125 44.3125 C26.95342093 40.02877234 22.7605802 35.8299395 19 31 C17.34466005 29.65263027 15.67987227 28.31665664 14 27 C13.67 26.34 13.34 25.68 13 25 C12.34 25 11.68 25 11 25 C10.79246094 24.46890625 10.58492187 23.9378125 10.37109375 23.390625 C8.42806915 20.00278724 5.8197126 17.49082014 3.0625 14.75 C2.25522461 13.91855469 2.25522461 13.91855469 1.43164062 13.0703125 C0.01424346 11.65116761 -1.48860308 10.31858496 -3 9 C-5.9254644 8.7763932 -5.9254644 8.7763932 -8 10 Z " fill="#D38C09" transform="translate(118,72)"/>
<path d="M0 0 C9.24 0 18.48 0 28 0 C37.25395678 25.02774675 46.40767249 50.07874421 55.07324219 75.31689453 C57.00014185 80.89556348 58.99858611 86.44769049 61 92 C55.06 92 49.12 92 43 92 C41.82956003 88.70963048 40.66349466 85.41782464 39.5 82.125 C39.16613281 81.18785156 38.83226562 80.25070313 38.48828125 79.28515625 C38.17246094 78.38925781 37.85664062 77.49335938 37.53125 76.5703125 C37.23798828 75.74289551 36.94472656 74.91547852 36.64257812 74.06298828 C36 72 36 72 36 70 C21.48 70 6.96 70 -8 70 C-8.99 73.63 -9.98 77.26 -11 81 C-12.24429712 84.7079222 -13.62098187 88.33846911 -15 92 C-20.61 92 -26.22 92 -32 92 C-29.74978926 82.99915703 -29.74978926 82.99915703 -28.70996094 80.03881836 C-28.35677795 79.02520737 -28.35677795 79.02520737 -27.99645996 77.99111938 C-27.74497192 77.28119843 -27.49348389 76.57127747 -27.234375 75.83984375 C-26.96419556 75.06837006 -26.69401611 74.29689636 -26.41564941 73.50204468 C-25.53081737 70.97920578 -24.6406025 68.45830704 -23.75 65.9375 C-23.1297295 64.17412619 -22.50961474 62.41069758 -21.88964844 60.6472168 C-17.3857943 47.8537886 -12.8294935 35.07902677 -8.25 22.3125 C-7.79747864 21.05057327 -7.79747864 21.05057327 -7.33581543 19.76315308 C-6.48034994 17.37940545 -5.62335682 14.99621422 -4.765625 12.61328125 C-4.51413696 11.91294769 -4.26264893 11.21261414 -4.00354004 10.49105835 C-2.73108964 6.9633012 -1.39348808 3.48372019 0 0 Z M12 13 C6.0492512 28.9414683 6.0492512 28.9414683 0.88671875 45.1484375 C-0.25416327 48.81735325 -1.65091106 52.40242948 -3 56 C8.22 56 19.44 56 31 56 C28.55039615 47.83465385 26.04215583 39.71378717 23.34863281 31.62866211 C22.86175774 30.15440307 22.38304864 28.67742472 21.91210938 27.19799805 C21.22408128 25.04032869 20.50968871 22.89306125 19.7890625 20.74609375 C19.48097153 19.75095009 19.48097153 19.75095009 19.16665649 18.73570251 C18.50367937 16.66423257 18.50367937 16.66423257 17 14 C14.43019025 12.96788333 14.43019025 12.96788333 12 13 Z " fill="#FEFEFE" transform="translate(646,107)"/>
<path d="M0 0 C9.24 0 18.48 0 28 0 C32.5055857 10.13756783 32.5055857 10.13756783 33.7890625 13.671875 C34.08554687 14.48591797 34.38203125 15.29996094 34.6875 16.13867188 C34.996875 17.00041016 35.30625 17.86214844 35.625 18.75 C36.13160156 20.15088867 36.13160156 20.15088867 36.6484375 21.58007812 C39.94945769 30.7595455 43.11190339 39.98643904 46.2722168 49.21508789 C49.21006448 57.77420299 52.24261789 66.29292817 55.40039062 74.7734375 C57.50151739 80.45777614 59.305539 86.180796 61 92 C55.39 92 49.78 92 44 92 C41.125 84.3125 41.125 84.3125 40.23095703 81.91918945 C39.99231934 81.28198975 39.75368164 80.64479004 39.5078125 79.98828125 C39.26691895 79.34415283 39.02602539 78.70002441 38.77783203 78.03637695 C37.87805824 75.68075447 36.93650489 73.34126221 36 71 C14.22 70.505 14.22 70.505 -8 70 C-8.33 71.98 -8.66 73.96 -9 76 C-9.35086217 77.28726407 -9.73241635 78.56691541 -10.15625 79.83203125 C-10.37410156 80.48494141 -10.59195312 81.13785156 -10.81640625 81.81054688 C-11.04199219 82.47119141 -11.26757812 83.13183594 -11.5 83.8125 C-11.72558594 84.49248047 -11.95117188 85.17246094 -12.18359375 85.87304688 C-13.86624765 90.86624765 -13.86624765 90.86624765 -15 92 C-17.86267567 92.07325168 -20.700719 92.09238205 -23.5625 92.0625 C-24.36880859 92.05798828 -25.17511719 92.05347656 -26.00585938 92.04882812 C-28.00393756 92.03700518 -30.00197783 92.01906914 -32 92 C-29.58740058 83.24792534 -26.45603211 74.75976356 -23.36105347 66.23287964 C-21.7860495 61.89205567 -20.22039155 57.54787311 -18.65625 53.203125 C-18.34376816 52.33513779 -18.03128632 51.46715057 -17.70933533 50.57286072 C-14.4851321 41.5977841 -11.36754284 32.58781183 -8.28491211 23.56323242 C-5.59240243 15.6826726 -2.81375963 7.83797717 0 0 Z M12 13 C10.64825112 16.91003018 9.29738525 20.82036407 7.94726562 24.73095703 C7.48981388 26.05558094 7.03213915 27.38012787 6.57421875 28.70458984 C5.04285054 33.13413956 3.51854491 37.56603605 2 42 C1.59716797 43.17498047 1.19433594 44.34996094 0.77929688 45.56054688 C0.41384766 46.63884766 0.04839844 47.71714844 -0.328125 48.828125 C-0.65200195 49.78106445 -0.97587891 50.73400391 -1.30957031 51.71582031 C-2.09644573 53.92136808 -2.09644573 53.92136808 -2 56 C8.89 56 19.78 56 31 56 C29.234972 49.52823065 27.50682673 43.22842293 25.30078125 36.92578125 C25.0608696 36.23107224 24.82095795 35.53636322 24.57377625 34.82060242 C23.82335684 32.65006082 23.06804244 30.4812629 22.3125 28.3125 C21.79589521 26.82107737 21.27961686 25.32954163 20.76367188 23.83789062 C19.51286802 20.22394746 18.25767814 16.61155632 17 13 C15.35 13 13.7 13 12 13 Z " fill="#FEFEFE" transform="translate(379,107)"/>
<path d="M0 0 C3.32302186 1.56377499 5.56184007 3.21353151 8 6 C8 6.66 8 7.32 8 8 C8.99 8.33 9.98 8.66 11 9 C11 9.66 11 10.32 11 11 C11.99 11.33 12.98 11.66 14 12 C14 12.66 14 13.32 14 14 C14.99 14.33 15.98 14.66 17 15 C17 15.66 17 16.32 17 17 C17.99 17.33 18.98 17.66 20 18 C21.42871094 19.44995117 21.42871094 19.44995117 22.984375 21.35546875 C27.75957803 26.98302795 33.01320541 32.12126518 38.25 37.3125 C39.25284017 38.31030974 40.25544582 39.30835524 41.2578125 40.30664062 C43.08743284 42.12816884 44.91863841 43.94804615 46.75097656 45.7668457 C47.4931543 46.50378662 48.23533203 47.24072754 49 48 C49.59522461 48.55324951 50.19044922 49.10649902 50.80371094 49.67651367 C52 51 52 51 52 53 C53.485 53.495 53.485 53.495 55 54 C55 54.66 55 55.32 55 56 C55.66 56 56.32 56 57 56 C58.4453125 57.46875 58.4453125 57.46875 60.125 59.5 C63.36618854 63.35660408 66.85695327 66.76635332 70.59375 70.140625 C72 72 72 72 72.0390625 73.90625 C70.52192781 76.96333343 68.33895898 78.90017536 65.875 81.25 C61.81212212 85.16909422 58.0126857 89.15946002 54.4375 93.5390625 C53 95 53 95 50 96 C49.505 97.485 49.505 97.485 49 99 C48.34 99 47.68 99 47 99 C46.505 100.485 46.505 100.485 46 102 C45.34 102 44.68 102 44 102 C43.69292114 102.79712402 43.69292114 102.79712402 43.37963867 103.61035156 C41.42375735 106.9981 38.70193361 109.52262631 35.92578125 112.234375 C35.3237236 112.83123108 34.72166595 113.42808716 34.10136414 114.04302979 C32.17644085 115.95017565 30.24498653 117.85052066 28.3125 119.75 C25.78436909 122.24138017 23.25944381 124.73594323 20.73828125 127.234375 C19.83465096 128.12968933 19.83465096 128.12968933 18.9127655 129.04309082 C15.2228264 132.72060588 11.66789293 136.46645175 8.31494141 140.45800781 C6.33833349 142.77591639 4.18589122 144.88034791 2 147 C-1.95677402 145.32598022 -4.84464213 142.86850715 -8 140 C-8 139.34 -8 138.68 -8 138 C-8.928125 137.62875 -8.928125 137.62875 -9.875 137.25 C-12.38710296 135.77229238 -12.76107344 134.56044823 -14 132 C-14.99 131.67 -15.98 131.34 -17 131 C-16.55280717 126.58130891 -13.54749337 123.9911309 -10.625 120.9375 C-10.13 120.40833984 -9.635 119.87917969 -9.125 119.33398438 C-7.76015205 117.87972793 -6.38060243 116.4393084 -5 115 C-4.14535156 114.07380859 -4.14535156 114.07380859 -3.2734375 113.12890625 C-2 112 -2 112 0 112 C0.22131592 111.4527124 0.44263184 110.9054248 0.6706543 110.34155273 C2.41575028 107.26768395 4.76594952 104.98694375 7.26953125 102.53515625 C7.78754807 102.01996933 8.30556488 101.50478241 8.83927917 100.97398376 C10.49236715 99.3320505 12.15226177 97.69719981 13.8125 96.0625 C14.91777871 94.96726191 16.02260128 93.87156329 17.12695312 92.77539062 C19.16881385 90.7498107 21.21334469 88.72701058 23.26098633 86.70727539 C24.16486084 85.81387451 25.06873535 84.92047363 26 84 C26.89420654 83.11755615 27.78841309 82.2351123 28.7097168 81.32592773 C30.99612933 79.00393091 33.01080938 76.57858043 35 74 C28.28801558 66.15927346 21.00051829 58.93004542 13.65307617 51.69018555 C12.85361572 50.899104 12.05415527 50.10802246 11.23046875 49.29296875 C10.51270264 48.5868042 9.79493652 47.88063965 9.05541992 47.15307617 C6.88032601 44.87464011 4.95098602 42.47124896 3 40 C1.35651841 38.31046639 -0.31442265 36.64753894 -2 35 C-3.33079657 33.67194381 -4.66009517 32.34238568 -5.98828125 31.01171875 C-6.69404297 30.30595703 -7.39980469 29.60019531 -8.12695312 28.87304688 C-11.41796875 25.58203125 -14.70898437 22.29101562 -18 19 C-16.59743272 15.26007537 -15.48635681 13.16614799 -12.375 10.625 C-11.67117187 10.03847656 -10.96734375 9.45195313 -10.2421875 8.84765625 C-9.50226563 8.23792969 -8.76234375 7.62820312 -8 7 C-6.49590136 5.69219898 -4.9957055 4.37989186 -3.5 3.0625 C-1.75 1.53125 -1.75 1.53125 0 0 Z M0 12 C-2.97 14.475 -2.97 14.475 -6 17 C-5.01 17.495 -5.01 17.495 -4 18 C-3.690625 18.66 -3.38125 19.32 -3.0625 20 C-2.1108154 22.34608221 -2.1108154 22.34608221 1 23 C1.67024787 24.33153671 2.33610521 25.66528433 3 27 C4.60668605 28.75879106 6.27245454 30.46425019 7.97265625 32.1328125 C8.45576767 32.61072235 8.93887909 33.0886322 9.43663025 33.58102417 C10.97389041 35.10053614 12.51769326 36.6131639 14.0625 38.125 C15.60997477 39.64484559 17.15595926 41.16613419 18.69908142 42.69039917 C20.09570801 44.06918742 21.49708323 45.44316065 22.89868164 46.81689453 C25 49 25 49 26 51 C26.66 51 27.32 51 28 51 C28 51.66 28 52.32 28 53 C29.83333333 55.16666667 29.83333333 55.16666667 32 57 C32.66 57 33.32 57 34 57 C34.33 57.99 34.66 58.98 35 60 C35.66 60 36.32 60 37 60 C37.25652344 60.58523437 37.51304688 61.17046875 37.77734375 61.7734375 C39.10562162 64.19234608 40.56524801 65.73198872 42.5625 67.625 C45.90277778 70.80555556 45.90277778 70.80555556 47 73 C47.66 73 48.32 73 49 73 C49 73.66 49 74.32 49 75 C48.34 75 47.68 75 47 75 C45.61882261 76.36614554 45.61882261 76.36614554 44.15625 78.21875 C40.95838399 81.97938747 37.59452366 85.49446459 34.09375 88.96875 C33.56168945 89.49750732 33.02962891 90.02626465 32.48144531 90.57104492 C30.26561564 92.76874987 28.04504023 94.96163179 25.82470703 97.15478516 C20.22284077 102.69420761 14.67039136 108.21550569 9.55615234 114.21679688 C6.87340737 117.2909684 3.96785721 120.13800633 1.0625 123 C0.47404297 123.58394531 -0.11441406 124.16789062 -0.72070312 124.76953125 C-2.14479793 126.18204805 -3.5720525 127.5913781 -5 129 C-3.68 130.65 -2.36 132.3 -1 134 C2.83605489 132.41636918 5.28445649 129.97385878 8.203125 127.0625 C8.6857782 126.58176025 9.1684314 126.10102051 9.66571045 125.60571289 C10.67999064 124.59278907 11.69176804 123.57735362 12.70117188 122.55957031 C14.25171972 120.99826835 15.81270503 119.44797503 17.375 117.8984375 C18.36001734 116.91209939 19.34441453 115.9251415 20.328125 114.9375 C21.2243457 114.03902344 22.12056641 113.14054687 23.04394531 112.21484375 C25.22065347 110.24264408 25.22065347 110.24264408 25 108 C25.66 108 26.32 108 27 108 C27 107.34 27 106.68 27 106 C27.66 106 28.32 106 29 106 C29 105.34 29 104.68 29 104 C29.66 104 30.32 104 31 104 C32.43416575 102.57682142 32.43416575 102.57682142 33.94140625 100.67578125 C36.9052003 97.18792509 40.01110471 93.93731104 43.27734375 90.73046875 C44.20224609 89.82232422 45.12714844 88.91417969 46.08007812 87.97851562 C47.52215342 86.56995404 48.96434731 85.16149708 50.41235352 83.7590332 C51.83226031 82.38125733 53.24247253 80.99351226 54.65234375 79.60546875 C55.48757568 78.79231201 56.32280762 77.97915527 57.18334961 77.14135742 C59.32346192 75.08674543 59.32346192 75.08674543 59 72 C58.34 72 57.68 72 57 72 C56.79511963 71.46842285 56.59023926 70.9368457 56.37915039 70.38916016 C54.42547475 67.00472578 51.7070649 64.482227 48.93359375 61.7734375 C48.33950211 61.18454742 47.74541046 60.59565735 47.13331604 59.98892212 C45.23940726 58.11279192 43.33893569 56.24349895 41.4375 54.375 C39.53338558 52.49849536 37.63074561 50.62055424 35.73097229 48.73965454 C34.54957451 47.57052276 33.36551399 46.40407442 32.17857361 45.24057007 C28.11173191 41.22346383 28.11173191 41.22346383 27 39 C26.34 39 25.68 39 25 39 C24.67 38.01 24.34 37.02 24 36 C23.34 36 22.68 36 22 36 C21.75378906 35.42781738 21.50757812 34.85563477 21.25390625 34.26611328 C19.79296702 31.6258411 18.08597623 29.85987649 15.9375 27.7421875 C15.14085938 26.95199219 14.34421875 26.16179687 13.5234375 25.34765625 C12.69070312 24.53167969 11.85796875 23.71570313 11 22.875 C10.16726562 22.05128906 9.33453125 21.22757813 8.4765625 20.37890625 C6.93583976 18.85563506 5.39307665 17.33442298 3.84765625 15.81591797 C2.55936599 14.54975743 1.27727332 13.27727332 0 12 Z " fill="#D48D09" transform="translate(78,75)"/>
<path d="M0 0 C5.28 0 10.56 0 16 0 C16 12.54 16 25.08 16 38 C21.88079537 36.03973488 23.12833388 35.32699289 26.9375 30.9375 C27.79214844 29.96039063 28.64679688 28.98328125 29.52734375 27.9765625 C32.33976863 24.59098942 35.03342184 21.13922146 37.625 17.58203125 C38.07875 17.05996094 38.5325 16.53789063 39 16 C39.66 16 40.32 16 41 16 C41.23976563 15.46890625 41.47953125 14.9378125 41.7265625 14.390625 C44.6960454 8.81601294 48.36649157 3.14428377 54 0 C60.54799938 -1.4571204 67.38867741 -0.75780039 74 0 C74 0.66 74 1.32 74 2 C73.34 2 72.68 2 72 2 C71.75636719 2.56332031 71.51273437 3.12664062 71.26171875 3.70703125 C69.76152321 6.43339281 67.93821738 8.41543375 65.8125 10.6875 C62.07163347 14.74815028 58.66964522 18.92894814 55.41015625 23.3828125 C54.94480469 23.91648438 54.47945313 24.45015625 54 25 C53.34 25 52.68 25 52 25 C51.7525 25.55171875 51.505 26.1034375 51.25 26.671875 C49.75765526 29.45136707 47.96327477 31.7814707 46 34.25 C45.29875 35.14203125 44.5975 36.0340625 43.875 36.953125 C43.25625 37.62859375 42.6375 38.3040625 42 39 C41.34 39 40.68 39 40 39 C39.29605388 40.31403276 38.63654342 41.6520257 38 43 C37.690625 43.639375 37.38125 44.27875 37.0625 44.9375 C37.041875 45.618125 37.02125 46.29875 37 47 C38.63893107 48.6939482 40.31101232 50.35595737 42 52 C43.54483132 53.81315784 45.0659062 55.64682647 46.5625 57.5 C47.30628906 58.4178125 48.05007813 59.335625 48.81640625 60.28125 C50.21307324 62.02021283 51.59720725 63.76936441 52.96484375 65.53125 C54.97784786 68.05346179 54.97784786 68.05346179 57.3671875 70.3671875 C60.47495115 73.47495115 63.29161922 76.76875094 66.125 80.125 C67.16810392 81.35775917 68.21233755 82.58956351 69.2578125 83.8203125 C69.94061279 84.62879639 69.94061279 84.62879639 70.63720703 85.45361328 C72.00286091 87.05155448 72.00286091 87.05155448 73.67138672 88.57373047 C75 90 75 90 75 92 C55.70975991 93.90346697 55.70975991 93.90346697 50.58984375 89.83203125 C48.07644221 87.01562304 46.01201656 84.19060367 44 81 C42.90641573 79.53371436 41.80357903 78.07423695 40.6875 76.625 C40.27886719 76.03976563 39.87023437 75.45453125 39.44921875 74.8515625 C37.93201473 72.83569052 37.93201473 72.83569052 35.62109375 70.625 C33.00011034 68.0001105 30.69407369 65.26786512 28.375 62.375 C25.44908311 58.69701811 25.44908311 58.69701811 22.2265625 55.2890625 C21 54 21 54 21 52 C19.35 52 17.7 52 16 52 C16 65.2 16 78.4 16 92 C10.72 92 5.44 92 0 92 C0 61.64 0 31.28 0 0 Z " fill="#FDFDFD" transform="translate(270,107)"/>
<path d="M0 0 C17.03884573 -1.51831299 17.03884573 -1.51831299 21.421875 1.875 C22.97295592 4.54352631 23.95867673 7.09147637 25 10 C28.4492239 17.37191939 32.39524968 24.49493806 36.3125 31.625 C36.86228516 32.62917969 37.41207031 33.63335937 37.97851562 34.66796875 C39.31739154 37.11287259 40.65790805 39.55686055 42 42 C44.65874516 40.67062742 44.95689884 39.3392867 46.21484375 36.6640625 C49.08252403 30.75203517 52.29581334 25.07384578 55.5625 19.375 C56.69074703 17.40475832 57.81708881 15.43342424 58.94140625 13.4609375 C59.43326416 12.60290527 59.92512207 11.74487305 60.43188477 10.86083984 C62.38736807 7.293293 64.18058771 3.63882459 66 0 C72.27 0 78.54 0 85 0 C83.599184 3.50204001 82.35063237 6.29028243 80.453125 9.45703125 C79.94450928 10.31095459 79.43589355 11.16487793 78.91186523 12.04467773 C78.36344971 12.95805908 77.81503418 13.87144043 77.25 14.8125 C76.07877851 16.77825955 74.9082304 18.74442043 73.73828125 20.7109375 C73.12807129 21.73541992 72.51786133 22.75990234 71.88916016 23.81542969 C68.71079686 29.17321863 65.5736318 34.55491623 62.4375 39.9375 C61.56303223 41.4366394 61.56303223 41.4366394 60.67089844 42.96606445 C59.11112985 45.64245454 57.55170604 48.31892677 56 51 C55.29077393 52.09393066 54.58154785 53.18786133 53.85083008 54.31494141 C51.67943967 58.13634947 51.39814692 61.78917587 51.390625 66.12109375 C51.37408875 66.86585464 51.35755249 67.61061554 51.34051514 68.37794495 C51.29235387 70.73121647 51.27073706 73.08384349 51.25 75.4375 C51.22181337 77.04365167 51.19188221 78.64977372 51.16015625 80.25585938 C51.0833519 84.17086018 51.04254338 88.08388146 51 92 C45.39 92 39.78 92 34 92 C34.04382813 89.75445312 34.08765625 87.50890625 34.1328125 85.1953125 C34.37026738 62.06555502 34.37026738 62.06555502 24.27050781 41.69140625 C22.43553151 39.24853233 20.8580358 36.65843224 19.25 34.0625 C18.69441406 33.21042969 18.13882813 32.35835937 17.56640625 31.48046875 C15.45542482 28.1376428 13.61394167 24.67443288 11.75390625 21.1875 C9.03601741 16.2480851 6.14110351 11.41377983 3.25073242 6.57373047 C0 1.10373006 0 1.10373006 0 0 Z " fill="#FEFEFE" transform="translate(525,107)"/>
<path d="M0 0 C24.09 0 48.18 0 73 0 C73 4.29 73 8.58 73 13 C63.76 13 54.52 13 45 13 C45 39.07 45 65.14 45 92 C39.39 92 33.78 92 28 92 C28 65.93 28 39.86 28 13 C18.76 13 9.52 13 0 13 C0 8.71 0 4.42 0 0 Z " fill="#FEFEFE" transform="translate(445,107)"/>
<path d="M0 0 C4.26705487 1.65494286 7.1371993 4.84913041 10.296875 8.03125 C10.89050842 8.62296997 11.48414185 9.21468994 12.09576416 9.82434082 C13.34543718 11.07265581 14.59259992 12.32348823 15.83740234 13.57666016 C17.75007952 15.50007997 19.67323119 17.41256099 21.59765625 19.32421875 C22.81053798 20.53842139 24.02279952 21.75324393 25.234375 22.96875 C25.81241882 23.54274536 26.39046265 24.11674072 26.98602295 24.70812988 C31 28.77006566 31 28.77006566 31 31 C31.66 31 32.32 31 33 31 C33 31.66 33 32.32 33 33 C33.66 33 34.32 33 35 33 C36.26953125 34.29296875 36.26953125 34.29296875 37.8125 36.1875 C41.83610721 40.95590259 46.24599605 45.27798618 50.73168945 49.60620117 C52.19058334 51.03482136 53.5999677 52.51364992 55 54 C55 54.66 55 55.32 55 56 C55.99 56.33 56.98 56.66 58 57 C58 57.66 58 58.32 58 59 C58.99 59.33 59.98 59.66 61 60 C61 60.66 61 61.32 61 62 C62.485 62.495 62.485 62.495 64 63 C64 63.66 64 64.32 64 65 C65.485 65.495 65.485 65.495 67 66 C68.60546875 67.62890625 68.60546875 67.62890625 70.1875 69.5625 C70.71730469 70.20316406 71.24710937 70.84382813 71.79296875 71.50390625 C72.19128906 71.99761719 72.58960938 72.49132812 73 73 C71.39288983 77.03695049 68.52885857 79.70970384 65.4765625 82.68359375 C64.93397797 83.22097672 64.39139343 83.75835968 63.83236694 84.31202698 C62.10127535 86.02535414 60.36364744 87.73184352 58.625 89.4375 C56.89435095 91.14041429 55.16522604 92.8448063 53.4390564 94.55226135 C52.36668306 95.6125061 51.29164808 96.67006788 50.21353149 97.72447205 C47.23642134 100.66220436 44.59492077 103.72525405 42 107 C41.236875 107.598125 40.47375 108.19625 39.6875 108.8125 C37.50428479 110.58953564 36.00672051 112.10219181 34.234375 114.23046875 C28.37821183 120.9991413 21.90845466 127.19622966 15.5625 133.5 C14.24520941 134.81226585 12.92815014 136.12476395 11.61132812 137.4375 C8.4102139 140.62768506 5.20598135 143.81470651 2 147 C-0.8605891 145.64062915 -2.85927699 144.35479531 -5 142 C-3.56438314 138.81293058 -1.79733671 136.37830895 0.5 133.75 C1.1084375 133.04359375 1.716875 132.3371875 2.34375 131.609375 C4 130 4 130 6 130 C6.37125 129.071875 6.37125 129.071875 6.75 128.125 C8.22770762 125.61289704 9.43955177 125.23892656 12 124 C12.495 122.515 12.495 122.515 13 121 C13.66 121 14.32 121 15 121 C15.495 119.515 15.495 119.515 16 118 C16.66 118 17.32 118 18 118 C18 117.34 18 116.68 18 116 C18.66 116 19.32 116 20 116 C20.3084082 115.20154663 20.3084082 115.20154663 20.62304688 114.38696289 C22.5673759 111.01644784 25.26957762 108.50550763 28.03125 105.80859375 C28.62296997 105.22207535 29.21468994 104.63555695 29.82434082 104.03126526 C31.71153039 102.16185325 33.60527682 100.29927356 35.5 98.4375 C37.39384292 96.57130267 39.28619832 94.70365722 41.17565918 92.83302307 C42.3503945 91.67051374 43.52779312 90.51068814 44.70812988 89.35386658 C47.09426677 86.99691508 49.13260319 84.80109521 51 82 C51.66 82 52.32 82 53 82 C53.495 80.515 53.495 80.515 54 79 C54.66 79 55.32 79 56 79 C56.495 77.515 56.495 77.515 57 76 C57.66 76 58.32 76 59 76 C58.41956979 72.58822563 57.34474086 70.99240739 54.8671875 68.609375 C54.22523438 67.98160156 53.58328125 67.35382813 52.921875 66.70703125 C52.24640625 66.06121094 51.5709375 65.41539062 50.875 64.75 C47.08059808 61.08307798 43.32708569 57.45092834 39.9140625 53.421875 C34.17398792 46.74812492 27.75255165 40.68734004 21.5 34.5 C6.21507658 19.37449222 6.21507658 19.37449222 1.30834961 13.52099609 C-0.03242988 11.96229928 -1.45417949 10.54754328 -2.9375 9.125 C-5 7 -5 7 -5 5 C-4.34 5 -3.68 5 -3 5 C-2.67 4.01 -2.34 3.02 -2 2 C-1.34 2 -0.68 2 0 2 C0 1.34 0 0.68 0 0 Z " fill="#D18C0D" transform="translate(161,75)"/>
<path d="M0 0 C3.00696334 1.34591154 5.07932299 2.83254494 7.375 5.1875 C7.97828125 5.80625 8.5815625 6.425 9.203125 7.0625 C10.90271315 8.8950994 12.52192045 10.77041518 14.125 12.6875 C15.83723456 14.72953172 17.3319929 16.26389179 19.4375 17.9375 C21.66314628 19.72887384 23.25723401 21.39020047 25.0859375 23.5546875 C29.22411323 28.33690364 33.68083003 32.75513621 38.1875 37.1875 C47.65569769 46.50186832 47.65569769 46.50186832 51 51 C49.36809981 55.17801612 46.29694558 57.9394367 43.15234375 61.0078125 C42.58044815 61.57450653 42.00855255 62.14120056 41.41932678 62.72506714 C39.59674775 64.52987272 37.76760926 66.32783318 35.9375 68.125 C34.10471379 69.93017315 32.27340471 71.73678389 30.44496155 73.5463562 C29.30807969 74.67097536 28.16853542 75.79291063 27.02610779 76.91189575 C24.15256386 79.68030188 24.15256386 79.68030188 22 83 C21.34 83 20.68 83 20 83 C19.67 83.99 19.34 84.98 19 86 C18.34 86 17.68 86 17 86 C17 86.66 17 87.32 17 88 C16.29875 88.556875 15.5975 89.11375 14.875 89.6875 C11.43672242 92.45307109 8.78272367 95.59570576 6 99 C2.21369298 98.24432948 0.5958956 96.87402727 -2 94 C-0.41163081 90.05924327 2.31569252 87.44402624 5.3046875 84.53515625 C5.82507599 84.01996933 6.34546448 83.50478241 6.88162231 82.97398376 C8.54138415 81.33198012 10.20767743 79.69682298 11.875 78.0625 C13.53432376 76.4309201 15.19211806 74.79785945 16.84695435 73.16172791 C17.87480886 72.1459925 18.90532432 71.13294018 19.93893433 70.12306213 C22.8646039 67.23772539 25.47443332 64.23794971 28 61 C30.80436007 57.98531292 33.15757655 55.56543178 37 54 C36.42618522 50.67187429 35.40619252 49.30157545 33 47 C33 46.34 33 45.68 33 45 C32.01 44.67 31.02 44.34 30 44 C30 43.34 30 42.68 30 42 C29.01 41.67 28.02 41.34 27 41 C27 40.34 27 39.68 27 39 C25.515 38.505 25.515 38.505 24 38 C22.52514648 36.49951172 22.52514648 36.49951172 20.93359375 34.5546875 C15.8056802 28.50803963 10.08234552 23.07140786 4.41210938 17.5390625 C3.58646484 16.724375 2.76082031 15.9096875 1.91015625 15.0703125 C0.78299194 13.96840576 0.78299194 13.96840576 -0.36694336 12.84423828 C-2 11 -2 11 -2 9 C-2.99 8.67 -3.98 8.34 -5 8 C-4.45773019 4.20411134 -2.79872437 2.52788007 0 0 Z " fill="#D38D08" transform="translate(163,97)"/>
<path d="M0 0 C0.33 0.66 0.66 1.32 1 2 C1.66 2 2.32 2 3 2 C2.8125 3.8125 2.8125 3.8125 2 6 C0.34151823 7.01351664 -1.32665961 8.01120795 -3 9 C-3.90882193 10.03371851 -4.78331901 11.09841581 -5.625 12.1875 C-6.40875 13.115625 -7.1925 14.04375 -8 15 C-8.99 15 -9.98 15 -11 15 C-11 15.99 -11 16.98 -11 18 C-11.99 18 -12.98 18 -14 18 C-14 19.32 -14 20.64 -14 22 C-15.98 22 -17.96 22 -20 22 C-21 20 -21 20 -20.375 17.75 C-18.63883128 14.27766256 -16.64762826 11.84620038 -14 9 C-13.34 9 -12.68 9 -12 9 C-11.34 7.68 -10.68 6.36 -10 5 C-8.35 5 -6.7 5 -5 5 C-4.67 3.68 -4.34 2.36 -4 1 C-2.68 0.67 -1.36 0.34 0 0 Z " fill="#D88D03" transform="translate(179,196)"/>
<path d="M0 0 C2 0 2 0 3.625 1.375 C5 3 5 3 5 5 C5.99 5.33 6.98 5.66 8 6 C8 6.66 8 7.32 8 8 C8.66 8 9.32 8 10 8 C11.4453125 9.46875 11.4453125 9.46875 13.125 11.5 C16.8615876 15.90524012 20.86943366 19.96599235 25 24 C24.505 25.485 24.505 25.485 24 27 C23.62488281 26.55269531 23.24976563 26.10539062 22.86328125 25.64453125 C21.25836497 23.74854703 19.63054278 21.87396504 18 20 C17.154375 19.01 16.30875 18.02 15.4375 17 C13.16115349 14.66704834 13.16115349 14.66704834 10.1875 15.1875 C9.465625 15.455625 8.74375 15.72375 8 16 C7.67 17.32 7.34 18.64 7 20 C2.05 15.05 -2.9 10.1 -8 5 C-5 5 -5 5 -2.4375 5.625 C-1.2309375 5.810625 -1.2309375 5.810625 0 6 C0.66 5.34 1.32 4.68 2 4 C1.01 3.34 0.02 2.68 -1 2 C-0.67 1.34 -0.34 0.68 0 0 Z " fill="#D18B0B" transform="translate(125,123)"/>
<path d="M0 0 C5.60940339 1.27486441 6.92214301 3.33357166 10 8 C12.62766389 8.96219702 12.62766389 8.96219702 15 9 C15.33 10.32 15.66 11.64 16 13 C16.66 13 17.32 13 18 13 C17.649375 12.2575 17.29875 11.515 16.9375 10.75 C16 8 16 8 17 4 C23.27 10.27 29.54 16.54 36 23 C33 23 33 23 31.39453125 21.6875 C30.87246094 21.130625 30.35039062 20.57375 29.8125 20 C29.28269531 19.443125 28.75289062 18.88625 28.20703125 18.3125 C27.80871094 17.879375 27.41039062 17.44625 27 17 C24.28368454 17.90543849 21.65228812 18.92474806 19 20 C15.8293305 16.85817898 12.66414446 13.71089125 9.5 10.5625 C8.59378906 9.66466797 7.68757812 8.76683594 6.75390625 7.84179688 C5.89667969 6.98779297 5.03945312 6.13378906 4.15625 5.25390625 C3.36025391 4.46314697 2.56425781 3.6723877 1.74414062 2.85766602 C0 1 0 1 0 0 Z " fill="#CE8C10" transform="translate(140,107)"/>
<path d="M0 0 C0 3 0 3 -2.40625 5.59375 C-3.95362402 7.06877926 -5.52153114 8.51994408 -7.08984375 9.97265625 C-8.44418567 11.26367829 -9.72744839 12.62828853 -11 14 C-11 14.99 -11 15.98 -11 17 C-10.34 16.34 -9.68 15.68 -9 15 C-6.525 15.99 -6.525 15.99 -4 17 C-5.24508247 20.7352474 -6.94619949 21.60058531 -10 24 C-11.76323505 26.12603185 -11.76323505 26.12603185 -13 28 C-16.79588866 27.45773019 -18.47211993 25.79872437 -21 23 C-19.48623919 19.43235715 -17.39486871 17.16293713 -14.6484375 14.453125 C-13.79765625 13.60878906 -12.946875 12.76445312 -12.0703125 11.89453125 C-11.18085938 11.02183594 -10.29140625 10.14914063 -9.375 9.25 C-8.4778125 8.36183594 -7.580625 7.47367188 -6.65625 6.55859375 C-4.44192996 4.36783031 -2.22307565 2.18187237 0 0 Z " fill="#CB8B14" transform="translate(182,168)"/>
<path d="M0 0 C0.33 0.66 0.66 1.32 1 2 C1.99 1.67 2.98 1.34 4 1 C6.1875 1.9375 6.1875 1.9375 8 3 C8 3.66 8 4.32 8 5 C8.66 5 9.32 5 10 5 C15.53104925 10.93576017 15.53104925 10.93576017 16 15 C13 17 13 17 9 17 C8.67 15.68 8.34 14.36 8 13 C7.1028125 12.8453125 7.1028125 12.8453125 6.1875 12.6875 C3.60796663 11.87678951 2.61808625 11.15744833 1 9 C0.64386903 7.33805547 0.30791692 5.671549 0 4 C-0.66 3.67 -1.32 3.34 -2 3 C-2 2.34 -2 1.68 -2 1 C-1.34 0.67 -0.68 0.34 0 0 Z " fill="#D68D04" transform="translate(186,103)"/>
<path d="M0 0 C0.66 0.33 1.32 0.66 2 1 C1.34 1.66 0.68 2.32 0 3 C0 3.99 0 4.98 0 6 C2.31 6 4.62 6 7 6 C3.32167983 10.52615993 -0.41086363 14.39424999 -5 18 C-5.66 16.02 -6.32 14.04 -7 12 C-11.43379675 14.21689838 -13.46636932 16.77728219 -16 21 C-17.32 20.67 -18.64 20.34 -20 20 C-13.4 13.4 -6.8 6.8 0 0 Z " fill="#D48C09" transform="translate(105,158)"/>
<path d="M0 0 C1.1725131 0.95117134 2.33787015 1.91117009 3.5 2.875 C4.1496875 3.40867188 4.799375 3.94234375 5.46875 4.4921875 C6.22671875 5.23855469 6.22671875 5.23855469 7 6 C7 6.66 7 7.32 7 8 C7.99 8.33 8.98 8.66 10 9 C10.93359375 10.796875 10.93359375 10.796875 11 13 C9.34765625 15.140625 9.34765625 15.140625 7.0625 17.25 C6.31097656 17.95640625 5.55945313 18.6628125 4.78515625 19.390625 C4.19605469 19.92171875 3.60695312 20.4528125 3 21 C2.67 19.68 2.34 18.36 2 17 C2.66 17 3.32 17 4 17 C4 16.34 4 15.68 4 15 C4.66 15 5.32 15 6 15 C6.33 14.01 6.66 13.02 7 12 C7.66 12 8.32 12 9 12 C9 11.34 9 10.68 9 10 C5.1209822 9.53893897 5.1209822 9.53893897 3.4375 11.49609375 C2.963125 12.13675781 2.48875 12.77742187 2 13.4375 C-0.19395726 16.38861099 -1.4009431 17.297745 -5 18 C-6.73026102 19.47890069 -6.73026102 19.47890069 -8 21 C-8.66 20.67 -9.32 20.34 -10 20 C-6.535 16.535 -6.535 16.535 -3 13 C-4.55544811 9.88910379 -6.19020355 6.96148509 -8 4 C-7.34 4 -6.68 4 -6 4 C-5.54625 4.515625 -5.0925 5.03125 -4.625 5.5625 C-3.820625 6.2740625 -3.820625 6.2740625 -3 7 C-0.98045559 6.66179847 -0.98045559 6.66179847 1 6 C1.99 6.33 2.98 6.66 4 7 C3.01 5.824375 3.01 5.824375 2 4.625 C0 2 0 2 0 0 Z " fill="#C88A12" transform="translate(159,137)"/>
<path d="M0 0 C2.1875 0.3125 2.1875 0.3125 4 1 C4 3 4 3 2.625 4.625 C1 6 1 6 -1 6 C-1 6.66 -1 7.32 -1 8 C-1.66 8 -2.32 8 -3 8 C-3.33 10.31 -3.66 12.62 -4 15 C-5.65 15 -7.3 15 -9 15 C-9 15.99 -9 16.98 -9 18 C-9.66 18 -10.32 18 -11 18 C-11 17.34 -11 16.68 -11 16 C-11.99 16 -12.98 16 -14 16 C-14 16.66 -14 17.32 -14 18 C-14.66 18 -15.32 18 -16 18 C-16.33 17.01 -16.66 16.02 -17 15 C-15.33333333 13.33333333 -13.66666667 11.66666667 -12 10 C-11.484375 9.443125 -10.96875 8.88625 -10.4375 8.3125 C-8.76431059 6.78480532 -7.03154267 5.98300452 -5 5 C-3.04123994 3.10891573 -3.04123994 3.10891573 -1.625 1.3125 C-0.820625 0.6628125 -0.820625 0.6628125 0 0 Z " fill="#D78D04" transform="translate(164,146)"/>
<path d="M0 0 C3.21043882 1.38188453 5.04936365 2.92421903 7.25 5.625 C7.77078125 6.25664063 8.2915625 6.88828125 8.828125 7.5390625 C9.40820312 8.26222656 9.40820312 8.26222656 10 9 C7.69 9.66 5.38 10.32 3 11 C4.40844718 14.21524305 6.10344786 16.32183868 8.625 18.75 C9.57246094 19.67039062 9.57246094 19.67039062 10.5390625 20.609375 C11.02117187 21.06828125 11.50328125 21.5271875 12 22 C11.67 22.66 11.34 23.32 11 24 C8.82722286 21.88094537 6.66173092 19.75527122 4.5 17.625 C3.87996094 17.02171875 3.25992188 16.4184375 2.62109375 15.796875 C2.03457031 15.21679688 1.44804687 14.63671875 0.84375 14.0390625 C0.02680664 13.23782959 0.02680664 13.23782959 -0.80664062 12.42041016 C-2 11 -2 11 -2 9 C-2.99 8.67 -3.98 8.34 -5 8 C-4.45773019 4.20411134 -2.79872437 2.52788007 0 0 Z " fill="#C68815" transform="translate(163,97)"/>
<path d="M0 0 C0 3 0 3 -0.625 4.75 C-1.18678517 8.12071104 -0.04541335 10.80226504 1 14 C-0.65 15.65 -2.3 17.3 -4 19 C-4.66 18.67 -5.32 18.34 -6 18 C-4.35 16.02 -2.7 14.04 -1 12 C-2.175625 12.5259375 -2.175625 12.5259375 -3.375 13.0625 C-4.24125 13.371875 -5.1075 13.68125 -6 14 C-6.66 13.67 -7.32 13.34 -8 13 C-8.33 13.66 -8.66 14.32 -9 15 C-9.78375 15.268125 -10.5675 15.53625 -11.375 15.8125 C-14.68267182 17.30882773 -15.1709314 18.92716475 -17 22 C-20.1875 24.3125 -20.1875 24.3125 -23 26 C-23.66 25.67 -24.32 25.34 -25 25 C-16.75 16.75 -8.5 8.5 0 0 Z " fill="#CB890F" transform="translate(134,152)"/>
<path d="M0 0 C1.485 0.495 1.485 0.495 3 1 C-5.91 9.91 -14.82 18.82 -24 28 C-27.23475448 26.38262276 -28.70572021 25.52370777 -31 23 C-30.34 21.68 -29.68 20.36 -29 19 C-28.67 20.32 -28.34 21.64 -28 23 C-26.02 23.33 -24.04 23.66 -22 24 C-22 22.68 -22 21.36 -22 20 C-21.01 20 -20.02 20 -19 20 C-19 19.01 -19 18.02 -19 17 C-18.01 16.67 -17.02 16.34 -16 16 C-15.34 15.01 -14.68 14.02 -14 13 C-13.34 13 -12.68 13 -12 13 C-11.7525 12.38125 -11.505 11.7625 -11.25 11.125 C-9.77229238 8.61289704 -8.56044823 8.23892656 -6 7 C-5.67 6.01 -5.34 5.02 -5 4 C-3.68352881 3.30062468 -2.34977849 2.63270867 -1 2 C-0.67 1.34 -0.34 0.68 0 0 Z " fill="#C58815" transform="translate(187,194)"/>
<path d="M0 0 C2.3125 -0.3125 2.3125 -0.3125 5 0 C6.75 2.375 6.75 2.375 8 5 C8.33 5.66 8.66 6.32 9 7 C9.99 7.33 10.98 7.66 12 8 C12.33 7.34 12.66 6.68 13 6 C14.32 6.33 15.64 6.66 17 7 C16.67 6.67 16.34 6.34 16 6 C16.33 5.34 16.66 4.68 17 4 C18.14192783 5.14192783 19.28322385 6.28449238 20.421875 7.4296875 C21.56801177 8.57015032 22.72586815 9.69887306 23.890625 10.8203125 C24.84195313 11.74457031 24.84195313 11.74457031 25.8125 12.6875 C26.41707031 13.26886719 27.02164063 13.85023438 27.64453125 14.44921875 C29 16 29 16 29 18 C29.66 18 30.32 18 31 18 C31 18.66 31 19.32 31 20 C30.34 20 29.68 20 29 20 C28.67 20.99 28.34 21.98 28 23 C27.34 22.67 26.68 22.34 26 22 C26.33 21.01 26.66 20.02 27 19 C25.54686539 15.69008228 24.59192118 14.28907779 21.3125 12.6875 C20.1678125 12.3471875 20.1678125 12.3471875 19 12 C19 11.34 19 10.68 19 10 C17.68 10 16.36 10 15 10 C15 11.65 15 13.3 15 15 C9.72997792 10.60831493 4.64697949 6.0573621 0 1 C0 0.67 0 0.34 0 0 Z " fill="#C88A15" transform="translate(96,130)"/>
<path d="M0 0 C0.99 0.66 1.98 1.32 3 2 C-0.39649088 5.42113336 -3.79619518 8.83902762 -7.19897461 12.25390625 C-8.35710059 13.41707392 -9.51432923 14.58113574 -10.6706543 15.74609375 C-12.32888785 17.4164001 -13.99027812 19.0835079 -15.65234375 20.75 C-16.17215317 21.2749707 -16.69196259 21.79994141 -17.2275238 22.34082031 C-18.46617967 23.57967092 -19.73053278 24.79274189 -21 26 C-21.33 26 -21.66 26 -22 26 C-21.67 23.69 -21.34 21.38 -21 19 C-20.67 19.66 -20.34 20.32 -20 21 C-19.34 21 -18.68 21 -18 21 C-17.896875 20.21625 -17.79375 19.4325 -17.6875 18.625 C-17 16 -17 16 -14 14 C-13.01 14 -12.02 14 -11 14 C-11.33 12.68 -11.66 11.36 -12 10 C-10.35 9.67 -8.7 9.34 -7 9 C-6.9175 8.05125 -6.835 7.1025 -6.75 6.125 C-6 3 -6 3 -4.0625 1.5625 C-2 1 -2 1 0 2 C0 1.34 0 0.68 0 0 Z " fill="#CB8C15" transform="translate(117,179)"/>
<path d="M0 0 C5.06357773 1.49605706 8.28961152 3.28961152 12 7 C11.67 7.66 11.34 8.32 11 9 C12.32 9.99 13.64 10.98 15 12 C14.01 12 13.02 12 12 12 C11.67 12.66 11.34 13.32 11 14 C5.25 12.125 5.25 12.125 3 11 C2.690625 10.175 2.38125 9.35 2.0625 8.5 C1.711875 7.675 1.36125 6.85 1 6 C0.01 5.67 -0.98 5.34 -2 5 C-1.34 3.35 -0.68 1.7 0 0 Z " fill="#D88E03" transform="translate(114,116)"/>
<path d="M0 0 C7.15801225 5.82628904 13.52591766 12.4382985 20 19 C17 19 17 19 14.37109375 16.59375 C13.38565023 15.56973986 12.40804643 14.53814033 11.4375 13.5 C9.66113119 11.61477939 7.86681475 9.7996211 6 8 C5.34 8 4.68 8 4 8 C4 8.66 4 9.32 4 10 C3.34 10 2.68 10 2 10 C2.33 11.98 2.66 13.96 3 16 C2.34 15.67 1.68 15.34 1 15 C1 14.34 1 13.68 1 13 C0.01 12.67 -0.98 12.34 -2 12 C-2 11.34 -2 10.68 -2 10 C-2.66 10 -3.32 10 -4 10 C-4.66 8.68 -5.32 7.36 -6 6 C-4 5 -2 4 0 3 C0 2.01 0 1.02 0 0 Z " fill="#CB8B17" transform="translate(133,87)"/>
<path d="M0 0 C3.33727786 1.17255709 5.77437487 2.18868404 8 5 C8 5.66 8 6.32 8 7 C8.66 7 9.32 7 10 7 C10 7.99 10 8.98 10 10 C10.66 10 11.32 10 12 10 C12 11.32 12 12.64 12 14 C11.34 14 10.68 14 10 14 C10 14.66 10 15.32 10 16 C9.34 16 8.68 16 8 16 C7.67 15.01 7.34 14.02 7 13 C6.13375 12.8453125 6.13375 12.8453125 5.25 12.6875 C1.66774262 11.59292136 0.24560948 8.93176794 -2 6 C-1.67 5.34 -1.34 4.68 -1 4 C-0.34 4.33 0.32 4.66 1 5 C0.67 3.35 0.34 1.7 0 0 Z " fill="#D78C03" transform="translate(219,137)"/>
<path d="M0 0 C2.31 0 4.62 0 7 0 C7.33 0.99 7.66 1.98 8 3 C10.00016466 4.20882096 10.00016466 4.20882096 12 5 C12 5.66 12 6.32 12 7 C12.99 7.66 13.98 8.32 15 9 C15 9.99 15 10.98 15 12 C14.34 12 13.68 12 13 12 C13 12.66 13 13.32 13 14 C13.66 14 14.32 14 15 14 C15 14.66 15 15.32 15 16 C13.35 16 11.7 16 10 16 C10 14.68 10 13.36 10 12 C9.01 11.67 8.02 11.34 7 11 C7.33 9.35 7.66 7.7 8 6 C6.35 6.33 4.7 6.66 3 7 C1.68 5.35 0.36 3.7 -1 2 C-0.67 1.34 -0.34 0.68 0 0 Z " fill="#D78D03" transform="translate(171,134)"/>
<path d="M0 0 C6.37866955 2.83962701 10.85414584 8.5274725 15 14 C13.52278578 17.45201639 11.56205999 19.64961936 8.875 22.25 C8.15054688 22.95640625 7.42609375 23.6628125 6.6796875 24.390625 C6.12539062 24.92171875 5.57109375 25.4528125 5 26 C4.67 24.68 4.34 23.36 4 22 C4.804375 21.5875 5.60875 21.175 6.4375 20.75 C9.14109718 19.26547669 9.14109718 19.26547669 9.8125 16.8125 C9.874375 16.214375 9.93625 15.61625 10 15 C8.68 14.67 7.36 14.34 6 14 C6 13.34 6 12.68 6 12 C6.66 12 7.32 12 8 12 C6.86695008 8.60085025 5.87481525 7.94745549 3 6 C3.33 5.67 3.66 5.34 4 5 C2.68 4.34 1.36 3.68 0 3 C0 2.01 0 1.02 0 0 Z " fill="#CB8A10" transform="translate(178,134)"/>
<path d="M0 0 C3.68069887 1.53643852 5.98775204 3.78150945 8.75 6.625 C9.54921875 7.44226563 10.3484375 8.25953125 11.171875 9.1015625 C11.77515625 9.72804688 12.3784375 10.35453125 13 11 C10 11 10 11 7.4375 9.4375 C6.633125 8.963125 5.82875 8.48875 5 8 C2.86906094 9.06546953 1.63412443 10.29159719 0 12 C-1.70884005 10.37660195 -3.37446717 8.70680947 -5 7 C-5 6.34 -5 5.68 -5 5 C-4.34 5 -3.68 5 -3 5 C-2.67 4.01 -2.34 3.02 -2 2 C-1.34 2 -0.68 2 0 2 C0 1.34 0 0.68 0 0 Z " fill="#D2910F" transform="translate(161,75)"/>
<path d="M0 0 C2.29240007 0.05985379 4.58406206 0.14859027 6.875 0.25 C8.78925781 0.31960937 8.78925781 0.31960937 10.7421875 0.390625 C14 1 14 1 15.4453125 2.859375 C16 5 16 5 16 8 C14.02 8.33 12.04 8.66 10 9 C10 8.34 10 7.68 10 7 C9.278125 7.12375 8.55625 7.2475 7.8125 7.375 C4.57365957 6.94315461 4.2003872 6.47221354 2.1875 4.0625 C0 1 0 1 0 0 Z " fill="#D78C03" transform="translate(69,209)"/>
<path d="M0 0 C1.9375 0.375 1.9375 0.375 4 1 C4.33 1.66 4.66 2.32 5 3 C7.90259811 4.3749149 9.76138705 5 13 5 C12.67 3.68 12.34 2.36 12 1 C15 1 15 1 17.1875 3 C18.0846875 3.99 18.0846875 3.99 19 5 C18.67 5.99 18.34 6.98 18 8 C16.35 8 14.7 8 13 8 C12.67 8.99 12.34 9.98 12 11 C13.65 11 15.3 11 17 11 C16.01 11.495 16.01 11.495 15 12 C14.34444881 14.52733235 14.34444881 14.52733235 14 17 C13.5978125 16.1028125 13.5978125 16.1028125 13.1875 15.1875 C12.1106021 12.95672092 12.1106021 12.95672092 10.375 11.375 C9.92125 10.92125 9.4675 10.4675 9 10 C9 9.34 9 8.68 9 8 C8.01 7.67 7.02 7.34 6 7 C6 6.34 6 5.68 6 5 C5.01 4.67 4.02 4.34 3 4 C3 3.34 3 2.68 3 2 C2.01 1.67 1.02 1.34 0 1 C0 0.67 0 0.34 0 0 Z " fill="#C78A16" transform="translate(187,134)"/>
<path d="M0 0 C0.66 0 1.32 0 2 0 C3.4453125 1.46875 3.4453125 1.46875 5.125 3.5 C8.8615876 7.90524012 12.86943366 11.96599235 17 16 C16.67 16.99 16.34 17.98 16 19 C15.62488281 18.55269531 15.24976563 18.10539062 14.86328125 17.64453125 C13.25836497 15.74854703 11.63054278 13.87396504 10 12 C9.154375 11.01 8.30875 10.02 7.4375 9 C5.16115349 6.66704834 5.16115349 6.66704834 2.1875 7.1875 C1.1046875 7.5896875 1.1046875 7.5896875 0 8 C-0.33 9.32 -0.66 10.64 -1 12 C-3.31 9.69 -5.62 7.38 -8 5 C-7.01 5 -6.02 5 -5 5 C-3.66018514 4.6937566 -2.32488113 4.36548445 -1 4 C-0.67 2.68 -0.34 1.36 0 0 Z " fill="#C58915" transform="translate(133,131)"/>
<path d="M0 0 C1.67542976 0.28604898 3.34385343 0.61781233 5 1 C5.33 1.99 5.66 2.98 6 4 C7.65 4.33 9.3 4.66 11 5 C10.67 5.66 10.34 6.32 10 7 C9.34 7 8.68 7 8 7 C8.66 8.65 9.32 10.3 10 12 C9.01 12.66 8.02 13.32 7 14 C6.67 12.68 6.34 11.36 6 10 C4.35 9.67 2.7 9.34 1 9 C0.63877119 7.68942607 0.28619689 6.37646376 -0.0625 5.0625 C-0.35833984 3.96615234 -0.35833984 3.96615234 -0.66015625 2.84765625 C-0.77230469 2.23792969 -0.88445312 1.62820312 -1 1 C-0.67 0.67 -0.34 0.34 0 0 Z " fill="#D78D03" transform="translate(132,114)"/>
<path d="M0 0 C1.32 0 2.64 0 4 0 C3.44828634 3.8447546 1.78537669 5.50873547 -1 8.125 C-3.89285588 10.77060724 -3.89285588 10.77060724 -6 14 C-6.66 14 -7.32 14 -8 14 C-8.33 14.99 -8.66 15.98 -9 17 C-9.33 17 -9.66 17 -10 17 C-10 15.35 -10 13.7 -10 12 C-8.68 11.67 -7.36 11.34 -6 11 C-6.33 9.68 -6.66 8.36 -7 7 C-4.32521756 5.3372974 -2.0004856 4.00016187 1 3 C0.67 2.01 0.34 1.02 0 0 Z M-2 1 C0 2 0 2 0 2 Z " fill="#CC8C16" transform="translate(121,193)"/>
<path d="M0 0 C1.65 1.32 3.3 2.64 5 4 C4.67 4.66 4.34 5.32 4 6 C1.525 5.01 1.525 5.01 -1 4 C-1 7.61029169 -0.03907418 10.55806676 1 14 C-3.52615993 10.32167983 -7.39424999 6.58913637 -11 2 C-10.01 2 -9.02 2 -8 2 C-7.67 2.66 -7.34 3.32 -7 4 C-6.01 4.33 -5.02 4.66 -4 5 C-3.67 4.01 -3.34 3.02 -3 2 C-2.01 1.34 -1.02 0.68 0 0 Z " fill="#C08615" transform="translate(187,100)"/>
<path d="M0 0 C0.33 1.32 0.66 2.64 1 4 C1.99 4 2.98 4 4 4 C4 4.66 4 5.32 4 6 C4.66 6 5.32 6 6 6 C4.25 9.875 4.25 9.875 2 11 C1.34 9.02 0.68 7.04 0 5 C-4.43379675 7.21689838 -6.46636932 9.77728219 -9 14 C-10.32 13.67 -11.64 13.34 -13 13 C-8.71 8.71 -4.42 4.42 0 0 Z " fill="#CD8D15" transform="translate(98,165)"/>
<path d="M0 0 C7.38461538 -0.49230769 7.38461538 -0.49230769 10.5 2 C10.995 2.66 11.49 3.32 12 4 C11.01 4 10.02 4 9 4 C8.15545644 7.37817425 7.89155081 9.67465243 9 13 C8.4225 12.505 7.845 12.01 7.25 11.5 C4.89599371 9.63019987 4.89599371 9.63019987 1 10 C1.375 8.0625 1.375 8.0625 2 6 C2.66 5.67 3.32 5.34 4 5 C4.33 4.34 4.66 3.68 5 3 C3.35 2.67 1.7 2.34 0 2 C0 1.34 0 0.68 0 0 Z " fill="#CC8A14" transform="translate(110,72)"/>
<path d="M0 0 C5.29012124 4.40843437 10.18808428 9.07559794 15 14 C12 14 12 14 9 12 C8.34 12 7.68 12 7 12 C6.67 11.01 6.34 10.02 6 9 C5.01 9.66 4.02 10.32 3 11 C3 10.34 3 9.68 3 9 C2.01 9 1.02 9 0 9 C0.185625 8.2575 0.37125 7.515 0.5625 6.75 C0.9986917 4.00822361 0.75202442 2.60701799 0 0 Z " fill="#D3921B" transform="translate(117,94)"/>
<path d="M0 0 C0 3.9919694 -1.11957103 6.49851158 -3 10 C-5.5 10.75 -5.5 10.75 -8 11 C-10.47189851 12.94220597 -10.97912836 13.93738507 -12 17 C-13.95597184 18.39712274 -15.95436401 19.73779907 -18 21 C-18.66 20.67 -19.32 20.34 -20 20 C-13.4 13.4 -6.8 6.8 0 0 Z " fill="#CA9025" transform="translate(129,157)"/>
<path d="M0 0 C2.9375 0.75 2.9375 0.75 6 2 C6.875 4.125 6.875 4.125 7 6 C10.65316671 4.75023244 11.78065836 4.32901247 14 1 C15.98 3.31 17.96 5.62 20 8 C19.071875 7.773125 18.14375 7.54625 17.1875 7.3125 C14.03173152 6.63680017 14.03173152 6.63680017 12.125 8.4375 C11.75375 8.953125 11.3825 9.46875 11 10 C7.81326038 8.59698853 5.67778594 6.92234929 3.25 4.4375 C2.63640625 3.81746094 2.0228125 3.19742188 1.390625 2.55859375 C0 1 0 1 0 0 Z " fill="#C98916" transform="translate(188,114)"/>
<path d="M0 0 C1.14926266 0.95421808 2.29430541 1.91352045 3.4375 2.875 C4.39462891 3.67550781 4.39462891 3.67550781 5.37109375 4.4921875 C7 6 7 6 8 8 C3.375 11 3.375 11 0 11 C-0.33 11.66 -0.66 12.32 -1 13 C-2.65 11.02 -4.3 9.04 -6 7 C-2.94736336 6.01879536 -1.05263664 6.01879536 2 7 C1.42415568 4.61435923 0.77772405 2.33317216 0 0 Z " fill="#D89404" transform="translate(96,117)"/>
<path d="M0 0 C3.81684226 1.55500981 6.19195732 4.03595495 9 7 C7.1875 9 7.1875 9 5 11 C4.01 11 3.02 11 2 11 C1.71125 10.21625 1.4225 9.4325 1.125 8.625 C0.15087746 5.90328368 0.15087746 5.90328368 -2 4 C-1.34 2.68 -0.68 1.36 0 0 Z " fill="#D78B03" transform="translate(178,94)"/>
<path d="M0 0 C5.44585987 -0.36305732 5.44585987 -0.36305732 7.8125 1.1875 C9.27538036 3.42031739 9.64505955 5.37344067 10 8 C6.44219804 7.39009109 3.3171411 6.4216319 0 5 C0 3.35 0 1.7 0 0 Z " fill="#D68C03" transform="translate(191,132)"/>
<path d="M0 0 C0.8971875 0.5259375 0.8971875 0.5259375 1.8125 1.0625 C0.8225 2.0525 -0.1675 3.0425 -1.1875 4.0625 C-0.8575 4.7225 -0.5275 5.3825 -0.1875 6.0625 C-2.4975 6.7225 -4.8075 7.3825 -7.1875 8.0625 C-7.8475 6.7425 -8.5075 5.4225 -9.1875 4.0625 C-3.84539474 -1.64802632 -3.84539474 -1.64802632 0 0 Z " fill="#D78C02" transform="translate(85.1875,184.9375)"/>
<path d="M0 0 C3.36179774 1.44077046 5.59156268 3.24750021 8 6 C8 6.66 8 7.32 8 8 C7.34 8.66 6.68 9.32 6 10 C5.59952556 12.32275177 5.2602896 14.65739357 5 17 C3.29115995 15.37660195 1.62553283 13.70680947 0 12 C0 11.34 0 10.68 0 10 C1.32 9.67 2.64 9.34 4 9 C3.64950425 5.75791433 3.43778819 4.38472296 0.9375 2.1875 C0.298125 1.795625 -0.34125 1.40375 -1 1 C-0.67 0.67 -0.34 0.34 0 0 Z " fill="#CA8C1A" transform="translate(78,75)"/>
<path d="M0 0 C2.1875 0.3125 2.1875 0.3125 4 1 C4.625 2.8125 4.625 2.8125 5 5 C3 8 3 8 1 10 C1 9.01 1 8.02 1 7 C0.34 6.67 -0.32 6.34 -1 6 C-0.67 5.34 -0.34 4.68 0 4 C-0.66 4 -1.32 4 -2 4 C-2 4.99 -2 5.98 -2 7 C-3.98 7 -5.96 7 -8 7 C-7.236875 6.401875 -6.47375 5.80375 -5.6875 5.1875 C-3.06777452 3.1856586 -3.06777452 3.1856586 -1.4375 1.1875 C-0.963125 0.795625 -0.48875 0.40375 0 0 Z " fill="#D98F06" transform="translate(137,171)"/>
<path d="M0 0 C5.60940339 1.27486441 6.92214301 3.33357166 10 8 C12.62766389 8.96219702 12.62766389 8.96219702 15 9 C15.33 11.31 15.66 13.62 16 16 C10.35573231 11.31645873 4.9941954 6.3792354 0 1 C0 0.67 0 0.34 0 0 Z " fill="#C58D1E" transform="translate(140,107)"/>
<path d="M0 0 C2.97 0 5.94 0 9 0 C10 4 10 4 9 7 C5.33535945 6.5047783 3.29167646 5.9791794 1 3 C0.67 2.01 0.34 1.02 0 0 Z " fill="#D68C02" transform="translate(69,99)"/>
<path d="M0 0 C1.9375 0.8125 1.9375 0.8125 4 2 C4.33 2.99 4.66 3.98 5 5 C7.00016466 6.20882096 7.00016466 6.20882096 9 7 C8.67 7.66 8.34 8.32 8 9 C6.68 8.67 5.36 8.34 4 8 C4 7.34 4 6.68 4 6 C1.69 5.67 -0.62 5.34 -3 5 C-3 4.01 -3 3.02 -3 2 C-2.01 1.34 -1.02 0.68 0 0 Z " fill="#D88C03" transform="translate(136,137)"/>
<path d="M0 0 C2.4375 0.6875 2.4375 0.6875 5 2 C6 4.4375 6 4.4375 6 7 C4.5625 8.8125 4.5625 8.8125 3 10 C2.01 9.34 1.02 8.68 0 8 C0 7.34 0 6.68 0 6 C-0.66 5.67 -1.32 5.34 -2 5 C-2 4.01 -2 3.02 -2 2 C-1.34 2 -0.68 2 0 2 C0 1.34 0 0.68 0 0 Z " fill="#D78D03" transform="translate(146,126)"/>
<path d="M0 0 C2.64 0.33 5.28 0.66 8 1 C8.66 2.65 9.32 4.3 10 6 C9.01 6.66 8.02 7.32 7 8 C6.01 7.67 5.02 7.34 4 7 C4 6.34 4 5.68 4 5 C2.68 4.34 1.36 3.68 0 3 C0 2.01 0 1.02 0 0 Z " fill="#D88C01" transform="translate(109,94)"/>
<path d="M0 0 C4.13621084 3.3810038 7.81316569 6.66590534 11 11 C10.01 11 9.02 11 8 11 C7.67 11.66 7.34 12.32 7 13 C5.5 11.6875 5.5 11.6875 4 10 C4 9.01 4 8.02 4 7 C2.68 6.34 1.36 5.68 0 5 C0 3.35 0 1.7 0 0 Z " fill="#CF8C0C" transform="translate(122,76)"/>
<path d="M0 0 C1.32 0.33 2.64 0.66 4 1 C4 4 4 4 3 7 C-2.41538462 8.23076923 -2.41538462 8.23076923 -5.375 7.0625 C-5.91125 6.711875 -6.4475 6.36125 -7 6 C-6.34 6 -5.68 6 -5 6 C-5 5.34 -5 4.68 -5 4 C-3.35 3.67 -1.7 3.34 0 3 C0 2.01 0 1.02 0 0 Z " fill="#D78D02" transform="translate(130,179)"/>
<path d="M0 0 C0.99 0.33 1.98 0.66 3 1 C2.21654285 2.17219543 1.42297164 3.33763668 0.625 4.5 C0.18414062 5.1496875 -0.25671875 5.799375 -0.7109375 6.46875 C-1.13632813 6.9740625 -1.56171875 7.479375 -2 8 C-2.66 8 -3.32 8 -4 8 C-4.33 8.99 -4.66 9.98 -5 11 C-5.99 10.67 -6.98 10.34 -8 10 C-6.125 5.25 -6.125 5.25 -5 3 C-4.01 3 -3.02 3 -2 3 C-1.34 2.01 -0.68 1.02 0 0 Z " fill="#CE8F15" transform="translate(187,172)"/>
<path d="M0 0 C2.49361571 1.20381448 4.68143083 2.45428722 7 4 C9.15274948 3.69159401 9.15274948 3.69159401 11 3 C11.33 3.66 11.66 4.32 12 5 C11.34 5 10.68 5 10 5 C10.34786708 6.97536745 10.34786708 6.97536745 11 9 C11.66 9.33 12.32 9.66 13 10 C12.67 11.65 12.34 13.3 12 15 C11.66355469 14.17048828 11.66355469 14.17048828 11.3203125 13.32421875 C9.59959317 10.29514182 7.37906992 8.22739364 4.875 5.8125 C3.23387212 4.22483663 1.60422432 2.62494308 0 1 C0 0.67 0 0.34 0 0 Z " fill="#C18617" transform="translate(168,136)"/>
<path d="M0 0 C1.74216797 0.05414063 1.74216797 0.05414063 3.51953125 0.109375 C4.39996094 0.15578125 5.28039062 0.2021875 6.1875 0.25 C2.4375 2.25 2.4375 2.25 0.1875 2.25 C0.1875 2.91 0.1875 3.57 0.1875 4.25 C-1.7925 3.59 -3.7725 2.93 -5.8125 2.25 C-6.4725 3.57 -7.1325 4.89 -7.8125 6.25 C-9.1325 5.59 -10.4525 4.93 -11.8125 4.25 C-7.84629046 0.45558484 -5.44459078 -0.21998347 0 0 Z " fill="#D89708" transform="translate(116.8125,152.75)"/>
<path d="M0 0 C0.66 0.66 1.32 1.32 2 2 C1.67 2.66 1.34 3.32 1 4 C1.99 3.67 2.98 3.34 4 3 C4.99 4.485 4.99 4.485 6 6 C5.34 6 4.68 6 4 6 C3.67 6.99 3.34 7.98 3 9 C0.5625 8.25 0.5625 8.25 -2 7 C-3 5.0625 -3 5.0625 -3 3 C-1.5625 1.25 -1.5625 1.25 0 0 Z " fill="#D88B02" transform="translate(123,102)"/>
<path d="M0 0 C0.66 0 1.32 0 2 0 C2.33 2.31 2.66 4.62 3 7 C0.69 6.67 -1.62 6.34 -4 6 C-4.33 7.32 -4.66 8.64 -5 10 C-6.32 10.33 -7.64 10.66 -9 11 C-8.67 10.01 -8.34 9.02 -8 8 C-7.34 8 -6.68 8 -6 8 C-5.67 7.01 -5.34 6.02 -5 5 C-4.34 5 -3.68 5 -3 5 C-2.67 4.01 -2.34 3.02 -2 2 C-1.34 2 -0.68 2 0 2 C0 1.34 0 0.68 0 0 Z " fill="#CA8A13" transform="translate(179,191)"/>
<path d="M0 0 C1.32 0.99 2.64 1.98 4 3 C1.03 5.97 -1.94 8.94 -5 12 C-5.66 10.68 -6.32 9.36 -7 8 C-2.375 4 -2.375 4 1 4 C0.67 2.68 0.34 1.36 0 0 Z " fill="#D08F19" transform="translate(146,191)"/>
<path d="M0 0 C3.21043882 1.38188453 5.04936365 2.92421903 7.25 5.625 C7.77078125 6.25664063 8.2915625 6.88828125 8.828125 7.5390625 C9.40820312 8.26222656 9.40820312 8.26222656 10 9 C9.01 9.495 9.01 9.495 8 10 C7.67 9.34 7.34 8.68 7 8 C4.68020619 6.96898053 2.34570085 5.97063483 0 5 C-0.99 4.34 -1.98 3.68 -3 3 C-2.01 2.01 -1.02 1.02 0 0 Z " fill="#C88F20" transform="translate(163,97)"/>
<path d="M0 0 C0 3.38023517 -0.87455622 5.83468937 -2 9 C-2.99 9 -3.98 9 -5 9 C-5.33 9.99 -5.66 10.98 -6 12 C-9 12 -9 12 -11 11 C-7.37 7.37 -3.74 3.74 0 0 Z " fill="#CD8F1F" transform="translate(146,183)"/>
<path d="M0 0 C1.32 0.33 2.64 0.66 4 1 C1.03 3.97 -1.94 6.94 -5 10 C-7 7 -7 7 -7 5 C-5.35 5 -3.7 5 -2 5 C-2.33 4.01 -2.66 3.02 -3 2 C-2.01 1.34 -1.02 0.68 0 0 Z " fill="#CB8B18" transform="translate(135,181)"/>
<path d="M0 0 C0.33 1.32 0.66 2.64 1 4 C-0.07421875 5.73828125 -0.07421875 5.73828125 -1.6875 7.3125 C-2.46673828 8.11107422 -2.46673828 8.11107422 -3.26171875 8.92578125 C-4.12216797 9.45751953 -4.12216797 9.45751953 -5 10 C-6.32 9.67 -7.64 9.34 -9 9 C-6.03 6.03 -3.06 3.06 0 0 Z " fill="#CD8B18" transform="translate(156,173)"/>
<path d="M0 0 C0.99 0.99 1.98 1.98 3 3 C1.61811547 6.21043882 0.07578097 8.04936365 -2.625 10.25 C-3.25664062 10.77078125 -3.88828125 11.2915625 -4.5390625 11.828125 C-5.02117187 12.21484375 -5.50328125 12.6015625 -6 13 C-6 11.68 -6 10.36 -6 9 C-5.34 9 -4.68 9 -4 9 C-4 8.34 -4 7.68 -4 7 C-3.34 7 -2.68 7 -2 7 C-1.67 6.01 -1.34 5.02 -1 4 C-0.34 4 0.32 4 1 4 C0.67 2.68 0.34 1.36 0 0 Z " fill="#C58D1D" transform="translate(167,145)"/>
<path d="M0 0 C1.12588014 0.95729916 2.2506715 1.91587895 3.375 2.875 C4.00148437 3.40867187 4.62796875 3.94234375 5.2734375 4.4921875 C6.55836651 5.61432007 7.79371975 6.79371975 9 8 C8.67 8.99 8.34 9.98 8 11 C7.01 10.34 6.02 9.68 5 9 C5 8.01 5 7.02 5 6 C3.35 5.67 1.7 5.34 0 5 C0 3.35 0 1.7 0 0 Z M4 10 C6 11 6 11 6 11 Z " fill="#CD8F1D" transform="translate(132,109)"/>
<path d="M0 0 C1.12894876 0.93274109 2.25300876 1.87140122 3.375 2.8125 C4.00148438 3.33457031 4.62796875 3.85664062 5.2734375 4.39453125 C7 6 7 6 9 9 C7.6078125 8.505 7.6078125 8.505 6.1875 8 C3.07970709 6.85032996 3.07970709 6.85032996 0 7 C-0.93423645 3.98968256 -1.04449911 3.13349732 0 0 Z " fill="#D4931B" transform="translate(87,108)"/>
<path d="M0 0 C2.5 2.25 2.5 2.25 5 5 C5 6.32 5 7.64 5 9 C2.5 11.25 2.5 11.25 0 13 C-0.33 11.68 -0.66 10.36 -1 9 C-0.01 9 0.98 9 2 9 C2 5.20442119 1.49821059 3.37097383 0 0 Z " fill="#C68E1D" transform="translate(208,142)"/>
<path d="M0 0 C0.33 0.66 0.66 1.32 1 2 C1.66 2.33 2.32 2.66 3 3 C1.35 3.33 -0.3 3.66 -2 4 C-2.33 6.31 -2.66 8.62 -3 11 C-3.99 10.67 -4.98 10.34 -6 10 C-6.99 10 -7.98 10 -9 10 C-8.04882866 8.8274869 -7.08882991 7.66212985 -6.125 6.5 C-5.32449219 5.52546875 -5.32449219 5.52546875 -4.5078125 4.53125 C-4.01023438 4.0259375 -3.51265625 3.520625 -3 3 C-2.34 3 -1.68 3 -1 3 C-0.67 2.01 -0.34 1.02 0 0 Z " fill="#CC8915" transform="translate(168,202)"/>
<path d="M0 0 C0.99 0.33 1.98 0.66 3 1 C-0.63 4.63 -4.26 8.26 -8 12 C-8.33 10.68 -8.66 9.36 -9 8 C-8.01 7.67 -7.02 7.34 -6 7 C-5.67 6.01 -5.34 5.02 -5 4 C-3.68352881 3.30062468 -2.34977849 2.63270867 -1 2 C-0.67 1.34 -0.34 0.68 0 0 Z " fill="#C28D1F" transform="translate(187,194)"/>
<path d="M0 0 C0.99 0.33 1.98 0.66 3 1 C0.36 3.64 -2.28 6.28 -5 9 C-5.66 7.68 -6.32 6.36 -7 5 C-5.35 4.34 -3.7 3.68 -2 3 C-2 2.34 -2 1.68 -2 1 C-1.34 0.67 -0.68 0.34 0 0 Z " fill="#C58A19" transform="translate(119,154)"/>
<path d="M0 0 C2 0 2 0 3.625 1.25 C5 3 5 3 5 7 C5.66 7 6.32 7 7 7 C6.67 7.66 6.34 8.32 6 9 C4.68 9 3.36 9 2 9 C2 8.34 2 7.68 2 7 C1.01 7 0.02 7 -1 7 C-1 6.34 -1 5.68 -1 5 C0.32 5 1.64 5 3 5 C1.68 4.01 0.36 3.02 -1 2 C-0.67 1.34 -0.34 0.68 0 0 Z " fill="#D48A0B" transform="translate(107,129)"/>
<path d="M0 0 C3.68069887 1.53643852 5.98775204 3.78150945 8.75 6.625 C9.54921875 7.44226563 10.3484375 8.25953125 11.171875 9.1015625 C12.07679688 10.04128906 12.07679688 10.04128906 13 11 C9.89448334 11 8.64738916 10.4606285 6 9 C6 8.01 6 7.02 6 6 C5.34 6 4.68 6 4 6 C1.875 4.125 1.875 4.125 0 2 C0 1.34 0 0.68 0 0 Z " fill="#C49029" transform="translate(161,75)"/>
<path d="M0 0 C0.99 1.32 1.98 2.64 3 4 C2.38125 4.12375 1.7625 4.2475 1.125 4.375 C-1.19120832 4.87197356 -1.19120832 4.87197356 -3 7 C-6.625 7.125 -6.625 7.125 -10 7 C-10 6.01 -10 5.02 -10 4 C-8.9171875 4.4021875 -8.9171875 4.4021875 -7.8125 4.8125 C-4.73609463 5.34894155 -4.73609463 5.34894155 -2.1875 2.5625 C-1.465625 1.716875 -0.74375 0.87125 0 0 Z " fill="#CD8E1E" transform="translate(120,210)"/>
<path d="M0 0 C2 1.25 2 1.25 4 3 C4 4.32 4 5.64 4 7 C2.68 7.33 1.36 7.66 0 8 C-0.66 6.02 -1.32 4.04 -2 2 C-1.34 1.34 -0.68 0.68 0 0 Z " fill="#DB9904" transform="translate(166,162)"/>
<path d="M0 0 C0.66 0.33 1.32 0.66 2 1 C0.52278578 4.45201639 -1.43794001 6.64961936 -4.125 9.25 C-4.84945312 9.95640625 -5.57390625 10.6628125 -6.3203125 11.390625 C-6.87460938 11.92171875 -7.42890625 12.4528125 -8 13 C-8.33 11.68 -8.66 10.36 -9 9 C-8.236875 8.566875 -7.47375 8.13375 -6.6875 7.6875 C-3.05978532 5.40963264 -1.36433599 4.09300798 0 0 Z " fill="#BA8621" transform="translate(191,147)"/>
<path d="M0 0 C0 3.60573896 -0.81707462 4.41336566 -3 7.1875 C-3.556875 7.90292969 -4.11375 8.61835938 -4.6875 9.35546875 C-5.120625 9.89816406 -5.55375 10.44085938 -6 11 C-7.32 10.67 -8.64 10.34 -10 10 C-6.7 6.7 -3.4 3.4 0 0 Z " fill="#CB9025" transform="translate(95,168)"/>
<path d="M0 0 C0.66 0.33 1.32 0.66 2 1 C-0.10515339 4.72450216 -1.24267224 6.6795921 -5.25 8.375 C-6.61125 8.684375 -6.61125 8.684375 -8 9 C-7.04270084 7.87411986 -6.08412105 6.7493285 -5.125 5.625 C-4.59132813 4.99851562 -4.05765625 4.37203125 -3.5078125 3.7265625 C-2.38567993 2.44163349 -1.20628025 1.20628025 0 0 Z " fill="#C58C1C" transform="translate(75,77)"/>
<path d="M0 0 C0.66 0.66 1.32 1.32 2 2 C1.625 4.625 1.625 4.625 1 7 C-0.32 7 -1.64 7 -3 7 C-3.33 7.99 -3.66 8.98 -4 10 C-5 8 -5 8 -4.1875 5.4375 C-3 3 -3 3 -1 2 C-0.67 1.34 -0.34 0.68 0 0 Z " fill="#DB9408" transform="translate(108,212)"/>
<path d="M0 0 C1.32 0.33 2.64 0.66 4 1 C3.01 1.33 2.02 1.66 1 2 C0.67 2.99 0.34 3.98 0 5 C-0.66 5 -1.32 5 -2 5 C-2.33 5.99 -2.66 6.98 -3 8 C-4.0625 6.125 -4.0625 6.125 -5 4 C-4.67 3.34 -4.34 2.68 -4 2 C-2.02 2.495 -2.02 2.495 0 3 C0 2.01 0 1.02 0 0 Z " fill="#C68A18" transform="translate(124,172)"/>
<path d="M0 0 C1.13199353 0.9080162 2.25532363 1.82683826 3.375 2.75 C4.00148438 3.26046875 4.62796875 3.7709375 5.2734375 4.296875 C7.08312318 6.08199481 8.00117455 7.67949644 9 10 C8.278125 9.38125 7.55625 8.7625 6.8125 8.125 C4.21618062 6.16333647 2.05328334 5.04684 -1 4 C-0.67 2.68 -0.34 1.36 0 0 Z " fill="#CA9021" transform="translate(115,112)"/>
<path d="M0 0 C0.66 0 1.32 0 2 0 C2.33 0.99 2.66 1.98 3 3 C4.65 3.33 6.3 3.66 8 4 C7.67 5.65 7.34 7.3 7 9 C6.34 9 5.68 9 5 9 C3.4921875 7.25 3.4921875 7.25 1.875 5 C1.33617188 4.2575 0.79734375 3.515 0.2421875 2.75 C-0.37269531 1.88375 -0.37269531 1.88375 -1 1 C-0.67 0.67 -0.34 0.34 0 0 Z " fill="#CB901A" transform="translate(95,102)"/>
<path d="M0 0 C0.99 0.33 1.98 0.66 3 1 C3 1.99 3 2.98 3 4 C4.88316159 5.10836423 4.88316159 5.10836423 7 6 C7.66 5.67 8.32 5.34 9 5 C8.67 5.99 8.34 6.98 8 8 C6.02 8 4.04 8 2 8 C0.23537317 4.91190305 0 3.76687864 0 0 Z " fill="#C48B1F" transform="translate(72,202)"/>
<path d="M0 0 C1.65 1.32 3.3 2.64 5 4 C3.63016497 7.16115776 3.0109362 7.9927092 0 10 C0 9.01 0 8.02 0 7 C0.66 7 1.32 7 2 7 C2 5.68 2 4.36 2 3 C1.01 3.33 0.02 3.66 -1 4 C-0.67 2.68 -0.34 1.36 0 0 Z " fill="#CA9023" transform="translate(229,144)"/>
<path d="M0 0 C5.75 1.75 5.75 1.75 8 4 C7.34 4.66 6.68 5.32 6 6 C3.06546739 5.63318342 2.13562754 5.13562754 0 3 C0 2.01 0 1.02 0 0 Z " fill="#D68A04" transform="translate(125,131)"/>
<path d="M0 0 C0.33 0.66 0.66 1.32 1 2 C-0.125 4.5625 -0.125 4.5625 -2 7 C-4.6875 7.8125 -4.6875 7.8125 -7 8 C-6.02133662 6.85373678 -5.04205413 5.70800212 -4.0625 4.5625 C-3.51722656 3.92441406 -2.97195312 3.28632813 -2.41015625 2.62890625 C-1.63204305 1.73008851 -0.84063472 0.84063472 0 0 Z " fill="#CB8F1F" transform="translate(92,195)"/>
<path d="M0 0 C1.32 0.66 2.64 1.32 4 2 C3.67 2.66 3.34 3.32 3 4 C1.35 4 -0.3 4 -2 4 C-2.66 5.32 -3.32 6.64 -4 8 C-4.66 7.67 -5.32 7.34 -6 7 C-4.02 4.69 -2.04 2.38 0 0 Z " fill="#D08714" transform="translate(121,185)"/>
<path d="M0 0 C2.31 0 4.62 0 7 0 C5.35 1.98 3.7 3.96 2 6 C0 3 0 3 0 0 Z " fill="#CB8C15" transform="translate(105,164)"/>
<path d="M0 0 C1.16959987 0.97566112 2.33561177 1.955625 3.5 2.9375 C4.1496875 3.48277344 4.799375 4.02804688 5.46875 4.58984375 C5.9740625 5.05519531 6.479375 5.52054687 7 6 C7 6.33 7 6.66 7 7 C4.625 7.1875 4.625 7.1875 2 7 C0 4 0 4 0 0 Z " fill="#CF8F10" transform="translate(156,111)"/>
<path d="M0 0 C1.65 1.32 3.3 2.64 5 4 C4.67 4.66 4.34 5.32 4 6 C3.236875 5.649375 2.47375 5.29875 1.6875 4.9375 C-1.04759379 3.67639116 -1.04759379 3.67639116 -4 5 C-3 2 -3 2 0 0 Z " fill="#CE8E15" transform="translate(187,100)"/>
<path d="M0 0 C1.65 0 3.3 0 5 0 C4.04578192 1.14926266 3.08647955 2.29430541 2.125 3.4375 C1.59132812 4.07558594 1.05765625 4.71367187 0.5078125 5.37109375 C-1 7 -1 7 -3 8 C-3 7.01 -3 6.02 -3 5 C-2.34 5 -1.68 5 -1 5 C-0.67 3.35 -0.34 1.7 0 0 Z " fill="#C3871A" transform="translate(167,170)"/>
<path d="M0 0 C1.98 0.99 1.98 0.99 4 2 C4 2.66 4 3.32 4 4 C4.66 4 5.32 4 6 4 C6 4.66 6 5.32 6 6 C5.34 6 4.68 6 4 6 C3.67 6.99 3.34 7.98 3 9 C2.34 8.67 1.68 8.34 1 8 C1.33 7.01 1.66 6.02 2 5 C1.12085312 2.3430809 1.12085312 2.3430809 0 0 Z " fill="#BF8926" transform="translate(121,144)"/>
<path d="M0 0 C0.78375 0.185625 1.5675 0.37125 2.375 0.5625 C4.97089775 1.25962266 4.97089775 1.25962266 7 0 C6.67 1.65 6.34 3.3 6 5 C3.03824877 4.38722388 1.61941217 3.74627478 -1 2 C-0.67 1.34 -0.34 0.68 0 0 Z " fill="#D68D02" transform="translate(160,101)"/>
<path d="M0 0 C-0.33 0.99 -0.66 1.98 -1 3 C-3.5625 4.1875 -3.5625 4.1875 -6 5 C-6 3.35 -6 1.7 -6 0 C-3.50907189 -1.24546405 -2.58919267 -0.7767578 0 0 Z " fill="#D78F01" transform="translate(95,92)"/>
<path d="M0 0 C2.31 1.98 4.62 3.96 7 6 C4 7 4 7 1.8125 6.0625 C1.214375 5.711875 0.61625 5.36125 0 5 C0 3.35 0 1.7 0 0 Z " fill="#C78C19" transform="translate(122,76)"/>
<path d="M0 0 C0.66 0.33 1.32 0.66 2 1 C1.25 3.4375 1.25 3.4375 0 6 C-2.125 6.8125 -2.125 6.8125 -4 7 C-2.79618552 4.50638429 -1.54571278 2.31856917 0 0 Z " fill="#CA8A0C" transform="translate(115,146)"/>
<path d="M0 0 C2.31 0.66 4.62 1.32 7 2 C7 2.99 7 3.98 7 5 C7.66 5.66 8.32 6.32 9 7 C6 7 6 7 4.39453125 5.46875 C3.87246094 4.8190625 3.35039063 4.169375 2.8125 3.5 C2.28269531 2.8503125 1.75289063 2.200625 1.20703125 1.53125 C0.80871094 1.0259375 0.41039063 0.520625 0 0 Z " fill="#BD8716" transform="translate(117,127)"/>
<path d="M0 0 C2.3125 0.1875 2.3125 0.1875 5 1 C7.20970874 3.89548041 8 5.33157745 8 9 C6.66368764 7.6905332 5.33102075 6.37734515 4 5.0625 C3.2575 4.33160156 2.515 3.60070312 1.75 2.84765625 C0 1 0 1 0 0 Z " fill="#BB851F" transform="translate(133,123)"/>
<path d="M0 0 C4 0 4 0 6 1 C6 2.98 6 4.96 6 7 C1.125 3.375 1.125 3.375 0 0 Z " fill="#C38515" transform="translate(167,92)"/>
<path d="M0 0 C1 2 1 2 0.375 4 C-1.39265071 6.57112831 -3.07589059 7.07659703 -6 8 C-4.55746343 4.63408134 -2.66735273 2.48952921 0 0 Z " fill="#CC8F23" transform="translate(84,179)"/>
<path d="M0 0 C1.32 0 2.64 0 4 0 C4 0.66 4 1.32 4 2 C4.66 2 5.32 2 6 2 C6.33 3.65 6.66 5.3 7 7 C5.83040013 6.02433888 4.66438823 5.044375 3.5 4.0625 C2.8503125 3.51722656 2.200625 2.97195312 1.53125 2.41015625 C1.0259375 1.94480469 0.520625 1.47945313 0 1 C0 0.67 0 0.34 0 0 Z " fill="#C08519" transform="translate(126,116)"/>
<path d="M0 0 C0.66 0.66 1.32 1.32 2 2 C2.66 2.33 3.32 2.66 4 3 C4 4.65 4 6.3 4 8 C3.34 7.67 2.68 7.34 2 7 C2 6.34 2 5.68 2 5 C1.01 4.67 0.02 4.34 -1 4 C-0.67 2.68 -0.34 1.36 0 0 Z " fill="#C58719" transform="translate(159,101)"/>
<path d="M0 0 C0.99 0.33 1.98 0.66 3 1 C4.1875 4.0625 4.1875 4.0625 5 7 C3.02 5.35 1.04 3.7 -1 2 C-0.67 1.34 -0.34 0.68 0 0 Z " fill="#C18918" transform="translate(91,123)"/>
<path d="M0 0 C2.625 -0.1875 2.625 -0.1875 5 0 C5 1.32 5 2.64 5 4 C4.67 3.34 4.34 2.68 4 2 C3.67 2.66 3.34 3.32 3 4 C1.35 3.67 -0.3 3.34 -2 3 C-1.34 2.01 -0.68 1.02 0 0 Z " fill="#CE8A0A" transform="translate(89,89)"/>
<path d="M0 0 C0.99 0 1.98 0 3 0 C3 0.99 3 1.98 3 3 C1.35 3.33 -0.3 3.66 -2 4 C-2 4.66 -2 5.32 -2 6 C-2.66 5.67 -3.32 5.34 -4 5 C-2.1875 2.5 -2.1875 2.5 0 0 Z " fill="#CD8913" transform="translate(127,179)"/>
<path d="M0 0 C0 2.83967231 -0.40267181 5.23735711 -1 8 C-1.99 8.33 -2.98 8.66 -4 9 C-4 5.28703828 -2.65223411 2.65223411 0 0 Z " fill="#CE8B14" transform="translate(186,164)"/>
<path d="M0 0 C0.99 0.33 1.98 0.66 3 1 C0.03 3.475 0.03 3.475 -3 6 C-3 5.01 -3 4.02 -3 3 C-3.66 2.67 -4.32 2.34 -5 2 C-3.35 2 -1.7 2 0 2 C0 1.34 0 0.68 0 0 Z " fill="#C18A17" transform="translate(179,160)"/>
<path d="M0 0 C2.475 0.495 2.475 0.495 5 1 C5.33 2.65 5.66 4.3 6 6 C3.97945196 4.35830472 1.97956942 2.69088222 0 1 C0 0.67 0 0.34 0 0 Z " fill="#C08D17" transform="translate(111,121)"/>
<path d="M0 0 C2.31 1.98 4.62 3.96 7 6 C6.01 6.66 5.02 7.32 4 8 C0 2.25 0 2.25 0 0 Z " fill="#C89323" transform="translate(96,117)"/>
</svg>
