<?xml version="1.0" encoding="UTF-8"?>
<svg version="1.1" xmlns="http://www.w3.org/2000/svg" width="688" height="208">
<path d="M0 0 C227.04 0 454.08 0 688 0 C688 68.64 688 137.28 688 208 C460.96 208 233.92 208 0 208 C0 139.36 0 70.72 0 0 Z " fill="#060402" transform="translate(0,0)"/>
<path d="M0 0 C4.29 0 8.58 0 13 0 C13.33 10.89 13.66 21.78 14 33 C16.97 29.04 19.94 25.08 23 21 C25.03970602 18.52960873 27.07724135 16.09302118 29.1875 13.6875 C29.90969727 12.85508789 29.90969727 12.85508789 30.64648438 12.00585938 C31.60980412 10.89552697 32.58073075 9.79174338 33.55957031 8.69506836 C35.04483268 6.99792704 35.04483268 6.99792704 36.38574219 5.04125977 C39.87812401 0.29945857 39.87812401 0.29945857 43.06616211 -0.55151367 C45.37612287 -0.68780866 47.56848553 -0.61537527 49.875 -0.4375 C51.050625 -0.39012695 51.050625 -0.39012695 52.25 -0.34179688 C54.1683033 -0.25991808 56.08465781 -0.13437256 58 0 C56.4020916 3.86237287 53.77863743 6.58228591 50.9375 9.5625 C46.324033 14.48730527 41.9989828 19.55280627 37.77734375 24.8203125 C36 27 36 27 34 29 C34.31863785 32.78674838 36.49594219 35.4860485 38.60546875 38.54296875 C39.34216797 39.61740234 40.07886719 40.69183594 40.83789062 41.79882812 C41.62089246 42.92852496 42.40409676 44.05808149 43.1875 45.1875 C43.95172697 46.29714395 44.71540416 47.40716674 45.47851562 48.51757812 C46.96069471 50.67335811 48.44612555 52.82690658 49.93505859 54.97802734 C52.29655286 58.43399519 54.56832152 61.9419578 56.80200195 65.48168945 C57.19734131 65.98273193 57.59268066 66.48377441 58 67 C58.66 67 59.32 67 60 67 C60.60473145 65.12465576 60.60473145 65.12465576 61.22167969 63.21142578 C62.73152249 58.53239167 64.2459575 53.85485423 65.76171875 49.17773438 C66.41464745 47.16088149 67.06636305 45.14363543 67.71679688 43.12597656 C68.65689403 40.2105219 69.60147847 37.29655243 70.546875 34.3828125 C70.83246277 33.49385284 71.11805054 32.60489319 71.41229248 31.68899536 C73.12274581 26.43440547 75.02037367 21.30155295 77.12623596 16.19212341 C78.33495203 13.15966308 79.27288802 10.06957938 80.1875 6.9375 C81.8960396 1.1039604 81.8960396 1.1039604 83 0 C84.41570123 -0.08651611 85.835595 -0.10704904 87.25390625 -0.09765625 C88.53491211 -0.09282227 88.53491211 -0.09282227 89.84179688 -0.08789062 C91.18854492 -0.07532227 91.18854492 -0.07532227 92.5625 -0.0625 C93.46419922 -0.05798828 94.36589844 -0.05347656 95.29492188 -0.04882812 C97.53001314 -0.03700225 99.76497437 -0.0205222 102 0 C106.44116266 11.80541783 110.68395758 23.67995716 114.87417603 35.57632446 C115.45394138 37.22208717 116.0344764 38.86757895 116.61581421 40.51278687 C123.50557204 60.02228816 123.50557204 60.02228816 126 70 C121.05 70 116.1 70 111 70 C108.72266709 64.9898676 106.74705429 60.24116286 105 55 C96.75 55 88.5 55 80 55 C78.39639698 59.56127862 78.39639698 59.56127862 76.79907227 64.12475586 C75.11111111 68.88888889 75.11111111 68.88888889 74 70 C69.67592436 70.36307344 65.3464922 70.44239077 61.00952148 70.51489258 C59.55334789 70.54644651 58.09742797 70.59411473 56.64233398 70.65844727 C44.68922207 71.17968623 44.68922207 71.17968623 40.91503906 68.54394531 C39.31783997 66.45139223 38.18161434 64.35109613 37 62 C35.87289006 60.29392832 34.72884471 58.59895434 33.5703125 56.9140625 C32.41892676 55.15296567 31.2705144 53.3899215 30.125 51.625 C29.53203125 50.72394531 28.9390625 49.82289062 28.328125 48.89453125 C27.76867187 48.03472656 27.20921875 47.17492187 26.6328125 46.2890625 C25.87315186 45.12431396 25.87315186 45.12431396 25.09814453 43.93603516 C24 42 24 42 24 40 C23.01 40 22.02 40 21 40 C20.7525 40.556875 20.505 41.11375 20.25 41.6875 C19 44 19 44 16.96875 45.96875 C14.07086807 50.43056821 14.32707044 54.59623216 14.25 59.8125 C14.22035156 60.79154297 14.19070313 61.77058594 14.16015625 62.77929688 C14.08970798 65.18627953 14.03688975 67.5923079 14 70 C11.68756208 70.02685412 9.3750373 70.04632841 7.0625 70.0625 C5.77472656 70.07410156 4.48695313 70.08570313 3.16015625 70.09765625 C0 70 0 70 -1 69 C-1.09948193 66.88862099 -1.12799638 64.77387714 -1.12939453 62.66015625 C-1.13202301 61.66748245 -1.13202301 61.66748245 -1.13470459 60.65475464 C-1.13912217 58.4573101 -1.13618547 56.25994542 -1.1328125 54.0625 C-1.13348557 52.54174789 -1.13445561 51.02099588 -1.13571167 49.50024414 C-1.13718851 46.30907164 -1.13503452 43.11792708 -1.13037109 39.92675781 C-1.1246738 35.8273547 -1.12795288 31.72801704 -1.13394356 27.62861633 C-1.13754954 24.48717756 -1.13641042 21.34575442 -1.13381577 18.20431519 C-1.1331466 16.69237256 -1.13397457 15.18042854 -1.13629532 13.66848755 C-1.13882245 11.55890113 -1.13498044 9.44942213 -1.12939453 7.33984375 C-1.12859894 6.13706787 -1.12780334 4.93429199 -1.12698364 3.69506836 C-1 1 -1 1 0 0 Z " fill="#F7F7F7" transform="translate(263,68)"/>
<path d="M0 0 C4.54052281 0.10540499 6.91938897 1.14559637 10.3125 4.3125 C11.08693202 5.85306656 11.81159156 7.4191192 12.5 9 C15.27804839 14.97411033 19.31827185 18.15164267 24.55224609 22.00976562 C26.53789952 23.4793144 28.49805029 24.97946247 30.45703125 26.484375 C33.40389408 28.74747895 36.35578262 31.00369321 39.3125 33.25390625 C44.04335424 36.86238946 48.69576546 40.5592784 53.3125 44.3125 C54.58202712 45.34375508 55.85155877 46.3750046 57.12109375 47.40625 C59.2127697 49.10581358 61.3041644 50.80571834 63.39477539 52.5065918 C68.67821406 56.80368755 73.98331056 61.07220744 79.3125 65.3125 C77.9331302 74.06766663 65.49718564 80.27430561 58.82519531 85.31542969 C53.73829751 89.17345765 48.83127777 93.18268554 43.99633789 97.34985352 C40.26005018 100.55464858 36.42063308 103.58678196 32.5 106.5625 C24.99945608 112.27254853 18.27429632 117.99721479 12.3125 125.3125 C11.23376738 126.60801142 10.15050435 127.89976539 9.0625 129.1875 C8.58296875 129.76242188 8.1034375 130.33734375 7.609375 130.9296875 C5.17643962 133.52384149 2.86096355 133.58238235 -0.5625 133.75 C-4.47532553 133.68780191 -5.30333344 133.66007927 -8.3125 130.9375 C-10.1302734 126.1451883 -10.92848207 122.35256215 -9.6875 117.3125 C-6.06927865 111.45079048 -0.6343217 107.25198274 4.83203125 103.1875 C7.71824036 101.00579862 10.47966239 98.70194171 13.25 96.375 C16.88032798 93.32774027 20.53460161 90.31836755 24.25 87.375 C27.09161864 85.12193667 29.89188486 82.83238971 32.6484375 80.4765625 C33.224729 79.98406006 33.80102051 79.49155762 34.39477539 78.98413086 C35.51926792 78.01957744 36.64101496 77.05181076 37.75952148 76.08032227 C40.79169665 73.47748164 43.81949341 71.25592881 47.3125 69.3125 C45.73672238 65.02961723 42.47426136 62.62752568 39.0625 59.8125 C37.79155092 58.7436272 36.52072098 57.67461272 35.25 56.60546875 C34.59773438 56.06067871 33.94546875 55.51588867 33.2734375 54.95458984 C30.18377103 52.36730191 27.12249555 49.74725029 24.0625 47.125 C23.47782959 46.62581055 22.89315918 46.12662109 22.29077148 45.61230469 C18.8412558 42.65821628 15.46604819 39.63964233 12.125 36.5625 C8.76639054 33.49161326 5.30209403 30.84204701 1.5625 28.25 C-3.8722846 24.34158044 -8.79619292 20.59208472 -10.21875 13.76171875 C-10.49617245 9.08021484 -10.23101555 6.99537851 -7.25 3.25 C-6.404375 2.610625 -5.55875 1.97125 -4.6875 1.3125 C-3.6875 0.3125 -3.6875 0.3125 0 0 Z " fill="#D29931" transform="translate(88.6875,48.6875)"/>
<path d="M0 0 C2.12696259 -0.00958631 4.2529082 -0.04053448 6.37963867 -0.07226562 C15.22000977 -0.14167833 24.24088094 -0.05011377 31.60424805 5.49023438 C37.07304178 11.21944686 38.50572159 14.69417851 38.85424805 22.61523438 C38.67364162 29.63109944 37.16253102 34.21643245 32.22924805 39.24023438 C30.91968492 40.27116705 29.59184555 41.28049179 28.22924805 42.24023438 C28.8113714 45.97294008 29.85434688 48.72948677 31.7331543 51.99804688 C32.2262207 52.87074219 32.71928711 53.7434375 33.22729492 54.64257812 C33.74356445 55.54105469 34.25983398 56.43953125 34.79174805 57.36523438 C35.81969574 59.15618166 36.84210666 60.95032169 37.8581543 62.74804688 C38.31262939 63.53840332 38.76710449 64.32875977 39.23535156 65.14306641 C40.22924805 67.24023438 40.22924805 67.24023438 40.22924805 70.24023438 C35.27924805 70.24023438 30.32924805 70.24023438 25.22924805 70.24023438 C23.22416751 66.61796091 21.22499739 62.99264365 19.22924805 59.36523438 C18.6569043 58.33269531 18.08456055 57.30015625 17.49487305 56.23632812 C16.9534668 55.25019531 16.41206055 54.2640625 15.85424805 53.24804688 C15.35151367 52.33684082 14.8487793 51.42563477 14.33081055 50.48681641 C13.22924805 48.24023438 13.22924805 48.24023438 13.22924805 46.24023438 C9.26924805 45.91023438 5.30924805 45.58023438 1.22924805 45.24023438 C1.24084961 46.96113281 1.25245117 48.68203125 1.2644043 50.45507812 C1.27378038 52.69596246 1.28288077 54.93684797 1.29174805 57.17773438 C1.30012695 58.31404297 1.30850586 59.45035156 1.31713867 60.62109375 C1.32036133 61.70068359 1.32358398 62.78027344 1.3269043 63.89257812 C1.33214111 64.89281006 1.33737793 65.89304199 1.34277344 66.92358398 C1.22924805 69.24023438 1.22924805 69.24023438 0.22924805 70.24023438 C-1.93555992 70.33916377 -4.1036898 70.36994538 -6.27075195 70.36523438 C-7.45668945 70.3678125 -8.64262695 70.37039062 -9.86450195 70.37304688 C-12.77075195 70.24023438 -12.77075195 70.24023438 -13.77075195 69.24023438 C-13.87023388 67.12885537 -13.89874833 65.01411152 -13.90014648 62.90039062 C-13.90277496 61.90771683 -13.90277496 61.90771683 -13.90545654 60.89498901 C-13.90987412 58.69754448 -13.90693742 56.50017979 -13.90356445 54.30273438 C-13.90423752 52.78198226 -13.90520757 51.26123026 -13.90646362 49.74047852 C-13.90794047 46.54930601 -13.90578648 43.35816145 -13.90112305 40.16699219 C-13.89542576 36.06758907 -13.89870483 31.96825142 -13.90469551 27.86885071 C-13.90830149 24.72741193 -13.90716237 21.58598879 -13.90456772 18.44454956 C-13.90389855 16.93260694 -13.90472652 15.42066291 -13.90704727 13.90872192 C-13.90957441 11.7991355 -13.90573239 9.6896565 -13.90014648 7.58007812 C-13.89935089 6.37730225 -13.8985553 5.17452637 -13.8977356 3.93530273 C-13.60015901 -2.38038654 -4.95391809 0.01349076 0 0 Z " fill="#F8F7F7" transform="translate(581.770751953125,67.759765625)"/>
<path d="M0 0 C0.79075928 0.00523682 1.58151855 0.01047363 2.39624023 0.01586914 C3.16524658 0.0183667 3.93425293 0.02086426 4.7265625 0.0234375 C5.70939209 0.0325415 6.69222168 0.04164551 7.70483398 0.05102539 C9.38834407 0.06251398 11.07185666 0.07364019 12.75537109 0.08447266 C13.5833873 0.08995621 14.4114035 0.09543976 15.26451111 0.10108948 C16.19403343 0.10724525 16.19403343 0.10724525 17.14233398 0.11352539 C21.87946075 12.86356939 26.51843166 25.64525636 31.02416992 38.47900391 C31.69363137 40.38124207 32.36655866 42.28226358 33.04272461 44.18212891 C34.03945252 46.98340126 35.02559794 49.78820263 36.00952148 52.59399414 C36.46100052 53.85351143 36.46100052 53.85351143 36.92160034 55.13847351 C38.66815539 60.16448357 39.66852709 64.81000638 40.14233398 70.11352539 C35.52233398 70.11352539 30.90233398 70.11352539 26.14233398 70.11352539 C23.86500108 65.10339299 21.88938827 60.35468825 20.14233398 55.11352539 C11.89233398 55.11352539 3.64233398 55.11352539 -4.85766602 55.11352539 C-6.46126904 59.67480401 -6.46126904 59.67480401 -8.05859375 64.23828125 C-9.7465549 69.00241428 -9.7465549 69.00241428 -10.85766602 70.11352539 C-13.21080156 70.18624281 -15.5660027 70.19723407 -17.92016602 70.17602539 C-19.85569336 70.16249023 -19.85569336 70.16249023 -21.83032227 70.14868164 C-22.8293457 70.13708008 -23.82836914 70.12547852 -24.85766602 70.11352539 C-24.56092393 65.06890997 -23.54488859 61.0271635 -21.65063477 56.33618164 C-18.59773953 48.5616499 -15.96925888 40.67016502 -13.35766602 32.73852539 C-12.89311143 31.33478383 -12.42826843 29.93113768 -11.96313477 28.52758789 C-10.11375412 22.94358133 -8.26472372 17.35954212 -6.43579102 11.76879883 C-5.98271773 10.39150317 -5.52959469 9.01422388 -5.07641602 7.63696289 C-4.67358398 6.4063916 -4.27075195 5.17582031 -3.85571289 3.90795898 C-2.51485476 0.1536874 -2.51485476 0.1536874 0 0 Z " fill="#F7F7F7" transform="translate(523.857666015625,67.886474609375)"/>
<path d="M0 0 C4.29 0 8.58 0 13 0 C13.33 10.89 13.66 21.78 14 33 C16.97 29.04 19.94 25.08 23 21 C25.03970602 18.52960873 27.07724135 16.09302118 29.1875 13.6875 C29.90969727 12.85508789 29.90969727 12.85508789 30.64648438 12.00585938 C31.60980412 10.89552697 32.58073075 9.79174338 33.55957031 8.69506836 C35.04483268 6.99792704 35.04483268 6.99792704 36.38574219 5.04125977 C39.87812401 0.29945857 39.87812401 0.29945857 43.06616211 -0.55151367 C45.37612287 -0.68780866 47.56848553 -0.61537527 49.875 -0.4375 C51.050625 -0.39012695 51.050625 -0.39012695 52.25 -0.34179688 C54.1683033 -0.25991808 56.08465781 -0.13437256 58 0 C56.4020916 3.86237287 53.77863743 6.58228591 50.9375 9.5625 C46.324033 14.48730527 41.9989828 19.55280627 37.77734375 24.8203125 C36 27 36 27 34 29 C34.31863785 32.78674838 36.49594219 35.4860485 38.60546875 38.54296875 C39.34216797 39.61740234 40.07886719 40.69183594 40.83789062 41.79882812 C41.62089246 42.92852496 42.40409676 44.05808149 43.1875 45.1875 C43.95172697 46.29714395 44.71540416 47.40716674 45.47851562 48.51757812 C46.96107283 50.67390807 48.44397399 52.83000159 49.92724609 54.98583984 C50.61125488 55.9805127 51.29526367 56.97518555 52 58 C52.62342285 58.90314941 53.2468457 59.80629883 53.88916016 60.73681641 C54.43749512 61.5416748 54.98583008 62.3465332 55.55078125 63.17578125 C56.26681519 64.22052612 56.26681519 64.22052612 56.99731445 65.28637695 C58 67 58 67 58 69 C44.06518387 70.50556237 44.06518387 70.50556237 39.765625 67.37109375 C37.92631118 64.68041437 36.49463324 61.89796535 35 59 C33.07195454 55.96610182 31.05940483 52.98889323 29.0625 50 C28.08846676 48.52516145 27.12055053 47.04625615 26.16015625 45.5625 C25.53572632 44.60537109 25.53572632 44.60537109 24.89868164 43.62890625 C24 42 24 42 24 40 C23.01 40 22.02 40 21 40 C20.7525 40.556875 20.505 41.11375 20.25 41.6875 C19 44 19 44 16.96875 45.96875 C14.07086807 50.43056821 14.32707044 54.59623216 14.25 59.8125 C14.22035156 60.79154297 14.19070313 61.77058594 14.16015625 62.77929688 C14.08970798 65.18627953 14.03688975 67.5923079 14 70 C11.68756208 70.02685412 9.3750373 70.04632841 7.0625 70.0625 C5.77472656 70.07410156 4.48695313 70.08570313 3.16015625 70.09765625 C0 70 0 70 -1 69 C-1.09948193 66.88862099 -1.12799638 64.77387714 -1.12939453 62.66015625 C-1.13202301 61.66748245 -1.13202301 61.66748245 -1.13470459 60.65475464 C-1.13912217 58.4573101 -1.13618547 56.25994542 -1.1328125 54.0625 C-1.13348557 52.54174789 -1.13445561 51.02099588 -1.13571167 49.50024414 C-1.13718851 46.30907164 -1.13503452 43.11792708 -1.13037109 39.92675781 C-1.1246738 35.8273547 -1.12795288 31.72801704 -1.13394356 27.62861633 C-1.13754954 24.48717756 -1.13641042 21.34575442 -1.13381577 18.20431519 C-1.1331466 16.69237256 -1.13397457 15.18042854 -1.13629532 13.66848755 C-1.13882245 11.55890113 -1.13498044 9.44942213 -1.12939453 7.33984375 C-1.12859894 6.13706787 -1.12780334 4.93429199 -1.12698364 3.69506836 C-1 1 -1 1 0 0 Z " fill="#F9F9F9" transform="translate(263,68)"/>
<path d="M0 0 C2.94041537 1.22440009 4.63184647 2.68336368 6.9140625 4.90625 C10.89440834 8.63856242 14.97516938 12.07681094 19.2890625 15.40625 C24.5500264 19.47787175 29.65888892 23.68298391 34.69335938 28.03100586 C37.3767707 30.32770486 40.09010731 32.51730161 42.95703125 34.58203125 C43.51632324 34.98534668 44.07561523 35.38866211 44.65185547 35.80419922 C46.1950297 36.90186416 47.75142965 37.98086698 49.30859375 39.05859375 C50.02402344 39.70957031 50.73945313 40.36054687 51.4765625 41.03125 C51.4765625 45.03125 51.4765625 45.03125 49.5625 47.00390625 C48.66789062 47.69355469 47.77328125 48.38320312 46.8515625 49.09375 C45.84480469 49.88265625 44.83804688 50.6715625 43.80078125 51.484375 C42.69300721 52.33372329 41.58492755 53.1826731 40.4765625 54.03125 C38.20113338 55.79622164 35.93198375 57.56914533 33.6640625 59.34375 C32.78536499 60.02908813 32.78536499 60.02908813 31.88891602 60.72827148 C27.59403425 64.09794005 23.42054353 67.58869484 19.2890625 71.15625 C18.7113208 71.65463379 18.1335791 72.15301758 17.53833008 72.66650391 C16.68597778 73.40199463 16.68597778 73.40199463 15.81640625 74.15234375 C12.67744543 76.86091191 9.52940538 79.55577675 6.3515625 82.21875 C5.50335938 82.93417969 4.65515625 83.64960938 3.78125 84.38671875 C1.58445723 85.95426071 0.11436827 86.62403114 -2.5234375 87.03125 C-2.7915625 86.391875 -3.0596875 85.7525 -3.3359375 85.09375 C-4.41011502 82.69993314 -4.41011502 82.69993314 -7.5234375 82.03125 C-9.80483727 79.2428725 -11.43012607 77.24429865 -11.7109375 73.59375 C-8.51791664 66.70354709 -1.28509416 62.15037862 4.484375 57.515625 C8.31531629 54.33484346 11.96267681 50.98004386 15.5925293 47.57324219 C19.28038767 44.12933742 19.28038767 44.12933742 21.4765625 43.03125 C20.77321915 39.81386275 20.77321915 39.81386275 17.84375 38.515625 C16.11511719 37.65710938 16.11511719 37.65710938 14.3515625 36.78125 C5.75169969 32.24814578 -0.49074606 25.58780983 -7.02807617 18.50830078 C-8.65949073 16.80327363 -8.65949073 16.80327363 -11.5234375 15.03125 C-12.20072699 11.58001835 -11.67965107 10.26744219 -9.73046875 7.3203125 C-8.94027344 6.44117187 -8.15007812 5.56203125 -7.3359375 4.65625 C-6.55863281 3.76164062 -5.78132813 2.86703125 -4.98046875 1.9453125 C-2.5234375 0.03125 -2.5234375 0.03125 0 0 Z " fill="#D48425" transform="translate(79.5234375,72.96875)"/>
<path d="M0 0 C5.28 0 10.56 0 16 0 C31 26.26666667 31 26.26666667 31 31 C31.66 31 32.32 31 33 31 C33.15758789 29.94570801 33.15758789 29.94570801 33.31835938 28.87011719 C34.09384587 25.60485244 35.34600423 23.04862918 36.90625 20.078125 C37.48503906 18.97082031 38.06382812 17.86351562 38.66015625 16.72265625 C39.57087891 15.00369141 39.57087891 15.00369141 40.5 13.25 C41.41072266 11.50783203 41.41072266 11.50783203 42.33984375 9.73046875 C46.84124846 1.15875154 46.84124846 1.15875154 48 0 C50.69654854 -0.07319621 53.36691458 -0.09242537 56.0625 -0.0625 C56.82111328 -0.05798828 57.57972656 -0.05347656 58.36132812 -0.04882812 C60.24091871 -0.0370068 62.12046899 -0.01907078 64 0 C62.28867285 4.73186632 59.89097851 8.99987038 57.4375 13.375 C56.99784912 14.16285889 56.55819824 14.95071777 56.10522461 15.76245117 C46.3280617 33.1855201 46.3280617 33.1855201 41.41259766 40.29638672 C39.72736588 43.52180268 39.57420088 45.76872267 39.48828125 49.39453125 C39.45283203 50.59658203 39.41738281 51.79863281 39.38085938 53.03710938 C39.35830078 54.28298828 39.33574219 55.52886719 39.3125 56.8125 C39.27833984 58.07771484 39.24417969 59.34292969 39.20898438 60.64648438 C39.12662871 63.76423445 39.05743471 66.88170759 39 70 C36.85423363 70.02685938 34.70837355 70.04633088 32.5625 70.0625 C31.36753906 70.07410156 30.17257812 70.08570313 28.94140625 70.09765625 C26 70 26 70 25 69 C24.93933927 67.23668127 24.93955749 65.47121188 24.96484375 63.70703125 C25.01685088 46.22959039 25.01685088 46.22959039 17.37158203 30.97949219 C14.35773003 26.62984604 11.83497084 21.95301072 9.1875 17.375 C8.08106191 15.48449187 6.97062254 13.59631764 5.85546875 11.7109375 C5.37746826 10.89931152 4.89946777 10.08768555 4.40698242 9.25146484 C3.03778401 6.96535966 3.03778401 6.96535966 1.3215332 4.89306641 C0 3 0 3 0 0 Z " fill="#FAFAFA" transform="translate(441,68)"/>
<path d="M0 0 C3.89533813 0.28189947 6.4851225 2.63176707 9.5 4.9375 C10.02118408 5.33501465 10.54236816 5.7325293 11.0793457 6.14208984 C15.89494871 9.84751109 20.54522953 13.7411362 25.19140625 17.65625 C28.33554905 20.28001311 31.54781068 22.79624353 34.79296875 25.29296875 C39.7303044 29.11175756 44.58102929 33.04307988 49.43359375 36.96875 C54.94468769 41.41289616 60.55355626 45.70197234 66.23828125 49.921875 C68.86707406 51.89997652 71.44212283 53.93133431 74 56 C73.70034748 59.24529328 73.29159465 60.6999123 70.98828125 63.0703125 C70.10527344 63.74835938 69.22226563 64.42640625 68.3125 65.125 C67.31089844 65.90746094 66.30929688 66.68992187 65.27734375 67.49609375 C64.47272705 68.11073486 64.47272705 68.11073486 63.65185547 68.73779297 C60.87247731 70.86155665 58.12618542 73.02742642 55.375 75.1875 C54.79685547 75.63931641 54.21871094 76.09113281 53.62304688 76.55664062 C46.61265795 82.05126979 39.7670518 87.74538792 32.90673828 93.42529297 C29.5170912 96.2246814 26.10449955 98.9958243 22.6875 101.76171875 C20.64760169 103.46064568 18.66188186 105.18472919 16.6875 106.95703125 C16.11612305 107.46210205 15.54474609 107.96717285 14.95605469 108.48754883 C13.85213275 109.46619742 12.75821431 110.45629836 11.67675781 111.4597168 C7.9044094 114.78180557 4.98110121 115.69963209 0 116 C-2 113 -2 113 -1.875 110.5625 C1.32505696 101.19090462 16.42878145 93.21478857 24.11914062 87.41845703 C29.77564521 83.15258325 35.28318984 78.76910678 40.6875 74.1875 C45.21092695 70.39760175 49.83460177 66.82109389 54.625 63.375 C55.22916748 62.93696045 55.83333496 62.4989209 56.45581055 62.04760742 C60.75242734 59 60.75242734 59 63 59 C59.11682974 54.89193571 54.9335124 51.57934789 50.375 48.25 C44.80306489 44.12734672 39.36703542 39.90382582 34.03515625 35.47265625 C30.09811282 32.26525794 26.08089783 29.16696619 22.0625 26.0625 C15.68697851 21.13436192 9.4263245 16.10759494 3.28515625 10.890625 C0.94828958 8.89112933 0.94828958 8.89112933 -2 7 C-2.3125 4.5 -2.3125 4.5 -2 2 C-1.34 1.34 -0.68 0.68 0 0 Z " fill="#DB9B2F" transform="translate(130,58)"/>
<path d="M0 0 C0.99261337 0.00222061 1.98522675 0.00444122 3.00791931 0.00672913 C4.12900589 0.00680466 5.25009247 0.00688019 6.40515137 0.00695801 C8.2348069 0.01469994 8.2348069 0.01469994 10.10142517 0.02259827 C11.96377052 0.02472069 11.96377052 0.02472069 13.86373901 0.02688599 C17.16982383 0.03154861 20.47584039 0.04053955 23.78190613 0.05158997 C27.15338042 0.06180625 30.52486175 0.06638407 33.89634705 0.07142639 C40.5155091 0.08248057 47.13462964 0.09975792 53.75376892 0.12025452 C53.75376892 4.08025452 53.75376892 8.04025452 53.75376892 12.12025452 C46.82376892 12.12025452 39.89376892 12.12025452 32.75376892 12.12025452 C32.75376892 31.26025452 32.75376892 50.40025452 32.75376892 70.12025452 C28.13376892 70.12025452 23.51376892 70.12025452 18.75376892 70.12025452 C18.75376892 50.98025452 18.75376892 31.84025452 18.75376892 12.12025452 C11.82376892 12.12025452 4.89376892 12.12025452 -2.24623108 12.12025452 C-3.24623108 11.12025452 -3.24623108 11.12025452 -3.37904358 8.87025452 C-3.37646545 7.96275452 -3.37388733 7.05525452 -3.37123108 6.12025452 C-3.3738092 5.21275452 -3.37638733 4.30525452 -3.37904358 3.37025452 C-3.19985104 0.33452211 -3.03749101 0.16261551 0 0 Z " fill="#FBFBFB" transform="translate(384.24623107910156,67.87974548339844)"/>
<path d="M0 0 C4.17838742 0.54457656 6.50461609 2.86612604 9.625 5.5625 C10.70108456 6.48263503 11.77791759 7.40189541 12.85546875 8.3203125 C13.65476807 9.00528809 13.65476807 9.00528809 14.47021484 9.70410156 C16.58763808 11.49779492 18.75891384 13.2188772 20.9375 14.9375 C24.82458064 18.0222872 28.60666997 21.21044021 32.375 24.4375 C37.59966101 28.90725524 42.98432043 33.07435699 48.5390625 37.125 C50.54348826 38.65218153 52.28773313 40.16132416 54 42 C51.02648543 51.45812825 40.56168132 57.46658431 32.8046875 62.94921875 C29.82607368 65.12717454 27.00969499 67.43571774 24.1875 69.8125 C22.67227249 71.08244264 21.15703964 72.35237895 19.64160156 73.62207031 C18.48793981 74.59043244 17.33643544 75.56136776 16.18652344 76.53417969 C14.32414935 78.10081612 12.44540447 79.64563496 10.5625 81.1875 C9.69371216 81.92867065 9.69371216 81.92867065 8.80737305 82.68481445 C4.65491431 86.04483306 4.65491431 86.04483306 1.08984375 85.80078125 C0.40019531 85.53652344 -0.28945312 85.27226562 -1 85 C-1.7578125 82.76171875 -1.7578125 82.76171875 -2 80 C-0.3671875 77.89453125 -0.3671875 77.89453125 2.125 75.8125 C3.51525391 74.64074219 3.51525391 74.64074219 4.93359375 73.4453125 C9.07974708 70.13895328 13.26223479 66.8857118 17.4921875 63.6875 C19.98999165 61.79036166 22.44539772 59.84912452 24.8828125 57.875 C25.53741455 57.34495361 26.1920166 56.81490723 26.86645508 56.26879883 C28.12179068 55.24875006 29.37444368 54.22538672 30.6237793 53.19799805 C34.87238176 49.75190288 39.30389906 46.80326521 44 44 C41.14996638 41.68434769 38.26044005 39.43853156 35.3125 37.25 C31.4175593 34.34148748 27.62460469 31.31950039 23.83984375 28.26953125 C21.16353962 26.13069672 18.4657978 24.02298896 15.76049805 21.92114258 C13.37743257 20.06339192 11.00760915 18.1894849 8.64355469 16.30761719 C7.12338308 15.09816396 5.59710866 13.89639214 4.0703125 12.6953125 C3.24273437 12.01210937 2.41515625 11.32890625 1.5625 10.625 C0.84191406 10.03976563 0.12132812 9.45453125 -0.62109375 8.8515625 C-2 7 -2 7 -1.78515625 4.3984375 C-1 2 -1 2 0 0 Z " fill="#D39A32" transform="translate(131,72)"/>
<path d="M0 0 C2.62881579 -0.47478612 4.37699738 -0.40749041 6.64160156 1.07373047 C8.52230046 2.64379234 10.328596 4.2716226 12.125 5.9375 C13.46904745 7.14304808 14.81410503 8.34747089 16.16015625 9.55078125 C16.8164502 10.1432666 17.47274414 10.73575195 18.14892578 11.34619141 C23.88813615 16.47378453 29.96994993 21.20445461 36.03955078 25.93139648 C36.62462402 26.38716064 37.20969727 26.8429248 37.8125 27.3125 C38.68430908 27.99131226 38.68430908 27.99131226 39.57373047 28.68383789 C44.66881339 32.67972069 49.58972241 36.8618625 54.4699707 41.11645508 C56.91401349 43.24259688 59.29994588 45.19996392 62 47 C61.48096214 51.04303174 59.57452824 52.63738268 56.5625 55.25 C55.65242188 56.04019531 54.74234375 56.83039063 53.8046875 57.64453125 C48.09475851 62.4399173 42.26035856 67.04361169 36.32861328 71.5612793 C31.21270017 75.46176348 26.20795554 79.45018793 21.3125 83.625 C20.77383301 84.08213379 20.23516602 84.53926758 19.68017578 85.01025391 C17.16276219 87.14863601 14.65863062 89.29846245 12.171875 91.47265625 C11.31078125 92.20355469 10.4496875 92.93445313 9.5625 93.6875 C8.82128906 94.33074219 8.08007812 94.97398437 7.31640625 95.63671875 C4.39356811 97.35690511 2.33419354 97.25426224 -1 97 C-1.33 95.68 -1.66 94.36 -2 93 C2.19729375 89.24822905 6.4525653 85.60976659 10.875 82.125 C14.33402167 79.38836548 17.63167061 76.55114487 20.875 73.5625 C24.39823817 70.34204011 28.02078737 67.44038188 31.875 64.625 C36.98414655 60.88579301 41.61238762 56.83567316 46.16748047 52.45361328 C49.7991533 49 49.7991533 49 52 49 C48.14117332 44.98622999 44.03116175 41.47747856 39.6875 38 C38.26035801 36.84903106 36.83327643 35.69798721 35.40625 34.546875 C34.31376953 33.66805664 34.31376953 33.66805664 33.19921875 32.77148438 C29.68643323 29.9419138 26.18718026 27.09575058 22.6875 24.25 C22.02347168 23.71060791 21.35944336 23.17121582 20.67529297 22.61547852 C15.88435144 18.72306181 11.10419354 14.81777139 6.33203125 10.90234375 C3.90058442 8.9189022 1.45319376 6.95645471 -1 5 C-0.67 3.35 -0.34 1.7 0 0 Z " fill="#100A05" transform="translate(95,67)"/>
<path d="M0 0 C2.94041537 1.22440009 4.63184647 2.68336368 6.9140625 4.90625 C10.89440834 8.63856242 14.97516938 12.07681094 19.2890625 15.40625 C24.5500264 19.47787175 29.65888892 23.68298391 34.69335938 28.03100586 C37.3767707 30.32770486 40.09010731 32.51730161 42.95703125 34.58203125 C43.51632324 34.98534668 44.07561523 35.38866211 44.65185547 35.80419922 C46.1950297 36.90186416 47.75142965 37.98086698 49.30859375 39.05859375 C50.02402344 39.70957031 50.73945313 40.36054687 51.4765625 41.03125 C51.4765625 45.03125 51.4765625 45.03125 49.24609375 47.3203125 C48.27027344 48.09117188 47.29445312 48.86203125 46.2890625 49.65625 C44.84466797 50.82027344 44.84466797 50.82027344 43.37109375 52.0078125 C40.75869408 53.83402442 38.47817329 55.01059258 35.4765625 56.03125 C34.8165625 53.72125 34.1565625 51.41125 33.4765625 49.03125 C34.76621426 47.65562146 36.10345543 46.32358607 37.4765625 45.03125 C38.1365625 45.03125 38.7965625 45.03125 39.4765625 45.03125 C39.4765625 43.71125 39.4765625 42.39125 39.4765625 41.03125 C38.93902344 40.79148438 38.40148437 40.55171875 37.84765625 40.3046875 C29.63975659 35.89649098 22.4247389 29.13273018 15.6640625 22.78125 C7.30045515 14.09411802 7.30045515 14.09411802 -3.5234375 10.03125 C-2.11447837 14.79285285 0.27303431 16.90108121 4.1015625 19.96875 C4.63773193 20.401875 5.17390137 20.835 5.72631836 21.28125 C10.84165957 25.39008094 16.01680385 29.3914109 21.4765625 33.03125 C21.4765625 33.69125 21.4765625 34.35125 21.4765625 35.03125 C18.26166132 36.63870059 16.0464554 36.43430242 12.4765625 36.03125 C6.00712291 32.82490494 0.93252985 26.63991097 -4.04345703 21.52661133 C-4.5795459 20.97642334 -5.11563477 20.42623535 -5.66796875 19.859375 C-6.14596924 19.3634082 -6.62396973 18.86744141 -7.11645508 18.35644531 C-8.6928476 16.79792415 -8.6928476 16.79792415 -11.5234375 15.03125 C-12.20072699 11.58001835 -11.67965107 10.26744219 -9.73046875 7.3203125 C-8.94027344 6.44117187 -8.15007812 5.56203125 -7.3359375 4.65625 C-6.55863281 3.76164062 -5.78132813 2.86703125 -4.98046875 1.9453125 C-2.5234375 0.03125 -2.5234375 0.03125 0 0 Z " fill="#DA912F" transform="translate(79.5234375,72.96875)"/>
<path d="M0 0 C0.66 0 1.32 0 2 0 C3.38232443 1.62626404 4.71937515 3.2925002 6 5 C0.53059523 10.15717497 -4.92671698 15.05632826 -11 19.5 C-16.05543102 23.20036704 -20.60375564 27.23348415 -25.18359375 31.5 C-29.12563729 34.99917874 -33.30808926 38.08651494 -37.56640625 41.1875 C-40.02046167 42.92397235 -40.02046167 42.92397235 -42 45 C-42 45.99 -42 46.98 -42 48 C-39.34065953 48.59130428 -39.34065953 48.59130428 -36 48 C-33.08465023 45.91536818 -30.53782875 43.52494637 -28 41 C-27.34 41.33 -26.68 41.66 -26 42 C-26 43.33333333 -26 44.66666667 -26 46 C-25.34 46.33 -24.68 46.66 -24 47 C-24.58007812 47.556875 -25.16015625 48.11375 -25.7578125 48.6875 C-30.14725634 52.97553755 -34.1410369 57.20583763 -37.61328125 62.2734375 C-39.88220899 65.09841232 -41.84666089 66.76156932 -45.4375 67.50390625 C-52.27036544 67.66014555 -52.27036544 67.66014555 -55.625 64.625 C-57.4427734 59.8326883 -58.24098207 56.04006215 -57 51 C-53.38177865 45.13829048 -47.9468217 40.93948274 -42.48046875 36.875 C-39.59425964 34.69329862 -36.83283761 32.38944171 -34.0625 30.0625 C-30.43217202 27.01524027 -26.77789839 24.00586755 -23.0625 21.0625 C-20.22088136 18.80943667 -17.42061514 16.51988971 -14.6640625 14.1640625 C-14.087771 13.67156006 -13.51147949 13.17905762 -12.91772461 12.67163086 C-11.79323208 11.70707744 -10.67148504 10.73931076 -9.55297852 9.76782227 C-7.15462904 7.7090621 -4.86860491 5.92550129 -2.11328125 4.36328125 C-1.41589844 3.91339844 -0.71851563 3.46351562 0 3 C0 2.01 0 1.02 0 0 Z " fill="#CD8022" transform="translate(136,115)"/>
<path d="M0 0 C3.23435857 -0.35294432 4.69314577 -0.19632854 7.47265625 1.58203125 C8.75462891 2.68611328 8.75462891 2.68611328 10.0625 3.8125 C11.02800781 4.63621094 11.99351563 5.45992188 12.98828125 6.30859375 C16.46472679 9.3826573 19.83808208 12.56761262 23.21020508 15.75537109 C27.88566785 20.08503576 32.98821814 23.75014122 38.27636719 27.29638672 C40.140625 28.58984375 40.140625 28.58984375 43 31 C43 32.32 43 33.64 43 35 C40.93427665 36.91494062 38.94922355 38.53667498 36.6875 40.1875 C35.38855848 41.16956264 34.09038914 42.1526474 32.79296875 43.13671875 C32.14634277 43.62188965 31.4997168 44.10706055 30.83349609 44.60693359 C28.33392994 46.50607134 25.91582566 48.4958397 23.5 50.5 C21.66739374 52.00088821 19.8340011 53.50081654 18 55 C17.4215332 55.47566406 16.84306641 55.95132813 16.24707031 56.44140625 C14.3806295 57.97053848 12.50393073 59.4862533 10.625 61 C10.04169922 61.48146484 9.45839844 61.96292969 8.85742188 62.45898438 C5.6334192 65.03595537 3.15397722 66.62660879 -1 67 C-1.265625 64.765625 -1.265625 64.765625 -1 62 C0.765625 59.859375 0.765625 59.859375 3.25 57.75 C4.62285156 56.58017578 4.62285156 56.58017578 6.0234375 55.38671875 C9.90662398 52.2730351 13.88018235 49.29763148 17.8828125 46.33984375 C21.22632715 43.83011283 24.50795374 41.26381861 27.75 38.625 C28.75546875 37.81289062 29.7609375 37.00078125 30.796875 36.1640625 C31.52390625 35.44992188 32.2509375 34.73578125 33 34 C33 33.01 33 32.02 33 31 C30.92362601 28.93257442 30.92362601 28.93257442 28.1875 26.875 C27.18332031 26.0809375 26.17914063 25.286875 25.14453125 24.46875 C24.10683594 23.6540625 23.06914063 22.839375 22 22 C20.12162422 20.4624482 18.24650341 18.92090947 16.375 17.375 C12.23035455 13.97960179 8.03289016 10.66530296 3.77734375 7.41015625 C2 6 2 6 0 4 C0 2.68 0 1.36 0 0 Z " fill="#0F0A06" transform="translate(76,83)"/>
<path d="M0 0 C2 1.375 2 1.375 4 3 C4 3.66 4 4.32 4 5 C4.5775 5.26941406 5.155 5.53882812 5.75 5.81640625 C12.81174094 9.53117622 18.61482232 15.40790414 24.41162109 20.8059082 C28.57246395 24.66164015 32.91328689 28.2467375 37.33203125 31.8046875 C40.91300166 34.75125466 44.33370151 37.85862211 47.76171875 40.98046875 C50.44612148 43.40252147 53.19881784 45.71482508 56 48 C54.73888099 51.78335703 53.32372257 52.40206288 50.0625 54.625 C46.19070247 57.35568861 42.60088021 60.15595823 39.125 63.375 C34.95120374 67.22570619 30.5683804 70.70109722 26.04101562 74.11743164 C21.95256578 77.22040173 18.02011287 80.47084972 14.125 83.8125 C9.89162408 87.44371469 5.62672673 90.87964942 1 94 C1 93.34 1 92.68 1 92 C0.34 91.67 -0.32 91.34 -1 91 C5.29282519 85.22588925 11.72017108 79.68001986 18.36767578 74.31884766 C20.21632161 72.82522146 22.05959114 71.32510929 23.90234375 69.82421875 C27.31470321 67.04507648 30.73174841 64.27178244 34.15087891 61.50097656 C35.8054285 60.15793842 37.45607313 58.8102945 39.10546875 57.4609375 C39.97816406 56.75195312 40.85085937 56.04296875 41.75 55.3125 C42.48734375 54.71050781 43.2246875 54.10851562 43.984375 53.48828125 C45.92081406 52.05846869 47.81507234 50.99896467 50 50 C50 48.68 50 47.36 50 46 C49.41009277 45.72470459 48.82018555 45.44940918 48.21240234 45.16577148 C46.0981876 44.05173756 44.43683658 42.86807816 42.6015625 41.34765625 C41.96468506 40.82429688 41.32780762 40.3009375 40.67163086 39.76171875 C39.99624268 39.20097656 39.32085449 38.64023438 38.625 38.0625 C37.18183849 36.87526942 35.73781297 35.68908842 34.29296875 34.50390625 C33.57028809 33.91109863 32.84760742 33.31829102 32.10302734 32.70751953 C29.6402857 30.70793571 27.1439093 28.75631321 24.63500977 26.81518555 C21.73610073 24.56918771 18.86564218 22.28821374 16 20 C15.32388672 19.46310547 14.64777344 18.92621094 13.95117188 18.37304688 C11.84557622 16.68585845 9.76458577 14.97211095 7.6875 13.25 C7.03450928 12.73115234 6.38151855 12.21230469 5.70874023 11.67773438 C2.31650922 8.81595139 1.13850549 7.58702751 0.08203125 3.109375 C0.05496094 2.08328125 0.02789062 1.0571875 0 0 Z " fill="#15110E" transform="translate(81,68)"/>
<path d="M0 0 C0.495 1.485 0.495 1.485 1 3 C0.2575 3.680625 -0.485 4.36125 -1.25 5.0625 C-4.24573107 8.0327716 -5.98203632 11.31199741 -8 15 C-8.66 15.66 -9.32 16.32 -10 17 C-10.66 17.86625 -11.32 18.7325 -12 19.625 C-14.95846515 23.1940786 -18.45431886 25.88096566 -22.11328125 28.703125 C-24.2425106 30.39728854 -26.2713548 32.10789263 -28.29296875 33.921875 C-28.85628906 34.42114502 -29.41960937 34.92041504 -30 35.43481445 C-31.09995309 36.41430104 -32.19038967 37.40461311 -33.26953125 38.40698242 C-37.065671 41.75304593 -39.98196546 42.70333632 -45 43 C-47 40 -47 40 -46.875 37.5625 C-43.69382933 28.24621447 -28.74558443 20.31312157 -21.078125 14.55981445 C-19.65864911 13.49437373 -18.24210498 12.42501872 -16.828125 11.35229492 C-16.12945312 10.8235376 -15.43078125 10.29478027 -14.7109375 9.75 C-14.08751465 9.27691406 -13.4640918 8.80382812 -12.82177734 8.31640625 C-8.92023122 5.49717056 -4.83263893 2.77322223 0 2 C0 1.34 0 0.68 0 0 Z " fill="#E5972C" transform="translate(175,131)"/>
<path d="M0 0 C3.76711422 1.30374909 6.18678433 2.8197654 9.0625 5.5625 C12.50875294 8.72917282 16.04450947 11.59832635 19.8125 14.375 C23.93638102 17.41584156 27.90755455 20.5578958 31.8125 23.875 C37.55789962 28.72599704 43.55551327 33.1577534 49.65234375 37.5546875 C55.50460342 41.81238478 55.50460342 41.81238478 58 44 C58 44.66 58 45.32 58 46 C56.34985352 47.26391602 56.34985352 47.26391602 54.06640625 48.69140625 C49.14797222 51.86418594 44.54072821 55.32720281 39.9375 58.9375 C39.18662109 59.51951172 38.43574219 60.10152344 37.66210938 60.70117188 C33.24537747 64.14828416 28.99634275 67.73082234 24.80200195 71.4440918 C22.50794177 73.42485938 20.1035947 75.19485726 17.625 76.9375 C12.25952195 80.77212837 7.10962709 84.83249504 2 89 C1.34 88.67 0.68 88.34 0 88 C1.1543157 84.53705291 2.00568379 83.98869557 4.875 81.875 C8.37855866 79.23767553 11.80741832 76.54420086 15.1875 73.75 C19.41411836 70.27412364 23.68958478 66.87058992 28 63.5 C32.41249103 60.04141414 36.81917063 56.57678347 41.1875 53.0625 C42.04730469 52.37285156 42.90710938 51.68320313 43.79296875 50.97265625 C45.86732791 49.11858301 47.42949737 47.28669276 49 45 C47.45975055 40.73469384 44.25391128 38.61078525 40.75 36 C35.67413765 32.12356412 30.75057487 28.1357215 25.9375 23.9375 C20.42943719 19.15006767 14.76450062 14.64645391 8.9375 10.25390625 C7.968125 9.51011719 6.99875 8.76632813 6 8 C5.43667969 7.57444824 4.87335938 7.14889648 4.29296875 6.71044922 C2.80465774 5.54324044 1.39529728 4.27694617 0 3 C0 2.01 0 1.02 0 0 Z " fill="#19120C" transform="translate(135,71)"/>
<path d="M0 0 C14.26470588 -0.44117647 14.26470588 -0.44117647 20 3 C22.66836411 7.00254616 22.8340238 10.29313299 22 15 C19.81840855 17.75569447 18.12822506 19.43588747 15 21 C12.44612508 21.07173806 9.92723239 21.09287732 7.375 21.0625 C4.94125 21.041875 2.5075 21.02125 0 21 C0 14.07 0 7.14 0 0 Z " fill="#050405" transform="translate(583,80)"/>
<path d="M0 0 C3.89533813 0.28189947 6.4851225 2.63176707 9.5 4.9375 C10.02118408 5.33501465 10.54236816 5.7325293 11.0793457 6.14208984 C15.88813027 9.84226456 20.5360562 13.72495709 25.1640625 17.6484375 C27.73729654 19.782166 30.36955506 21.77168769 33.0625 23.75 C36.54536262 26.41893277 38.52233725 28.76403345 40 33 C40 33.66 40 34.32 40 35 C32.55042037 33.72292921 27.79371712 30.57627331 21.9375 26 C21.19032715 25.4227417 20.4431543 24.8454834 19.67333984 24.25073242 C14.11539549 19.93311356 8.67981714 15.48658534 3.3203125 10.92578125 C0.95574889 8.89498813 0.95574889 8.89498813 -2 7 C-2.3125 4.5 -2.3125 4.5 -2 2 C-1.34 1.34 -0.68 0.68 0 0 Z " fill="#DBA433" transform="translate(130,58)"/>
<path d="M0 0 C0.67160156 0.69867188 1.34320313 1.39734375 2.03515625 2.1171875 C5.29763617 5.37623202 8.84459282 8.24077357 12.4375 11.125 C13.13762207 11.68977051 13.83774414 12.25454102 14.55908203 12.83642578 C16.70259888 14.56197862 18.85045879 16.28195965 21 18 C21.96462158 18.7724707 21.96462158 18.7724707 22.94873047 19.56054688 C29.4908517 24.78874773 36.05647366 29.88670498 43.01171875 34.5625 C44.87730018 35.91128972 46.42845349 37.32368373 48 39 C47.175 39.57105469 46.35 40.14210937 45.5 40.73046875 C38.06500334 45.93071286 30.92748374 51.3917756 23.9230957 57.15844727 C18.56875171 61.56302718 13.10623989 65.79804716 7.57421875 69.9765625 C2.88817741 73.60459505 2.88817741 73.60459505 1 79 C0.566875 78.0409375 0.566875 78.0409375 0.125 77.0625 C-0.82823451 74.84793921 -0.82823451 74.84793921 -3 74 C3.56667268 68.53259411 10.24382645 63.23008642 17 58 C28.38905707 49.44984809 28.38905707 49.44984809 39 40 C38.8282104 37.29015763 38.22362276 36.21855195 36.27734375 34.31640625 C35.50519531 33.73761719 34.73304688 33.15882812 33.9375 32.5625 C33.03 31.86640625 32.1225 31.1703125 31.1875 30.453125 C30.67960937 30.06576172 30.17171875 29.67839844 29.6484375 29.27929688 C27.20596367 27.38377512 24.8244937 25.41618079 22.43579102 23.45361328 C13.45777147 16.08033932 4.26571992 9.00662732 -5 2 C-4.360625 1.855625 -3.72125 1.71125 -3.0625 1.5625 C-1.02454854 1.18992819 -1.02454854 1.18992819 0 0 Z " fill="#14100D" transform="translate(128,77)"/>
<path d="M0 0 C0 3.9765245 -1.38011503 5.0890167 -4 8 C-7.51724138 11 -7.51724138 11 -10 11 C-10 11.66 -10 12.32 -10 13 C-11.32 13 -12.64 13 -14 13 C-14 14.32 -14 15.64 -14 17 C-13.01 17 -12.02 17 -11 17 C-11 16.34 -11 15.68 -11 15 C-10.34 15 -9.68 15 -9 15 C-10.12672419 18.38017256 -10.72008232 18.78636769 -13.5 20.8125 C-19.15334087 25.05250565 -24.55772284 29.57257229 -29.97070312 34.11254883 C-37.24353573 40.15912872 -37.24353573 40.15912872 -41 42 C-43.8125 41.6875 -43.8125 41.6875 -46 41 C-44.5646688 35.69124076 -41.18932485 33.1352644 -37.125 29.75 C-36.44808105 29.17499756 -35.77116211 28.59999512 -35.07373047 28.00756836 C-30.27783981 23.96996369 -25.33340358 20.17796234 -20.2734375 16.4765625 C-13.29004037 11.28241052 -6.6826536 5.57165648 0 0 Z " fill="#D88F2E" transform="translate(154,119)"/>
<path d="M0 0 C0.66 0 1.32 0 2 0 C3.14932542 3.89481176 4.29384604 7.79101948 5.4375 11.6875 C5.76298828 12.79029297 6.08847656 13.89308594 6.42382812 15.02929688 C6.73642578 16.09599609 7.04902344 17.16269531 7.37109375 18.26171875 C7.65911865 19.24100342 7.94714355 20.22028809 8.24389648 21.22924805 C8.94300528 23.79114204 9.4791998 26.39599902 10 29 C4.72 29 -0.56 29 -6 29 C-5.50033438 21.8797649 -3.85385752 15.30128496 -1.9375 8.453125 C-1.17381439 5.64021634 -0.52486263 2.86487516 0 0 Z " fill="#0E0B0C" transform="translate(530,81)"/>
<path d="M0 0 C0.66 0 1.32 0 2 0 C3.14932542 3.89481176 4.29384604 7.79101948 5.4375 11.6875 C5.76298828 12.79029297 6.08847656 13.89308594 6.42382812 15.02929688 C6.73642578 16.09599609 7.04902344 17.16269531 7.37109375 18.26171875 C7.65911865 19.24100342 7.94714355 20.22028809 8.24389648 21.22924805 C8.94300528 23.79114204 9.4791998 26.39599902 10 29 C4.72 29 -0.56 29 -6 29 C-5.50033438 21.8797649 -3.85385752 15.30128496 -1.9375 8.453125 C-1.17381439 5.64021634 -0.52486263 2.86487516 0 0 Z " fill="#0D0A0B" transform="translate(354,81)"/>
<path d="M0 0 C-0.59707646 3.84089481 -2.38903944 6.08150862 -4.8125 9.0625 C-5.49957031 9.91972656 -6.18664062 10.77695313 -6.89453125 11.66015625 C-11.55137146 16.83538312 -11.55137146 16.83538312 -15.578125 17.29296875 C-16.45984375 17.25816406 -17.3415625 17.22335938 -18.25 17.1875 C-19.14203125 17.16042969 -20.0340625 17.13335937 -20.953125 17.10546875 C-21.62859375 17.07066406 -22.3040625 17.03585938 -23 17 C-23.144375 16.401875 -23.28875 15.80375 -23.4375 15.1875 C-23.8872439 13.43849596 -24.42892341 11.71322977 -25 10 C-25.25 6.4375 -25.25 6.4375 -25 3 C-24.01 2.34 -23.02 1.68 -22 1 C-21.34 3.64 -20.68 6.28 -20 9 C-17.6147267 9.12815365 -17.6147267 9.12815365 -15 8 C-14.00364641 6.15549423 -14.00364641 6.15549423 -13.1875 4 C-11.53734667 0.21952577 -11.53734667 0.21952577 -9.078125 -0.78515625 C-5.74243141 -1.21733553 -3.1902953 -1.06343177 0 0 Z " fill="#D58120" transform="translate(106,165)"/>
<path d="M0 0 C5.54439461 3.99596008 5.54439461 3.99596008 6.5859375 7.1484375 C6.67488281 7.73882812 6.76382813 8.32921875 6.85546875 8.9375 C-0.46475048 15.77851752 -8.13976672 21.92765328 -16.14453125 27.9375 C-16.74265625 27.6075 -17.34078125 27.2775 -17.95703125 26.9375 C-20.19839596 25.72962012 -20.19839596 25.72962012 -23.14453125 25.9375 C-16.35456409 19.63806279 -9.46500077 13.62237655 -2.14453125 7.9375 C-3.3738714 4.24947956 -5.08312503 3.21393027 -8.14453125 0.9375 C-5.1094071 -0.73181828 -3.21977771 -1.59522684 0 0 Z " fill="#D58B23" transform="translate(103.14453125,108.0625)"/>
<path d="M0 0 C3.23435857 -0.35294432 4.69314577 -0.19632854 7.47265625 1.58203125 C8.75462891 2.68611328 8.75462891 2.68611328 10.0625 3.8125 C11.01769531 4.62847656 11.97289063 5.44445312 12.95703125 6.28515625 C16.61540973 9.52136853 20.19893123 12.83935232 23.77270508 16.16845703 C27.33265599 19.46189699 30.95500954 22.33398356 35 25 C33.68 26.65 32.36 28.3 31 30 C30.26136719 29.29875 29.52273437 28.5975 28.76171875 27.875 C22.95073137 22.41923577 17.07500996 17.45915074 10.55859375 12.84375 C8.07160084 11.05159633 5.67172511 9.20703735 3.3125 7.25 C2.66925781 6.71890625 2.02601562 6.1878125 1.36328125 5.640625 C0 4 0 4 0 0 Z " fill="#120E0A" transform="translate(76,83)"/>
<path d="M0 0 C0 3.38023517 -0.87455622 5.83468937 -2 9 C-1.01 9.33 -0.02 9.66 1 10 C-1.10253933 11.79360702 -3.20694333 13.58494119 -5.3125 15.375 C-6.20485352 16.13683594 -6.20485352 16.13683594 -7.11523438 16.9140625 C-7.69208984 17.40390625 -8.26894531 17.89375 -8.86328125 18.3984375 C-9.65665894 19.07398682 -9.65665894 19.07398682 -10.46606445 19.76318359 C-11.91162467 20.92874273 -13.45494456 21.96996304 -15 23 C-17.6875 22.625 -17.6875 22.625 -20 22 C-20.765625 19.76953125 -20.765625 19.76953125 -21 17 C-19.296875 14.82421875 -19.296875 14.82421875 -16.75 12.6875 C-15.83992187 11.91921875 -14.92984375 11.1509375 -13.9921875 10.359375 C-9.42867757 6.7609938 -4.76578066 3.32517396 0 0 Z " fill="#D68F2C" transform="translate(150,135)"/>
<path d="M0 0 C0.78117187 1.06927734 0.78117187 1.06927734 1.578125 2.16015625 C4.35679836 5.41837485 7.3583122 7.85311921 10.75 10.4375 C11.36891113 10.91759521 11.98782227 11.39769043 12.62548828 11.89233398 C16.00308284 14.50438168 19.42232112 17.05033579 22.875 19.5625 C23.90625 20.366875 24.9375 21.17125 26 22 C26 22.66 26 23.32 26 24 C22.78509882 25.60745059 20.5698929 25.40305242 17 25 C13.97847732 23.39097776 11.53998015 21.27994562 9 19 C8.16082031 18.25363281 7.32164063 17.50726563 6.45703125 16.73828125 C1.64910669 12.22852255 1.64910669 12.22852255 0 10 C0.25390625 7.7265625 0.25390625 7.7265625 1 6 C0.34 5.67 -0.32 5.34 -1 5 C-0.67 3.35 -0.34 1.7 0 0 Z " fill="#D78822" transform="translate(75,84)"/>
<path d="M0 0 C4.44875508 0.07188294 6.96385063 1.28276961 10.3125 4.3125 C11.6875 7.5625 11.6875 7.5625 12.3125 10.3125 C11.6525 9.9825 10.9925 9.6525 10.3125 9.3125 C10.3125 8.6525 10.3125 7.9925 10.3125 7.3125 C8.9925 7.6425 7.6725 7.9725 6.3125 8.3125 C6.18875 9.09625 6.065 9.88 5.9375 10.6875 C5.3125 13.3125 5.3125 13.3125 3.3125 15.3125 C0.6875 14.9375 0.6875 14.9375 -1.6875 14.3125 C-2.3125 12 -2.3125 12 -2.6875 9.3125 C-2.0275 8.3225 -1.3675 7.3325 -0.6875 6.3125 C-3.3275 6.9725 -5.9675 7.6325 -8.6875 8.3125 C-8.6875 10.9525 -8.6875 13.5925 -8.6875 16.3125 C-9.0175 16.3125 -9.3475 16.3125 -9.6875 16.3125 C-10.47484859 7.30173284 -10.47484859 7.30173284 -7.25 3.25 C-6.404375 2.610625 -5.55875 1.97125 -4.6875 1.3125 C-3.6875 0.3125 -3.6875 0.3125 0 0 Z " fill="#D59D2A" transform="translate(88.6875,48.6875)"/>
<path d="M0 0 C2.93377091 1.13138745 4.38098747 2.4537734 6.33984375 4.90234375 C7.08984375 7.15234375 7.08984375 7.15234375 7.33984375 8.90234375 C5.04354381 10.05049372 3.26286289 10.21004184 0.71484375 10.46484375 C-0.10242188 10.54863281 -0.9196875 10.63242188 -1.76171875 10.71875 C-2.38820313 10.77933594 -3.0146875 10.83992188 -3.66015625 10.90234375 C-4.35175026 12.74959427 -4.35175026 12.74959427 -4.66015625 14.90234375 C-3.67015625 16.38734375 -3.67015625 16.38734375 -2.66015625 17.90234375 C-2.99015625 18.56234375 -3.32015625 19.22234375 -3.66015625 19.90234375 C-6.61824083 18.52894734 -9.30155189 17.17671224 -11.66015625 14.90234375 C-12.22450688 11.45089412 -11.81622794 10.13832143 -9.8671875 7.19140625 C-9.07699219 6.31226562 -8.28679687 5.433125 -7.47265625 4.52734375 C-6.69535156 3.63273437 -5.91804688 2.738125 -5.1171875 1.81640625 C-2.66015625 -0.09765625 -2.66015625 -0.09765625 0 0 Z " fill="#D99B21" transform="translate(79.66015625,73.09765625)"/>
<path d="M0 0 C3.36573933 1.44245971 5.75010389 3.083468 8 6 C7.75 8.75 7.75 8.75 7 11 C7.66 11 8.32 11 9 11 C9 11.99 9 12.98 9 14 C11.97 14.495 11.97 14.495 15 15 C15 15.66 15 16.32 15 17 C15.7425 17.0825 16.485 17.165 17.25 17.25 C20.6427671 18.17530012 21.93127504 19.16508061 24 22 C24.25 25.25 24.25 25.25 24 28 C24.99 28.33 25.98 28.66 27 29 C26.34 29.33 25.68 29.66 25 30 C19.40445514 25.67954611 14.04196303 21.19475628 8.875 16.375 C4.45451496 12.25308165 -0.07348034 8.50540822 -5 5 C-4.360625 4.731875 -3.72125 4.46375 -3.0625 4.1875 C-0.66868314 3.11332248 -0.66868314 3.11332248 0 0 Z " fill="#CF8828" transform="translate(86,79)"/>
<path d="M0 0 C1.32 0 2.64 0 4 0 C5 2.5625 5 2.5625 5 6 C2.7611698 8.84081174 -0.11957577 10.8418443 -3 13 C-4.53527344 14.22783203 -4.53527344 14.22783203 -6.1015625 15.48046875 C-12.15953065 20.24942926 -12.15953065 20.24942926 -15 22 C-15.99 21.67 -16.98 21.34 -18 21 C-18 21.66 -18 22.32 -18 23 C-18.99 23 -19.98 23 -21 23 C-21 21.68 -21 20.36 -21 19 C-19.68 19 -18.36 19 -17 19 C-17 18.34 -17 17.68 -17 17 C-15.63875 16.1028125 -15.63875 16.1028125 -14.25 15.1875 C-10.44629843 12.62731625 -7.88098349 10.05562814 -6.0625 5.8125 C-4.56464535 3.25733619 -2.74897234 2.86809653 0 2 C0 1.34 0 0.68 0 0 Z " fill="#DE9F39" transform="translate(161,113)"/>
<path d="M0 0 C1.32 0 2.64 0 4 0 C4 0.66 4 1.32 4 2 C4.66 2.33 5.32 2.66 6 3 C1.42828775 7.25147153 -3.24040369 11.33162948 -8.25 15.0625 C-9.43335937 15.94615234 -9.43335937 15.94615234 -10.640625 16.84765625 C-13.54849365 18.26789011 -14.96490939 17.94173911 -18 17 C-17.3125 14.5625 -17.3125 14.5625 -16 12 C-13.4375 11.3125 -13.4375 11.3125 -11 11 C-10.67 10.34 -10.34 9.68 -10 9 C-9.2575 8.5875 -8.515 8.175 -7.75 7.75 C-5.23935617 6.15231756 -4.17926654 5.10429808 -2.4375 2.8125 C-1.633125 1.884375 -0.82875 0.95625 0 0 Z " fill="#D0862C" transform="translate(126,143)"/>
<path d="M0 0 C0.66 0.33 1.32 0.66 2 1 C2 2.33333333 2 3.66666667 2 5 C2.66 5.33 3.32 5.66 4 6 C2.02 7.65 0.04 9.3 -2 11 C-2.33 10.34 -2.66 9.68 -3 9 C-6.3 9 -9.6 9 -13 9 C-13.268125 9.9075 -13.53625 10.815 -13.8125 11.75 C-14.89576294 14.71471963 -15.98359457 16.6169754 -18 19 C-19.65 18.67 -21.3 18.34 -23 18 C-22.25 13.25 -22.25 13.25 -20 11 C-18.66666667 10.33333333 -17.33333333 9.66666667 -16 9 C-15.34 8.34 -14.68 7.68 -14 7 C-12.700625 7.1546875 -12.700625 7.1546875 -11.375 7.3125 C-6.22791095 6.83591768 -3.55823112 3.54016903 0 0 Z " fill="#C07925" transform="translate(108,156)"/>
<path d="M0 0 C4.24360198 0.50760789 6.81072203 3.14789478 9.875 5.875 C15.25828237 10.55800537 20.76754349 15.02520856 26.41748047 19.38232422 C29.09825015 21.45994015 31.68968279 23.50944528 34 26 C33.01 26.495 33.01 26.495 32 27 C28.14296229 25.669987 25.68537056 22.98374507 23 20 C23 19.34 23 18.68 23 18 C22.2575 17.896875 21.515 17.79375 20.75 17.6875 C17.8026481 16.95066203 16.21616926 16.05200858 14 14 C14 13.34 14 12.68 14 12 C12.35 11.67 10.7 11.34 9 11 C9 10.34 9 9.68 9 9 C6.03 8.505 6.03 8.505 3 8 C3 7.01 3 6.02 3 5 C2.34 5 1.68 5 1 5 C1 4.34 1 3.68 1 3 C0.34 2.67 -0.32 2.34 -1 2 C-0.67 1.34 -0.34 0.68 0 0 Z " fill="#CA9833" transform="translate(92,85)"/>
<path d="M0 0 C5.32238009 2.97427122 9.82496762 6.38377499 13.5625 11.1875 C16.06989274 14.08064547 17.49424402 14.7682479 21 16 C23 19 23 19 22.625 21.1875 C22.315625 22.0846875 22.315625 22.0846875 22 23 C20.0625 22.6875 20.0625 22.6875 18 22 C17.67 21.01 17.34 20.02 17 19 C16.360625 18.855625 15.72125 18.71125 15.0625 18.5625 C14.381875 18.376875 13.70125 18.19125 13 18 C11.9375 16.0625 11.9375 16.0625 11 14 C10.01 13.34 9.02 12.68 8 12 C8 11.01 8 10.02 8 9 C6.02 8.34 4.04 7.68 2 7 C2 5.35 2 3.7 2 2 C1.34 2 0.68 2 0 2 C0 1.34 0 0.68 0 0 Z " fill="#DE9526" transform="translate(121,96)"/>
<path d="M0 0 C0.66 0.33 1.32 0.66 2 1 C1.34 1.66 0.68 2.32 0 3 C0.05542969 3.76957031 0.11085938 4.53914062 0.16796875 5.33203125 C0 8 0 8 -2.01171875 10.38671875 C-2.89472656 11.14597656 -3.77773437 11.90523437 -4.6875 12.6875 C-5.99267578 13.83798828 -5.99267578 13.83798828 -7.32421875 15.01171875 C-9.85075527 16.88910136 -12.03316027 18.00036211 -15 19 C-15.66 17.35 -16.32 15.7 -17 14 C-15.10468802 12.41603911 -13.2087674 10.8328164 -11.3125 9.25 C-10.51682617 8.58484375 -10.51682617 8.58484375 -9.70507812 7.90625 C-6.49999369 5.23206912 -3.26917914 2.59593445 0 0 Z " fill="#B36D19" transform="translate(113,136)"/>
<path d="M0 0 C2 3 2 3 2 7 C-1.85398875 11.72424427 -6.88904322 14.75972021 -12 18 C-12.33 17.34 -12.66 16.68 -13 16 C-14.65 16.33 -16.3 16.66 -18 17 C-14.16713416 13.10938854 -10.21140271 9.37944195 -6.1875 5.6875 C-5.2912793 4.86282227 -5.2912793 4.86282227 -4.37695312 4.02148438 C-2.91885078 2.68003022 -1.4595496 1.33987935 0 0 Z " fill="#C07016" transform="translate(98,118)"/>
<path d="M0 0 C-1.54771799 4.05928432 -4.18900089 5.99481425 -7.5625 8.625 C-11.33561389 11.35008705 -11.33561389 11.35008705 -14 15 C-13.34 15 -12.68 15 -12 15 C-12 15.66 -12 16.32 -12 17 C-13.65 16.67 -15.3 16.34 -17 16 C-17.71875 13.75390625 -17.71875 13.75390625 -18 11 C-14.50607091 5.78822244 -6.54525206 -2.18175069 0 0 Z " fill="#CA7816" transform="translate(86,134)"/>
<path d="M0 0 C1.32 0 2.64 0 4 0 C4 0.66 4 1.32 4 2 C3.34 2 2.68 2 2 2 C1.86851562 3.11955078 1.86851562 3.11955078 1.734375 4.26171875 C0.86085094 7.51884837 -0.22058721 8.63016829 -2.75 10.8125 C-3.76320312 11.71935547 -3.76320312 11.71935547 -4.796875 12.64453125 C-7.40779596 14.25089574 -8.98829554 14.2685261 -12 14 C-12.3125 11.8125 -12.3125 11.8125 -12 9 C-8.83559101 5.09102419 -5.53905101 3.063205 -1 1 C-0.67 0.67 -0.34 0.34 0 0 Z " fill="#DE9931" transform="translate(160,130)"/>
<path d="M0 0 C0.66 0.33 1.32 0.66 2 1 C1.4946875 1.54269531 0.989375 2.08539063 0.46875 2.64453125 C-0.1809375 3.35996094 -0.830625 4.07539063 -1.5 4.8125 C-2.1496875 5.52019531 -2.799375 6.22789062 -3.46875 6.95703125 C-5.29987759 8.97457093 -5.29987759 8.97457093 -5 12 C-6.62449243 13.70779973 -8.29220027 15.37550757 -10 17 C-10.33 17.66 -10.66 18.32 -11 19 C-9.68 19.33 -8.36 19.66 -7 20 C-9.31 20.33 -11.62 20.66 -14 21 C-16 18 -16 18 -15.921875 15.59765625 C-14.71585352 12.19933301 -12.9848981 10.76378166 -10.25 8.4375 C-9.38890625 7.69371094 -8.5278125 6.94992188 -7.640625 6.18359375 C-5.11473871 4.09488009 -2.56790287 2.03677188 0 0 Z M-8 10 C-7.67 10.66 -7.34 11.32 -7 12 C-6.67 11.34 -6.34 10.68 -6 10 C-6.66 10 -7.32 10 -8 10 Z " fill="#E58D23" transform="translate(144,153)"/>
<path d="M0 0 C1.875 0.25 1.875 0.25 4 1 C5.1328125 3.046875 5.1328125 3.046875 6 5 C2.38748484 9.56048012 -0.98797445 13.01665146 -6 16 C-6.6875 14.3125 -6.6875 14.3125 -7 12 C-5.5625 9.25 -5.5625 9.25 -4 7 C-4.66 6.67 -5.32 6.34 -6 6 C-5.195625 5.7525 -4.39125 5.505 -3.5625 5.25 C-0.828919 4.27761141 -0.828919 4.27761141 -0.1875 1.875 C-0.125625 1.25625 -0.06375 0.6375 0 0 Z " fill="#D79931" transform="translate(179,111)"/>
<path d="M0 0 C1.32 0 2.64 0 4 0 C4 0.66 4 1.32 4 2 C4.99 1.67 5.98 1.34 7 1 C10.1875 2.8125 10.1875 2.8125 13 5 C13 5.66 13 6.32 13 7 C13.66 7 14.32 7 15 7 C15.061875 7.78375 15.12375 8.5675 15.1875 9.375 C15.455625 10.24125 15.72375 11.1075 16 12 C18.47130918 13.15521502 18.47130918 13.15521502 21 14 C21.33 14.99 21.66 15.98 22 17 C23.49985609 18.66710346 23.49985609 18.66710346 25 20 C20.87255657 20 19.95305417 18.38249504 17 15.5625 C12.18416342 11.02615029 7.19872734 6.83646973 2.01953125 2.71484375 C1.35308594 2.14894531 0.68664062 1.58304687 0 1 C0 0.67 0 0.34 0 0 Z " fill="#DE941D" transform="translate(108,91)"/>
<path d="M0 0 C1.65 0 3.3 0 5 0 C5.33 0.99 5.66 1.98 6 3 C5.01 3.66 4.02 4.32 3 5 C2.08571661 6.90708843 2.08571661 6.90708843 2 9 C2.99 10.485 2.99 10.485 4 12 C3.67 12.66 3.34 13.32 3 14 C0.04191542 12.62660359 -2.64139564 11.27436849 -5 9 C-5.25 6.3125 -5.25 6.3125 -5 4 C-4.0409375 3.8453125 -4.0409375 3.8453125 -3.0625 3.6875 C-2.381875 3.460625 -1.70125 3.23375 -1 3 C-0.67 2.01 -0.34 1.02 0 0 Z " fill="#E79C2A" transform="translate(73,79)"/>
<path d="M0 0 C0.66 0 1.32 0 2 0 C2 0.66 2 1.32 2 2 C3.65 1.34 5.3 0.68 7 0 C8.65 1.65 10.3 3.3 12 5 C11.34 5 10.68 5 10 5 C9.67 6.65 9.34 8.3 9 10 C5.37723685 8.6744419 2.36494652 7.05653045 -0.8125 4.875 C-1.60269531 4.33617188 -2.39289063 3.79734375 -3.20703125 3.2421875 C-3.79871094 2.83226563 -4.39039063 2.42234375 -5 2 C-4.34 1.67 -3.68 1.34 -3 1 C-2.01 1.33 -1.02 1.66 0 2 C0 1.34 0 0.68 0 0 Z " fill="#CA8B2B" transform="translate(169,106)"/>
<path d="M0 0 C10.28947368 3.93421053 10.28947368 3.93421053 13 8 C13.125 11.1875 13.125 11.1875 13 14 C7.63672199 13.19668964 5.08769848 9.13767151 2 5 C0.5625 2 0.5625 2 0 0 Z " fill="#E6AA30" transform="translate(136,64)"/>
<path d="M0 0 C0.66 0 1.32 0 2 0 C2.4125 1.11375 2.825 2.2275 3.25 3.375 C4.63811691 6.67343017 5.69601342 7.56827248 9 9 C9.3721042 10.32303717 9.70630173 11.65737935 10 13 C10.99 13.66 11.98 14.32 13 15 C5.88991889 15.7230591 5.88991889 15.7230591 2 12.5625 C-0.79772667 8.66065377 -0.46069608 4.6069608 0 0 Z " fill="#E4A82F" transform="translate(80,57)"/>
<path d="M0 0 C-0.57344937 2.86724686 -0.8614515 3.8614515 -3 6 C-2.01 7.485 -2.01 7.485 -1 9 C-1.99 9.495 -1.99 9.495 -3 10 C-3.66 9.67 -4.32 9.34 -5 9 C-5 8.34 -5 7.68 -5 7 C-9.72941963 8.2519052 -11.73521327 10.78447162 -14.5703125 14.5390625 C-15.04210937 15.02117187 -15.51390625 15.50328125 -16 16 C-16.99 16 -17.98 16 -19 16 C-19.33 16.99 -19.66 17.98 -20 19 C-20.99 19.33 -21.98 19.66 -23 20 C-22.67537517 17.00398335 -22.01976947 16.01909872 -19.8125 13.88671875 C-18.884375 13.16097656 -17.95625 12.43523437 -17 11.6875 C-16.01128906 10.90890625 -15.02257812 10.1303125 -14.00390625 9.328125 C-13.01261719 8.55984375 -12.02132812 7.7915625 -11 7 C-9.68322266 5.94039062 -9.68322266 5.94039062 -8.33984375 4.859375 C-2.265625 0 -2.265625 0 0 0 Z " fill="#BD8232" transform="translate(135,136)"/>
<path d="M0 0 C6.83192563 3.66591131 12.55292252 9.55292252 18 15 C16.19335938 15.63549805 16.19335938 15.63549805 14 16 C11.64092794 14.34686238 9.61945009 12.7325007 7.5 10.8125 C6.93152344 10.31685547 6.36304687 9.82121094 5.77734375 9.31054688 C2.74139271 6.64440426 -0.1800662 3.89596142 -3 1 C-2.01 0.67 -1.02 0.34 0 0 Z " fill="#1A140F" transform="translate(115,98)"/>
<path d="M0 0 C1.12894876 0.93274109 2.25300876 1.87140122 3.375 2.8125 C4.00148438 3.33457031 4.62796875 3.85664062 5.2734375 4.39453125 C7 6 7 6 9 9 C8.625 11.1875 8.625 11.1875 8 13 C8.66 13.33 9.32 13.66 10 14 C10 14.66 10 15.32 10 16 C6.33428949 14.32792152 3.73953221 12.12684747 0.78125 9.4375 C-1.05483541 7.95574686 -2.85912386 6.97653999 -5 6 C-3.02 6 -1.04 6 1 6 C0.67 4.02 0.34 2.04 0 0 Z " fill="#C48F2B" transform="translate(101,60)"/>
<path d="M0 0 C2.56687367 3.8503105 1.83288724 5.58569763 1 10 C2.98 10 4.96 10 7 10 C7 10.66 7 11.32 7 12 C8.65 11.34 10.3 10.68 12 10 C11.67 10.99 11.34 11.98 11 13 C8.11788698 13.96070434 6.30149956 14.10581883 3.3125 14.0625 C2.10013672 14.04896484 2.10013672 14.04896484 0.86328125 14.03515625 C-0.05904297 14.01775391 -0.05904297 14.01775391 -1 14 C-1.98329211 9.94392005 -2.23600253 6.16937798 -2 2 C-1.34 1.34 -0.68 0.68 0 0 Z " fill="#ED8A18" transform="translate(83,166)"/>
<path d="M0 0 C0.66 0.33 1.32 0.66 2 1 C-0.20638099 5.85403817 -3.71646386 8.24996527 -7.94140625 11.25390625 C-10.08736333 13.07410135 -10.9424823 14.42723306 -12 17 C-12.33 17.66 -12.66 18.32 -13 19 C-13.28875 18.360625 -13.5775 17.72125 -13.875 17.0625 C-14.82823451 14.84793921 -14.82823451 14.84793921 -17 14 C-16.27554688 13.40832031 -15.55109375 12.81664062 -14.8046875 12.20703125 C-9.85195909 8.15900123 -4.90312066 4.10802001 0 0 Z " fill="#19150E" transform="translate(142,137)"/>
<path d="M0 0 C2.84276007 0.08361059 4.52758254 0.52994462 6.5625 2.5546875 C7.58646763 3.7885685 8.59012844 5.03965276 9.5703125 6.30859375 C11.08080282 8.25419066 11.08080282 8.25419066 14 10 C12.68 11.32 11.36 12.64 10 14 C9.79375 13.21625 9.5875 12.4325 9.375 11.625 C8.20970067 8.7054215 8.20970067 8.7054215 5 7.8125 C3.515 7.4103125 3.515 7.4103125 2 7 C0 5 0 5 -0.125 2.375 C-0.08375 1.59125 -0.0425 0.8075 0 0 Z " fill="#DB9129" transform="translate(110,102)"/>
<path d="M0 0 C0 3.38023517 -0.87455622 5.83468937 -2 9 C-1.01 9.33 -0.02 9.66 1 10 C-1.475 11.485 -1.475 11.485 -4 13 C-4 11.35 -4 9.7 -4 8 C-6.31 9.32 -8.62 10.64 -11 12 C-11.66 11.34 -12.32 10.68 -13 10 C-8.71 6.7 -4.42 3.4 0 0 Z " fill="#C98E36" transform="translate(150,135)"/>
<path d="M0 0 C2 0 2 0 4.125 1.8125 C6 4 6 4 6 7 C6.99 7 7.98 7 9 7 C9 7.66 9 8.32 9 9 C9.66 9 10.32 9 11 9 C11.66 10.98 12.32 12.96 13 15 C6.41071429 13.53571429 6.41071429 13.53571429 4.5625 11.125 C4 9 4 9 4 5 C2.35 5 0.7 5 -1 5 C-0.67 3.35 -0.34 1.7 0 0 Z " fill="#DD9E2E" transform="translate(149,87)"/>
<path d="M0 0 C4.31288807 1.47230316 7.71781434 3.76576765 11.3125 6.5 C11.86228516 6.90347656 12.41207031 7.30695313 12.97851562 7.72265625 C14.36007451 8.76268691 15.68556298 9.87633454 17 11 C17 11.66 17 12.32 17 13 C16.43539062 12.71511719 15.87078125 12.43023437 15.2890625 12.13671875 C12.99686985 10.99844561 10.69724761 9.88818994 8.375 8.8125 C7.59898438 8.44769531 6.82296875 8.08289063 6.0234375 7.70703125 C5.02183594 7.35705078 5.02183594 7.35705078 4 7 C3.01 7.495 3.01 7.495 2 8 C0.23537317 4.91190305 0 3.76687864 0 0 Z " fill="#D7A138" transform="translate(109,69)"/>
<path d="M0 0 C0 3 0 3 -1.9375 5.0625 C-2.618125 5.701875 -3.29875 6.34125 -4 7 C-4.33 7.66 -4.66 8.32 -5 9 C-5.66 9 -6.32 9 -7 9 C-7 9.66 -7 10.32 -7 11 C-8.32 11.33 -9.64 11.66 -11 12 C-11 12.66 -11 13.32 -11 14 C-11.99 14.66 -12.98 15.32 -14 16 C-14.57993699 18.19454681 -14.57993699 18.19454681 -14.6875 20.625 C-14.75324219 21.44226563 -14.81898437 22.25953125 -14.88671875 23.1015625 C-14.92410156 23.72804687 -14.96148437 24.35453125 -15 25 C-15.33 25 -15.66 25 -16 25 C-16.68815908 20.42183059 -16.9744871 16.59623017 -14.5 12.54296875 C-10.2311858 7.64883997 -5.36480985 3.63836838 0 0 Z " fill="#A76D26" transform="translate(95,151)"/>
<path d="M0 0 C4.43458973 1.3937282 6.87378374 3.60582235 10 7 C8.68 8.32 7.36 9.64 6 11 C3.03 8.36 0.06 5.72 -3 3 C-2.01 2.67 -1.02 2.34 0 2 C0 1.34 0 0.68 0 0 Z " fill="#18110B" transform="translate(101,102)"/>
<path d="M0 0 C1.65 0.33 3.3 0.66 5 1 C5.33 2.65 5.66 4.3 6 6 C4.35 7.32 2.7 8.64 1 10 C-1 9 -1 9 -1.75 7.25 C-2.07158914 4.35569775 -1.22746624 2.59934027 0 0 Z " fill="#DFA32E" transform="translate(198,112)"/>
<path d="M0 0 C6.51309429 4.75885113 12.92239126 9.69326443 19 15 C19 15.33 19 15.66 19 16 C17.35 16 15.7 16 14 16 C13.67 15.01 13.34 14.02 13 13 C11.00628175 11.65729179 9.0065438 10.32346506 7 9 C7 8.34 7 7.68 7 7 C6.443125 6.731875 5.88625 6.46375 5.3125 6.1875 C2.80287477 4.89877353 0.40665764 3.47073522 -2 2 C-1.34 1.34 -0.68 0.68 0 0 Z " fill="#B99543" transform="translate(139,91)"/>
<path d="M0 0 C0.66 0.33 1.32 0.66 2 1 C-1.44615385 6.78461538 -1.44615385 6.78461538 -4.25 7.875 C-4.8275 7.91625 -5.405 7.9575 -6 8 C-6 8.99 -6 9.98 -6 11 C-6.66 11 -7.32 11 -8 11 C-8.33 11.99 -8.66 12.98 -9 14 C-9.66 13.67 -10.32 13.34 -11 13 C-11 13.66 -11 14.32 -11 15 C-11.99 15 -12.98 15 -14 15 C-14 13.68 -14 12.36 -14 11 C-12.68 11 -11.36 11 -10 11 C-10 10.34 -10 9.68 -10 9 C-9.0925 8.401875 -8.185 7.80375 -7.25 7.1875 C-4.08580088 5.05775059 -2.21452428 3.06626439 0 0 Z " fill="#DF932B" transform="translate(154,121)"/>
<path d="M0 0 C-1.5885342 4.28904235 -4.43127368 6.32345526 -8 9 C-8.66 9 -9.32 9 -10 9 C-9.45276317 5.62537285 -8.9451 3.91765 -7 1 C-4.00987436 -0.92911331 -3.51287078 -1.17095693 0 0 Z " fill="#C97B18" transform="translate(122,134)"/>
<path d="M0 0 C0 3.9765245 -1.38011503 5.0890167 -4 8 C-7.51724138 11 -7.51724138 11 -10 11 C-10 11.66 -10 12.32 -10 13 C-12.90600261 14.25664978 -14.79604584 15 -18 15 C-15.93821926 13.24914666 -13.87560123 11.49929619 -11.8125 9.75 C-11.23435547 9.25886719 -10.65621094 8.76773438 -10.06054688 8.26171875 C-6.74768589 5.45420944 -3.4063788 2.69431092 0 0 Z " fill="#BD8837" transform="translate(154,119)"/>
<path d="M0 0 C0.125 2.375 0.125 2.375 0 5 C-0.66 5.66 -1.32 6.32 -2 7 C-4.625 6.625 -4.625 6.625 -7 6 C-7.33 4.35 -7.66 2.7 -8 1 C-5.07175348 0.02391783 -3.04386724 -0.08226668 0 0 Z " fill="#1D150B" transform="translate(94,57)"/>
<path d="M0 0 C1.4540625 0.0309375 1.4540625 0.0309375 2.9375 0.0625 C2.1875 4.8125 2.1875 4.8125 -0.0625 7.0625 C-2.6875 6.6875 -2.6875 6.6875 -5.0625 6.0625 C-3.98897059 0.08140756 -3.98897059 0.08140756 0 0 Z " fill="#2C201D" transform="translate(90.0625,167.9375)"/>
<path d="M0 0 C4.44824859 0.52096605 6.87592224 2.12205185 10.3125 4.9375 C11.19550781 5.64777344 12.07851562 6.35804687 12.98828125 7.08984375 C13.65214844 7.72019531 14.31601563 8.35054687 15 9 C15 9.66 15 10.32 15 11 C14.01 11.33 13.02 11.66 12 12 C11.6596875 10.7934375 11.6596875 10.7934375 11.3125 9.5625 C10.879375 8.716875 10.44625 7.87125 10 7 C8.34178227 6.62690101 6.67422986 6.29299023 5 6 C3.875 4 3.875 4 3 2 C2.01 1.67 1.02 1.34 0 1 C0 0.67 0 0.34 0 0 Z " fill="#C68E2B" transform="translate(132,105)"/>
<path d="M0 0 C3.9374409 2.2242582 7.3373337 4.79850633 10.8125 7.6875 C11.78832031 8.49574219 12.76414063 9.30398437 13.76953125 10.13671875 C14.50558594 10.75160156 15.24164063 11.36648437 16 12 C15.01 13.485 15.01 13.485 14 15 C14 14.34 14 13.68 14 13 C11.525 12.01 11.525 12.01 9 11 C9 10.34 9 9.68 9 9 C8.34 9 7.68 9 7 9 C7 8.34 7 7.68 7 7 C6.01 7 5.02 7 4 7 C4 6.01 4 5.02 4 4 C2.68 3.34 1.36 2.68 0 2 C0 1.34 0 0.68 0 0 Z " fill="#C59C40" transform="translate(151,87)"/>
<path d="M0 0 C0.6875 2.3125 0.6875 2.3125 1 5 C-0.4375 6.8125 -0.4375 6.8125 -2 8 C-1.34 8 -0.68 8 0 8 C0 8.66 0 9.32 0 10 C-1.65 9.67 -3.3 9.34 -5 9 C-5.75 6.75 -5.75 6.75 -6 4 C-2.86486486 0 -2.86486486 0 0 0 Z " fill="#E08517" transform="translate(74,141)"/>
<path d="M0 0 C2.25 -0.25 2.25 -0.25 5 0 C7.125 1.9375 7.125 1.9375 9 4 C9.99 4.33 10.98 4.66 12 5 C12 6.65 12 8.3 12 10 C10.55680308 9.09232898 9.12065894 8.17343894 7.6875 7.25 C6.88699219 6.73953125 6.08648437 6.2290625 5.26171875 5.703125 C2.99631139 3.99722239 1.57315833 2.34191855 0 0 Z " fill="#BF8420" transform="translate(119,83)"/>
<path d="M0 0 C0.66 0.33 1.32 0.66 2 1 C0.78258021 2.46815389 -0.44948761 3.92416847 -1.6875 5.375 C-2.37199219 6.18710938 -3.05648437 6.99921875 -3.76171875 7.8359375 C-6.12312219 10.1190396 -7.9116802 10.98410533 -11 12 C-12.34050052 12.65213539 -13.67661368 13.31379969 -15 14 C-10.75802296 8.34403061 -5.5954014 4.28075369 0 0 Z " fill="#B3803F" transform="translate(144,153)"/>
<path d="M0 0 C0.66 0.33 1.32 0.66 2 1 C1.6875 3.875 1.6875 3.875 1 7 C-2 9 -2 9 -4.6875 8.625 C-5.450625 8.41875 -6.21375 8.2125 -7 8 C-5.50902342 4.2047869 -3.24299151 2.38957269 0 0 Z " fill="#DE932C" transform="translate(145,142)"/>
<path d="M0 0 C2.31 0.33 4.62 0.66 7 1 C7.061875 1.61875 7.12375 2.2375 7.1875 2.875 C7.455625 3.57625 7.72375 4.2775 8 5 C9.65204456 5.70211894 11.31923769 6.36971413 13 7 C13.33 7.99 13.66 8.98 14 10 C15.49985609 11.66710346 15.49985609 11.66710346 17 13 C12.74871299 13 11.55562225 11.05830638 8.5 8.1875 C7.5409375 7.29417969 6.581875 6.40085937 5.59375 5.48046875 C3.70509264 3.67429793 1.83207944 1.86302673 0 0 Z " fill="#B97723" transform="translate(116,98)"/>
<path d="M0 0 C4.18238834 0.54769371 6.59868545 2.89888889 9.75 5.5625 C11.22726563 6.80193359 11.22726563 6.80193359 12.734375 8.06640625 C13.48203125 8.70449219 14.2296875 9.34257813 15 10 C13 11 13 11 11.125 10.6171875 C5.33135089 8.59367035 5.33135089 8.59367035 3.5 5.3125 C3.2525 4.1678125 3.2525 4.1678125 3 3 C2.01 3 1.02 3 0 3 C0 2.01 0 1.02 0 0 Z " fill="#CFA448" transform="translate(131,72)"/>
<path d="M0 0 C2 3 2 3 2 7 C1.01 7.66 0.02 8.32 -1 9 C-1 8.34 -1 7.68 -1 7 C-3.64 7.66 -6.28 8.32 -9 9 C-6 6 -3 3 0 0 Z " fill="#BB7C2A" transform="translate(98,118)"/>
<path d="M0 0 C2.375 0.5625 2.375 0.5625 5 2 C6.3125 5.625 6.3125 5.625 7 9 C3.62537285 8.45276317 1.91765 7.9451 -1 6 C-0.67 4.02 -0.34 2.04 0 0 Z " fill="#E6A731" transform="translate(163,84)"/>
<path d="M0 0 C2.3125 1.3125 2.3125 1.3125 3.3125 4.3125 C2.6525 4.3125 1.9925 4.3125 1.3125 4.3125 C1.3125 4.9725 1.3125 5.6325 1.3125 6.3125 C1.9725 6.6425 2.6325 6.9725 3.3125 7.3125 C-0.27662412 7.3125 -0.79607029 6.64813446 -3.375 4.3125 C-3.99761719 3.755625 -4.62023437 3.19875 -5.26171875 2.625 C-5.73222656 2.191875 -6.20273438 1.75875 -6.6875 1.3125 C-3.0234375 -0.7734375 -3.0234375 -0.7734375 0 0 Z " fill="#C58624" transform="translate(105.6875,82.6875)"/>
<path d="M0 0 C2.25 0.9375 2.25 0.9375 3.25 2.9375 C0.86766476 4.2202959 -1.34110551 5.12294487 -3.9375 5.9375 C-6.87865478 6.61737492 -6.87865478 6.61737492 -7.75 8.9375 C-8.41 8.9375 -9.07 8.9375 -9.75 8.9375 C-7.93537867 4.48342946 -5.17420164 -0.11759549 0 0 Z " fill="#CB9024" transform="translate(79.75,73.0625)"/>
<path d="M0 0 C2.03435531 3.72965139 3 5.66905042 3 10 C1.35 10 -0.3 10 -2 10 C-1.67 9.34 -1.34 8.68 -1 8 C-1.33 7.01 -1.66 6.02 -2 5 C-2.66 4.67 -3.32 4.34 -4 4 C-4 3.01 -4 2.02 -4 1 C-2 0 -2 0 0 0 Z " fill="#E5A921" transform="translate(99,56)"/>
<path d="M0 0 C0.66 0.33 1.32 0.66 2 1 C0.0873614 2.62995302 -1.82980142 4.25399515 -3.75 5.875 C-4.55824219 6.56529297 -4.55824219 6.56529297 -5.3828125 7.26953125 C-8.12143213 9.57397948 -10.6893305 11.60180463 -14 13 C-14 11.68 -14 10.36 -14 9 C-12.4840625 8.1646875 -12.4840625 8.1646875 -10.9375 7.3125 C-7.09121554 5.12247273 -3.56539128 2.61947115 0 0 Z " fill="#D99D3C" transform="translate(197,121)"/>
<path d="M0 0 C1.65 1.65 3.3 3.3 5 5 C4.01 5.33 3.02 5.66 2 6 C1.67 6.99 1.34 7.98 1 9 C-1.33333333 6.66666667 -3.66666667 4.33333333 -6 2 C-4.02 1.34 -2.04 0.68 0 0 Z " fill="#C47F1E" transform="translate(101,107)"/>
<path d="M0 0 C0.66 0.33 1.32 0.66 2 1 C2.99 0.67 3.98 0.34 5 0 C5 0.66 5 1.32 5 2 C5.66 2.66 6.32 3.32 7 4 C2.69230769 7.07692308 2.69230769 7.07692308 -0.8125 6.6875 C-1.534375 6.460625 -2.25625 6.23375 -3 6 C-1.125 1.125 -1.125 1.125 0 0 Z " fill="#CD8428" transform="translate(111,154)"/>
<path d="M0 0 C4.40795408 2.90279903 8.75665434 5.85992421 13 9 C13 9.33 13 9.66 13 10 C10.4375 10.5 10.4375 10.5 7 10 C4.28354627 7.62513626 2.02568695 4.98459202 0 2 C0 1.34 0 0.68 0 0 Z " fill="#C19840" transform="translate(126,81)"/>
<path d="M0 0 C7.34693878 -0.48979592 7.34693878 -0.48979592 10.5 1.875 C12 4 12 4 12 6 C7.01208429 5.52496041 3.9767259 4.0298864 0 1 C0 0.67 0 0.34 0 0 Z " fill="#D29118" transform="translate(85,72)"/>
<path d="M0 0 C4.62 0 9.24 0 14 0 C13.01 0.33 12.02 0.66 11 1 C11.20625 1.61875 11.4125 2.2375 11.625 2.875 C11.74875 3.57625 11.8725 4.2775 12 5 C11.34 5.66 10.68 6.32 10 7 C9.60235737 8.98821313 9.26224651 10.98944339 9 13 C8.67 13 8.34 13 8 13 C8 9.04 8 5.08 8 1 C5.36 1 2.72 1 0 1 C0 0.67 0 0.34 0 0 Z " fill="#252124" transform="translate(430,67)"/>
<path d="M0 0 C0.33 0.99 0.66 1.98 1 3 C-1.59177765 7.87254198 -4.37911618 10.26947774 -9 13 C-9.99 12.34 -10.98 11.68 -12 11 C-11.38511719 10.54109375 -10.77023438 10.0821875 -10.13671875 9.609375 C-9.32847656 8.99578125 -8.52023438 8.3821875 -7.6875 7.75 C-6.88699219 7.14671875 -6.08648437 6.5434375 -5.26171875 5.921875 C-3.11450388 4.09729864 -1.58398701 2.31702954 0 0 Z " fill="#20180D" transform="translate(168,115)"/>
<path d="M0 0 C0.66 0 1.32 0 2 0 C2.99 2.97 3.98 5.94 5 9 C4.34 9 3.68 9 3 9 C2.67 9.99 2.34 10.98 2 12 C-0.13586678 8.79619983 -0.23132175 7.98060033 -0.125 4.3125 C-0.10695313 3.50425781 -0.08890625 2.69601563 -0.0703125 1.86328125 C-0.04710938 1.24839844 -0.02390625 0.63351563 0 0 Z " fill="#E0A326" transform="translate(80,57)"/>
<path d="M0 0 C0.66 0.33 1.32 0.66 2 1 C1.49166802 4.76165664 0.8405007 6.50035938 -2 9 C-2.66 9.99 -3.32 10.98 -4 12 C-4.8125 8.8125 -4.8125 8.8125 -5 5 C-2.5625 2.0625 -2.5625 2.0625 0 0 Z " fill="#C97718" transform="translate(96,151)"/>
<path d="M0 0 C0 0.66 0 1.32 0 2 C-0.66 2 -1.32 2 -2 2 C-2 3.32 -2 4.64 -2 6 C-6.95 7.485 -6.95 7.485 -12 9 C-3.25 0 -3.25 0 0 0 Z " fill="#BB8139" transform="translate(158,144)"/>
<path d="M0 0 C2.475 0.99 2.475 0.99 5 2 C2.0094833 5.33557632 -0.93184627 7.15083921 -5 9 C-3.50163895 5.88801935 -1.80066242 2.9465385 0 0 Z " fill="#1A0E05" transform="translate(171,113)"/>
<path d="M0 0 C1.65 0 3.3 0 5 0 C5.33 0.99 5.66 1.98 6 3 C3.35261084 4.4606285 2.10551666 5 -1 5 C-1.99 5.66 -2.98 6.32 -4 7 C-4 5.68 -4 4.36 -4 3 C-3.01 3 -2.02 3 -1 3 C-0.67 2.01 -0.34 1.02 0 0 Z " fill="#EFA731" transform="translate(73,79)"/>
<path d="M0 0 C0.66 0 1.32 0 2 0 C3.38232443 1.62626404 4.71937515 3.2925002 6 5 C3.69 6.98 1.38 8.96 -1 11 C-1 8.14953727 -0.55621634 5.7810817 0 3 C0 2.01 0 1.02 0 0 Z " fill="#C57F23" transform="translate(136,115)"/>
<path d="M0 0 C0.73046875 1.84765625 0.73046875 1.84765625 1.1875 4.0625 C1.34605469 4.79597656 1.50460938 5.52945313 1.66796875 6.28515625 C1.77753906 6.85105469 1.88710937 7.41695312 2 8 C0.70684939 7.04367001 -0.58446853 6.08486149 -1.875 5.125 C-2.59429687 4.59132813 -3.31359375 4.05765625 -4.0546875 3.5078125 C-6 2 -6 2 -8 0 C-4.71303767 -0.79953138 -3.28976808 -1.09658936 0 0 Z " fill="#C5892E" transform="translate(153,92)"/>
<path d="M0 0 C0.66 0.33 1.32 0.66 2 1 C1.34 1.721875 0.68 2.44375 0 3.1875 C-2.1535853 6.21597933 -2.41176754 7.39703406 -2 11 C-1.34 11.33 -0.68 11.66 0 12 C-1.65 11.67 -3.3 11.34 -5 11 C-5.875 8.875 -5.875 8.875 -6 6 C-4.2531134 3.70485976 -2.19996058 1.85561893 0 0 Z " fill="#BC8134" transform="translate(135,146)"/>
<path d="M0 0 C0.66 0.33 1.32 0.66 2 1 C0.62714287 4.38260673 -0.55706059 5.6350574 -3.875 7.125 C-4.89207031 7.59292969 -4.89207031 7.59292969 -5.9296875 8.0703125 C-6.95449219 8.53050781 -6.95449219 8.53050781 -8 9 C-9.33609569 9.66111309 -10.67026363 10.3261874 -12 11 C-8.19588166 7.08060535 -4.18423892 3.50897269 0 0 Z " fill="#B47F39" transform="translate(177,127)"/>
<path d="M0 0 C1.98 0.495 1.98 0.495 4 1 C4.33 2.65 4.66 4.3 5 6 C1 6 1 6 -1 5 C-0.67 3.35 -0.34 1.7 0 0 Z " fill="#CF8E25" transform="translate(174,109)"/>
<path d="M0 0 C0.99 0.33 1.98 0.66 3 1 C1.35 2.65 -0.3 4.3 -2 6 C-2.598125 5.67 -3.19625 5.34 -3.8125 5 C-6.05386471 3.79212012 -6.05386471 3.79212012 -9 4 C-7.8125 2.5 -7.8125 2.5 -6 1 C-3.375 0.875 -3.375 0.875 -1 1 C-0.67 0.67 -0.34 0.34 0 0 Z " fill="#B06C19" transform="translate(125,130)"/>
<path d="M0 0 C2.00720923 0.28674418 4.0085944 0.61866701 6 1 C6 1.99 6 2.98 6 4 C4.35 4.66 2.7 5.32 1 6 C0.34 4.35 -0.32 2.7 -1 1 C-0.67 0.67 -0.34 0.34 0 0 Z " fill="#B46C1A" transform="translate(97,149)"/>
<path d="M0 0 C1.65 0 3.3 0 5 0 C5.33 0.66 5.66 1.32 6 2 C5.0625 4.625 5.0625 4.625 4 7 C2 5.75 2 5.75 0 4 C0 2.68 0 1.36 0 0 Z " fill="#201913" transform="translate(76,83)"/>
<path d="M0 0 C0.66 0.33 1.32 0.66 2 1 C2 1.66 2 2.32 2 3 C-0.52475462 4.26237731 -2.31200466 4.09856404 -5.125 4.0625 C-6.03507812 4.05347656 -6.94515625 4.04445312 -7.8828125 4.03515625 C-8.58148438 4.02355469 -9.28015625 4.01195312 -10 4 C-10.33 3.34 -10.66 2.68 -11 2 C-10.06027344 1.90912109 -10.06027344 1.90912109 -9.1015625 1.81640625 C-7.87566406 1.69072266 -7.87566406 1.69072266 -6.625 1.5625 C-5.81289062 1.48128906 -5.00078125 1.40007812 -4.1640625 1.31640625 C-1.95727195 1.10909886 -1.95727195 1.10909886 0 0 Z " fill="#B96A1D" transform="translate(93,178)"/>
<path d="M0 0 C0.99 0.33 1.98 0.66 3 1 C2.360625 1.7425 1.72125 2.485 1.0625 3.25 C-0.78333407 5.7111121 -1.56069174 7.03466926 -2 10 C-2.28875 9.360625 -2.5775 8.72125 -2.875 8.0625 C-3.82823451 5.84793921 -3.82823451 5.84793921 -6 5 C-1.60546875 0.99609375 -1.60546875 0.99609375 0 0 Z " fill="#241B10" transform="translate(131,146)"/>
<path d="M0 0 C0.33 0.66 0.66 1.32 1 2 C0.67 2.66 0.34 3.32 0 4 C-0.99 4.33 -1.98 4.66 -3 5 C-3.9590625 6.051875 -3.9590625 6.051875 -4.9375 7.125 C-5.618125 7.74375 -6.29875 8.3625 -7 9 C-9.25 8.75 -9.25 8.75 -11 8 C-7.46362104 4.95706926 -4.08963819 2.28538605 0 0 Z " fill="#D38E31" transform="translate(169,135)"/>
<path d="M0 0 C-0.33 0.99 -0.66 1.98 -1 3 C-2.98723268 3.70381157 -4.98777953 4.3711811 -7 5 C-7.33 5.66 -7.66 6.32 -8 7 C-8.66 7 -9.32 7 -10 7 C-9.02640613 3.72518425 -8.30933359 2.23794891 -5.5625 0.125 C-3 -1 -3 -1 0 0 Z " fill="#DD8717" transform="translate(86,134)"/>
<path d="M0 0 C1.32 0.66 2.64 1.32 4 2 C3.34 3.32 2.68 4.64 2 6 C-1.37503669 4.8141763 -3.64722731 3.72426311 -6 1 C-3.03 1.495 -3.03 1.495 0 2 C0 1.34 0 0.68 0 0 Z " fill="#C88B2D" transform="translate(161,99)"/>
<path d="M0 0 C2.5 1.1875 2.5 1.1875 5 3 C5 4.65 5 6.3 5 8 C2.36 6.02 -0.28 4.04 -3 2 C-2.01 1.34 -1.02 0.68 0 0 Z " fill="#19171C" transform="translate(115,98)"/>
<path d="M0 0 C0.33 0.66 0.66 1.32 1 2 C-0.94691311 4.92036966 -2.11047422 5.94404639 -5 7.75 C-5.70125 8.19859375 -6.4025 8.6471875 -7.125 9.109375 C-7.74375 9.40328125 -8.3625 9.6971875 -9 10 C-9.66 9.67 -10.32 9.34 -11 9 C-7.37 6.03 -3.74 3.06 0 0 Z " fill="#B1823D" transform="translate(166,122)"/>
<path d="M0 0 C1.32 0.99 2.64 1.98 4 3 C3 6 3 6 -0.0625 7.6875 C-1.031875 8.120625 -2.00125 8.55375 -3 9 C-2.38722388 6.03824877 -1.74627478 4.61941217 0 2 C0 1.34 0 0.68 0 0 Z " fill="#211308" transform="translate(133,113)"/>
<path d="M0 0 C0.66 0.33 1.32 0.66 2 1 C0.12050295 4.57104439 -1.17053157 6.54744301 -5 8 C-5.66 7.34 -6.32 6.68 -7 6 C-4.69 4.02 -2.38 2.04 0 0 Z " fill="#B68437" transform="translate(144,139)"/>
<path d="M0 0 C0 3 0 3 -1 6 C-0.34 6.33 0.32 6.66 1 7 C0.01 7.66 -0.98 8.32 -2 9 C-2.33 8.34 -2.66 7.68 -3 7 C-4.65 7.33 -6.3 7.66 -8 8 C-5.33333333 5.33333333 -2.66666667 2.66666667 0 0 Z " fill="#BE781D" transform="translate(88,127)"/>
<path d="M0 0 C0.66 0 1.32 0 2 0 C2.66 2.64 3.32 5.28 4 8 C2.35 8.33 0.7 8.66 -1 9 C-0.67 6.03 -0.34 3.06 0 0 Z " fill="#2B282C" transform="translate(530,81)"/>
<path d="M0 0 C0.66 0 1.32 0 2 0 C2.66 2.64 3.32 5.28 4 8 C2.35 8.33 0.7 8.66 -1 9 C-0.67 6.03 -0.34 3.06 0 0 Z " fill="#282528" transform="translate(354,81)"/>
<path d="M0 0 C1.98 0 3.96 0 6 0 C6 0.66 6 1.32 6 2 C7.65 1.34 9.3 0.68 11 0 C10.67 0.99 10.34 1.98 10 3 C6.65155086 4.05236973 5.40920111 4.20005388 2.1875 2.625 C1.465625 2.08875 0.74375 1.5525 0 1 C0 0.67 0 0.34 0 0 Z " fill="#E18317" transform="translate(84,176)"/>
<path d="M0 0 C-1.39332574 3.36720387 -2.9789286 4.9859524 -6 7 C-6 6.34 -6 5.68 -6 5 C-6.66 4.67 -7.32 4.34 -8 4 C-3.375 0 -3.375 0 0 0 Z " fill="#0B0E0C" transform="translate(88,155)"/>
<path d="M0 0 C0.66 0.33 1.32 0.66 2 1 C1.34 1.66 0.68 2.32 0 3 C-0.16687448 5.58354218 -0.16687448 5.58354218 0 8 C-0.99 8.33 -1.98 8.66 -3 9 C-3.33 8.01 -3.66 7.02 -4 6 C-4.99 6 -5.98 6 -7 6 C-4.69 4.02 -2.38 2.04 0 0 Z " fill="#A36A25" transform="translate(113,136)"/>
<path d="M0 0 C0.66 0.33 1.32 0.66 2 1 C-1.82042691 5.1842771 -4.32976351 7.64994369 -10 9 C-6.83047153 5.73991357 -3.60062011 2.77762123 0 0 Z " fill="#CE8931" transform="translate(109,125)"/>
<path d="M0 0 C2.0625 0.6875 2.0625 0.6875 4 2 C4.75 4.125 4.75 4.125 5 6 C2.625 5.75 2.625 5.75 0 5 C-1.3125 2.9375 -1.3125 2.9375 -2 1 C-1.34 0.67 -0.68 0.34 0 0 Z " fill="#D29A31" transform="translate(125,111)"/>
<path d="M0 0 C0.66 0 1.32 0 2 0 C2.268125 0.639375 2.53625 1.27875 2.8125 1.9375 C3.88667752 4.33131686 3.88667752 4.33131686 7 5 C7.6875 7.0625 7.6875 7.0625 8 9 C6.35 8.67 4.7 8.34 3 8 C3 7.01 3 6.02 3 5 C2.34 5 1.68 5 1 5 C1 4.34 1 3.68 1 3 C0.34 2.67 -0.32 2.34 -1 2 C-0.67 1.34 -0.34 0.68 0 0 Z " fill="#D6962E" transform="translate(92,85)"/>
<path d="M0 0 C0 0.99 0 1.98 0 3 C-3.68754757 2.50168276 -5.60490662 1.89932357 -8 -1 C-4.59745511 -2.2151946 -3.06748874 -1.86240388 0 0 Z " fill="#D38E2A" transform="translate(89,84)"/>
<path d="M0 0 C1.32 0.66 2.64 1.32 4 2 C3.38125 2.5775 2.7625 3.155 2.125 3.75 C0.18652947 5.80249821 -0.90014249 7.43366582 -2 10 C-2.6875 8.375 -2.6875 8.375 -3 6 C-1.5625 2.75 -1.5625 2.75 0 0 Z " fill="#DD8D2F" transform="translate(95,165)"/>
<path d="M0 0 C0.66 0.33 1.32 0.66 2 1 C0.25 3.5 0.25 3.5 -2 6 C-3.32 6 -4.64 6 -6 6 C-6 6.66 -6 7.32 -6 8 C-7.32 7.34 -8.64 6.68 -10 6 C-9.44570312 5.73445312 -8.89140625 5.46890625 -8.3203125 5.1953125 C-7.59585938 4.84210938 -6.87140625 4.48890625 -6.125 4.125 C-5.40570313 3.77695313 -4.68640625 3.42890625 -3.9453125 3.0703125 C-1.84864981 2.03442457 -1.84864981 2.03442457 0 0 Z " fill="#BC772B" transform="translate(85,144)"/>
<path d="M0 0 C1.32 0 2.64 0 4 0 C4 0.66 4 1.32 4 2 C4.99 1.67 5.98 1.34 7 1 C7.66 2.65 8.32 4.3 9 6 C4.58763974 6 3.21615077 3.9302707 0 1 C0 0.67 0 0.34 0 0 Z " fill="#C47E1B" transform="translate(108,91)"/>
<path d="M0 0 C1.32 0.33 2.64 0.66 4 1 C3.67 2.65 3.34 4.3 3 6 C4.98 5.67 6.96 5.34 9 5 C7 7 7 7 4.5 7.3125 C3.675 7.209375 2.85 7.10625 2 7 C0 4 0 4 0 0 Z " fill="#CE8128" transform="translate(128,167)"/>
<path d="M0 0 C3.79303725 1.00193437 6.71536341 1.81024227 10 4 C10 4.66 10 5.32 10 6 C6.00452264 5.38531118 3.22493358 3.34540624 0 1 C0 0.67 0 0.34 0 0 Z " fill="#C37824" transform="translate(85,103)"/>
<path d="M0 0 C2.64 0.66 5.28 1.32 8 2 C7.01 2.495 7.01 2.495 6 3 C6 3.99 6 4.98 6 6 C4.02 5.34 2.04 4.68 0 4 C0 2.68 0 1.36 0 0 Z " fill="#D79C2D" transform="translate(131,89)"/>
<path d="M0 0 C2.88437779 1.29299694 4.87219421 2.65941363 7 5 C5.35 5.33 3.7 5.66 2 6 C0 2.25 0 2.25 0 0 Z " fill="#0F0A09" transform="translate(99,85)"/>
<path d="M0 0 C5.03985731 0.44469329 7.37634988 2.71343362 11 6 C10.34 6.66 9.68 7.32 9 8 C7.49712782 6.85793642 5.99776716 5.71125043 4.5 4.5625 C3.6646875 3.92441406 2.829375 3.28632812 1.96875 2.62890625 C1.3190625 2.09136719 0.669375 1.55382812 0 1 C0 0.67 0 0.34 0 0 Z " fill="#1C130A" transform="translate(158,78)"/>
<path d="M0 0 C1.32 1.65 2.64 3.3 4 5 C2.3125 5.8125 2.3125 5.8125 0 6 C-2.75 3.5625 -2.75 3.5625 -5 1 C-3.35 0.67 -1.7 0.34 0 0 Z " fill="#201911" transform="translate(128,77)"/>
<path d="M0 0 C-0.33 0.99 -0.66 1.98 -1 3 C-1.99 3 -2.98 3 -4 3 C-3.67 4.98 -3.34 6.96 -3 9 C-3.66 8.67 -4.32 8.34 -5 8 C-5.40729228 5.67843403 -5.74438677 3.3431213 -6 1 C-4 0 -4 0 0 0 Z " fill="#EDAE2E" transform="translate(88,55)"/>
<path d="M0 0 C0.99 0.33 1.98 0.66 3 1 C2.2884375 1.6496875 2.2884375 1.6496875 1.5625 2.3125 C-0.23686957 4.02309613 -0.23686957 4.02309613 -1 7 C-1.99 7 -2.98 7 -4 7 C-3.43628586 3.73045798 -2.50037734 2.17424117 0 0 Z " fill="#D68314" transform="translate(91,126)"/>
<path d="M0 0 C2.375 0.3125 2.375 0.3125 5 1 C5.66 1.99 6.32 2.98 7 4 C7.99 4.33 8.98 4.66 10 5 C9.67 5.99 9.34 6.98 9 8 C7.49712782 6.85793642 5.99776716 5.71125043 4.5 4.5625 C3.6646875 3.92441406 2.829375 3.28632812 1.96875 2.62890625 C1.3190625 2.09136719 0.669375 1.55382812 0 1 C0 0.67 0 0.34 0 0 Z " fill="#C28632" transform="translate(179,104)"/>
<path d="M0 0 C1.98 0.66 3.96 1.32 6 2 C6.33 1.34 6.66 0.68 7 0 C7.99 0.33 8.98 0.66 10 1 C9.67 1.66 9.34 2.32 9 3 C8.34 2.67 7.68 2.34 7 2 C7.33 3.32 7.66 4.64 8 6 C1.125 2.25 1.125 2.25 0 0 Z " fill="#B98326" transform="translate(131,93)"/>
<path d="M0 0 C3.36591866 1.44253657 5.51047079 3.33264727 8 6 C6.68 6.33 5.36 6.66 4 7 C0 2.25 0 2.25 0 0 Z " fill="#BF8929" transform="translate(86,79)"/>
<path d="M0 0 C0 1.65 0 3.3 0 5 C-0.33 3.68 -0.66 2.36 -1 1 C-2.99983534 1.79117904 -2.99983534 1.79117904 -5 3 C-5.33 3.99 -5.66 4.98 -6 6 C-6.66 5.67 -7.32 5.34 -8 5 C-8 3.68 -8 2.36 -8 1 C-5.07175348 0.02391783 -3.04386724 -0.08226668 0 0 Z " fill="#42311A" transform="translate(94,57)"/>
<path d="M0 0 C0.66 0.33 1.32 0.66 2 1 C1.2884375 1.99 1.2884375 1.99 0.5625 3 C-1.41317854 6.7933028 -1.64027463 9.75524068 -2 14 C-2.33 14 -2.66 14 -3 14 C-3.08153933 12.41753293 -3.13943557 10.83383727 -3.1875 9.25 C-3.22230469 8.36828125 -3.25710937 7.4865625 -3.29296875 6.578125 C-2.94923684 3.55328417 -1.99772541 2.24416398 0 0 Z " fill="#C29136" transform="translate(82,51)"/>
<path d="M0 0 C0.66 0.33 1.32 0.66 2 1 C0.75453595 4.73639216 -0.63404953 5.18756513 -4 7 C-4 5.68 -4 4.36 -4 3 C-2 1.25 -2 1.25 0 0 Z " fill="#1E160D" transform="translate(140,153)"/>
<path d="M0 0 C0 3.57575896 -1.08840607 5.05295935 -3 8 C-4.32 7.34 -5.64 6.68 -7 6 C-4.69 4.02 -2.38 2.04 0 0 Z " fill="#221909" transform="translate(182,119)"/>
<path d="M0 0 C0.78375 0.185625 1.5675 0.37125 2.375 0.5625 C4.97089775 1.25962266 4.97089775 1.25962266 7 0 C7.33 2.64 7.66 5.28 8 8 C7.67 7.01 7.34 6.02 7 5 C5.6846659 4.29848848 4.34882408 3.63474075 3 3 C1.25 1.375 1.25 1.375 0 0 Z " fill="#B77123" transform="translate(112,109)"/>
<path d="M0 0 C0.99 0.33 1.98 0.66 3 1 C3 2.65 3 4.3 3 6 C1.35 6 -0.3 6 -2 6 C-1.34 5.67 -0.68 5.34 0 5 C-0.2784375 4.0409375 -0.2784375 4.0409375 -0.5625 3.0625 C-0.7790625 2.0415625 -0.7790625 2.0415625 -1 1 C-0.67 0.67 -0.34 0.34 0 0 Z " fill="#E09D2F" transform="translate(79,77)"/>
<path d="M0 0 C1.65 0 3.3 0 5 0 C4.67 0.66 4.34 1.32 4 2 C3.01 2.33 2.02 2.66 1 3 C1.99 3.99 2.98 4.98 4 6 C3.01 6.33 2.02 6.66 1 7 C0.34 6.34 -0.32 5.68 -1 5 C-0.625 2.375 -0.625 2.375 0 0 Z " fill="#272116" transform="translate(95,67)"/>
<path d="M0 0 C0.66 0.33 1.32 0.66 2 1 C2 1.66 2 2.32 2 3 C1.01 3.66 0.02 4.32 -1 5 C-1.57993699 7.19454681 -1.57993699 7.19454681 -1.6875 9.625 C-1.75324219 10.44226563 -1.81898437 11.25953125 -1.88671875 12.1015625 C-1.92410156 12.72804687 -1.96148437 13.35453125 -2 14 C-2.33 14 -2.66 14 -3 14 C-3.08153933 12.41753293 -3.13943557 10.83383727 -3.1875 9.25 C-3.22230469 8.36828125 -3.25710937 7.4865625 -3.29296875 6.578125 C-2.94923684 3.55328417 -1.99772541 2.24416398 0 0 Z " fill="#9A6528" transform="translate(82,162)"/>
<path d="M0 0 C1.98 0 3.96 0 6 0 C1.25 4.875 1.25 4.875 -1 6 C-0.67 4.02 -0.34 2.04 0 0 Z " fill="#CF953A" transform="translate(171,139)"/>
<path d="M0 0 C0.66 0.33 1.32 0.66 2 1 C0.02 3.97 0.02 3.97 -2 7 C-3.32 6.34 -4.64 5.68 -6 5 C-4.02 3.35 -2.04 1.7 0 0 Z " fill="#A67127" transform="translate(126,125)"/>
<path d="M0 0 C-5.75 5 -5.75 5 -8 5 C-8 4.34 -8 3.68 -8 3 C-7.34 3 -6.68 3 -6 3 C-6 2.01 -6 1.02 -6 0 C-3.50907189 -1.24546405 -2.58919267 -0.7767578 0 0 Z " fill="#C48B3B" transform="translate(154,129)"/>
<path d="M0 0 C0.33 0.99 0.66 1.98 1 3 C2.32 3 3.64 3 5 3 C5 4.65 5 6.3 5 8 C2.5 6.8125 2.5 6.8125 0 5 C-0.3125 2.3125 -0.3125 2.3125 0 0 Z " fill="#CF9234" transform="translate(68,83)"/>
<path d="M0 0 C2.13093906 1.06546953 3.36587557 2.29159719 5 4 C4.67 4.99 4.34 5.98 4 7 C3.34 7 2.68 7 2 7 C1.67 6.01 1.34 5.02 1 4 C0.01 4.495 0.01 4.495 -1 5 C-0.67 3.35 -0.34 1.7 0 0 Z " fill="#ECB737" transform="translate(130,59)"/>
<path d="M0 0 C3.79588866 0.54226981 5.47211993 2.20127563 8 5 C7.01 5.495 7.01 5.495 6 6 C3.28564404 5.06694014 2.21956837 4.37326623 0.75 1.875 C0.5025 1.25625 0.255 0.6375 0 0 Z " fill="#BE9038" transform="translate(118,106)"/>
<path d="M0 0 C2.31 0.66 4.62 1.32 7 2 C7 2.99 7 3.98 7 5 C7.99 5.33 8.98 5.66 10 6 C9.01 6.495 9.01 6.495 8 7 C6.66382648 6.02471263 5.3311249 5.04466681 4 4.0625 C3.2575 3.51722656 2.515 2.97195312 1.75 2.41015625 C1.1725 1.94480469 0.595 1.47945313 0 1 C0 0.67 0 0.34 0 0 Z " fill="#B36E20" transform="translate(103,102)"/>
<path d="M0 0 C1.875 0.3125 1.875 0.3125 4 1 C4.66 1.99 5.32 2.98 6 4 C5.01 4.33 4.02 4.66 3 5 C2.01 4.34 1.02 3.68 0 3 C0 2.01 0 1.02 0 0 Z " fill="#DCA134" transform="translate(184,101)"/>
<path d="M0 0 C2.64 1.98 5.28 3.96 8 6 C7.34 6.66 6.68 7.32 6 8 C5.67 7.01 5.34 6.02 5 5 C2.98491642 4.26676204 2.98491642 4.26676204 1 4 C0.67 2.68 0.34 1.36 0 0 Z " fill="#B98C3A" transform="translate(94,85)"/>
<path d="M0 0 C3.24271506 0.5590888 4.93057424 1.4132178 7 4 C7 4.66 7 5.32 7 6 C6.34 6 5.68 6 5 6 C5 5.34 5 4.68 5 4 C4.360625 3.896875 3.72125 3.79375 3.0625 3.6875 C2.381875 3.460625 1.70125 3.23375 1 3 C0.67 2.01 0.34 1.02 0 0 Z " fill="#E29C25" transform="translate(107,87)"/>
<path d="M0 0 C5.01113235 1.4317521 6.94469549 3.98445693 10 8 C6.05205855 6.32971708 3.18203882 3.8204435 0 1 C0 0.67 0 0.34 0 0 Z " fill="#DFA847" transform="translate(135,69)"/>
<path d="M0 0 C0.33 1.32 0.66 2.64 1 4 C1.66 3.67 2.32 3.34 3 3 C3.33 4.98 3.66 6.96 4 9 C1.5 7.8125 1.5 7.8125 -1 6 C-1.375 3.375 -1.375 3.375 -1 1 C-0.67 0.67 -0.34 0.34 0 0 Z " fill="#C69D40" transform="translate(129,59)"/>
<path d="M0 0 C0.66 0 1.32 0 2 0 C0.86280581 3.41158256 -0.04342944 4.11854601 -3 6 C-3.66 6 -4.32 6 -5 6 C-4.67 4.68 -4.34 3.36 -4 2 C-2.68 2 -1.36 2 0 2 C0 1.34 0 0.68 0 0 Z " fill="#CF8E36" transform="translate(143,134)"/>
<path d="M0 0 C0.99 0.33 1.98 0.66 3 1 C2.6875 2.875 2.6875 2.875 2 5 C1.01 5.66 0.02 6.32 -1 7 C-0.67 4.69 -0.34 2.38 0 0 Z " fill="#B9791C" transform="translate(107,113)"/>
<path d="M0 0 C2.96175123 0.61277612 4.38058783 1.25372522 7 3 C7 3.99 7 4.98 7 6 C3.63279613 4.60667426 2.0140476 3.0210714 0 0 Z " fill="#1F160B" transform="translate(184,98)"/>
<path d="M0 0 C0.99 0 1.98 0 3 0 C3 1.98 3 3.96 3 6 C1.35 5.01 -0.3 4.02 -2 3 C-1.34 2.67 -0.68 2.34 0 2 C0 1.34 0 0.68 0 0 Z " fill="#C18C20" transform="translate(104,67)"/>
<path d="M0 0 C1.32 0.33 2.64 0.66 4 1 C2.35 2.65 0.7 4.3 -1 6 C-1.66 5.34 -2.32 4.68 -3 4 C-2.34 4 -1.68 4 -1 4 C-0.67 2.68 -0.34 1.36 0 0 Z " fill="#C6791C" transform="translate(102,167)"/>
<path d="M0 0 C0.66 0 1.32 0 2 0 C1.67 1.98 1.34 3.96 1 6 C0.01 5.67 -0.98 5.34 -2 5 C-1.125 1.125 -1.125 1.125 0 0 Z " fill="#C67515" transform="translate(128,125)"/>
<path d="M0 0 C2.0625 0.4375 2.0625 0.4375 4 1 C2.71034824 2.37562854 1.37310707 3.70766393 0 5 C-0.66 5 -1.32 5 -2 5 C-1.125 1.125 -1.125 1.125 0 0 Z " fill="#0E0A07" transform="translate(174,126)"/>
<path d="M0 0 C0.33 1.32 0.66 2.64 1 4 C-1.64738916 5.4606285 -2.89448334 6 -6 6 C-5.34 4.68 -4.68 3.36 -4 2 C-2.68 2.33 -1.36 2.66 0 3 C0 2.01 0 1.02 0 0 Z " fill="#B77822" transform="translate(130,114)"/>
<path d="M0 0 C2.88437779 1.29299694 4.87219421 2.65941363 7 5 C4.33333333 4.33333333 1.66666667 3.66666667 -1 3 C-0.67 2.01 -0.34 1.02 0 0 Z " fill="#B88D34" transform="translate(174,106)"/>
<path d="M0 0 C3.36591866 1.44253657 5.51047079 3.33264727 8 6 C5.21788056 5.62403791 3.4120716 5.32681541 1.1875 3.5625 C0 2 0 2 0 0 Z " fill="#C08930" transform="translate(93,101)"/>
<path d="M0 0 C6.75 1.625 6.75 1.625 9 5 C4.98525763 5 3.18024863 3.33218233 0 1 C0 0.67 0 0.34 0 0 Z " fill="#CE932D" transform="translate(113,90)"/>
<path d="M0 0 C0.99 0 1.98 0 3 0 C3 0.66 3 1.32 3 2 C4.32 2.66 5.64 3.32 7 4 C6.34 4.66 5.68 5.32 5 6 C3.2925002 4.71937515 1.62626404 3.38232443 0 2 C0 1.34 0 0.68 0 0 Z " fill="#1D160C" transform="translate(106,80)"/>
</svg>
